<?xml version="1.0" encoding="utf-8"?>
<!-- Generator: Adobe Illustrator 19.2.1, SVG Export Plug-In . SVG Version: 6.00 Build 0)  -->
<svg version="1.1" id="Layer_1" xmlns="http://www.w3.org/2000/svg" xmlns:xlink="http://www.w3.org/1999/xlink" x="0px" y="0px"
	 viewBox="0 0 45.2 45.2" enable-background="new 0 0 45.2 45.2" xml:space="preserve">
<path fill="#FFFFFF" d="M37.5,0H7.7C3.5,0,0,3.5,0,7.7v29.8c0,4.3,3.5,7.7,7.7,7.7h29.8c4.3,0,7.7-3.5,7.7-7.7V7.7
	C45.2,3.5,41.8,0,37.5,0z M32.6,5.1h8.2v8.2h-8.2V5.1z M15.9,17.7c1.6-2,4-3.2,6.7-3.2c2.7,0,5.1,1.3,6.7,3.2
	c1.2,1.5,1.9,3.4,1.9,5.4c0,4.8-3.9,8.6-8.6,8.6c-4.8,0-8.6-3.9-8.6-8.6C14,21,14.7,19.1,15.9,17.7z M41.9,37.5c0,2.4-2,4.4-4.4,4.4
	H7.7c-2.4,0-4.4-2-4.4-4.4V17.7h7.4c-0.8,1.7-1.2,3.5-1.2,5.4c0,7.2,5.8,13.1,13.1,13.1s13.1-5.8,13.1-13.1c0-1.9-0.4-3.8-1.2-5.4
	h7.4V37.5z"/>
</svg>
