<?xml version="1.0" encoding="utf-8"?>
<!-- Generator: Adobe Illustrator 19.2.1, SVG Export Plug-In . SVG Version: 6.00 Build 0)  -->
<svg version="1.1" id="Layer_1" xmlns="http://www.w3.org/2000/svg" xmlns:xlink="http://www.w3.org/1999/xlink" x="0px" y="0px"
	 viewBox="0 0 64.2 27.6" enable-background="new 0 0 64.2 27.6" xml:space="preserve">
<g>
	<path fill="#FFFFFF" d="M56.9,13h-5.3c0-0.1,0-0.2,0-0.2C51.6,5.7,45.9,0,38.8,0c-2,0-3.9,0.5-5.6,1.3v26.4h23.6
		c4,0,7.3-3.3,7.3-7.3C64.2,16.3,60.9,13,56.9,13z"/>
	<g>
		<path fill="#FFFFFF" d="M31.6,27.6c-0.5,0-0.9-0.4-0.9-0.9V3.2c0-0.5,0.4-0.9,0.9-0.9c0.5,0,0.9,0.4,0.9,0.9v23.5
			C32.5,27.2,32.1,27.6,31.6,27.6z"/>
	</g>
	<g>
		<path fill="#FFFFFF" d="M29,27.6c-0.5,0-0.9-0.4-0.9-0.9V6c0-0.5,0.4-0.9,0.9-0.9C29.5,5.1,30,5.5,30,6v20.7
			C30,27.2,29.5,27.6,29,27.6z"/>
	</g>
	<g>
		<path fill="#FFFFFF" d="M26.5,27.6c-0.5,0-0.9-0.4-0.9-0.9V7.4c0-0.5,0.4-0.9,0.9-0.9s0.9,0.4,0.9,0.9v19.3
			C27.4,27.2,27,27.6,26.5,27.6z"/>
	</g>
	<g>
		<path fill="#FFFFFF" d="M23.9,27.6c-0.5,0-0.9-0.4-0.9-0.9V6.5c0-0.5,0.4-0.9,0.9-0.9c0.5,0,0.9,0.4,0.9,0.9v20.2
			C24.9,27.2,24.4,27.6,23.9,27.6z"/>
	</g>
	<g>
		<path fill="#FFFFFF" d="M21.4,27.6c-0.5,0-0.9-0.4-0.9-0.9V6c0-0.5,0.4-0.9,0.9-0.9c0.5,0,0.9,0.4,0.9,0.9v20.7
			C22.3,27.2,21.9,27.6,21.4,27.6z"/>
	</g>
	<g>
		<path fill="#FFFFFF" d="M18.8,27.6c-0.5,0-0.9-0.4-0.9-0.9V6.5c0-0.5,0.4-0.9,0.9-0.9c0.5,0,0.9,0.4,0.9,0.9v20.2
			C19.8,27.2,19.3,27.6,18.8,27.6z"/>
	</g>
	<g>
		<path fill="#FFFFFF" d="M16.3,27.6c-0.5,0-0.9-0.4-0.9-0.9V7.9c0-0.5,0.4-0.9,0.9-0.9c0.5,0,0.9,0.4,0.9,0.9v18.8
			C17.2,27.2,16.8,27.6,16.3,27.6z"/>
	</g>
	<g>
		<path fill="#FFFFFF" d="M13.7,27.6c-0.5,0-0.9-0.4-0.9-0.9V10.3c0-0.5,0.4-0.9,0.9-0.9c0.5,0,0.9,0.4,0.9,0.9v16.4
			C14.6,27.2,14.2,27.6,13.7,27.6z"/>
	</g>
	<g>
		<path fill="#FFFFFF" d="M11.2,27.6c-0.5,0-0.9-0.4-0.9-0.9V14c0-0.5,0.4-0.9,0.9-0.9c0.5,0,0.9,0.4,0.9,0.9v12.7
			C12.1,27.2,11.7,27.6,11.2,27.6z"/>
	</g>
	<g>
		<path fill="#FFFFFF" d="M8.6,27.6c-0.5,0-0.9-0.4-0.9-0.9V13.6c0-0.5,0.4-0.9,0.9-0.9c0.5,0,0.9,0.4,0.9,0.9v13.1
			C9.5,27.2,9.1,27.6,8.6,27.6z"/>
	</g>
	<g>
		<path fill="#FFFFFF" d="M6,27.6c-0.5,0-0.9-0.4-0.9-0.9V13.6c0-0.5,0.4-0.9,0.9-0.9S7,13,7,13.6v13.1C7,27.2,6.6,27.6,6,27.6z"/>
	</g>
	<g>
		<path fill="#FFFFFF" d="M3.5,26.7c-0.5,0-0.9-0.4-0.9-0.9V15C2.6,14.4,3,14,3.5,14s0.9,0.4,0.9,0.9v10.8C4.4,26.3,4,26.7,3.5,26.7
			z"/>
	</g>
	<g>
		<path fill="#FFFFFF" d="M0.9,24.8c-0.5,0-0.9-0.4-0.9-0.9v-7c0-0.5,0.4-0.9,0.9-0.9s0.9,0.4,0.9,0.9v7C1.9,24.4,1.5,24.8,0.9,24.8
			z"/>
	</g>
</g>
</svg>
