<?xml version="1.0" encoding="utf-8"?>
<!-- Generator: Adobe Illustrator 19.2.1, SVG Export Plug-In . SVG Version: 6.00 Build 0)  -->
<svg version="1.1" id="Layer_1" xmlns="http://www.w3.org/2000/svg" xmlns:xlink="http://www.w3.org/1999/xlink" x="0px" y="0px"
	 viewBox="0 0 304 172" enable-background="new 0 0 304 172" xml:space="preserve">
<g>
	<path fill="#FFFFFF" d="M101.2,46v14.8H58.9v17.2h38.8v13.7H58.9v19.6h43.2v14.8H41.3V46H101.2z"/>
	<path fill="#FFFFFF" d="M150.1,46c5,0,9.3,0.7,12.8,2.2c3.5,1.5,6.4,3.4,8.6,5.8c2.2,2.4,3.8,5.1,4.8,8.2c1,3.1,1.5,6.2,1.5,9.5
		c0,3.2-0.5,6.4-1.5,9.5c-1,3.1-2.6,5.9-4.8,8.2c-2.2,2.4-5.1,4.3-8.6,5.8c-3.5,1.5-7.8,2.2-12.8,2.2h-18.5v28.7H114V46H150.1z
		 M145.3,83.7c2,0,4-0.1,5.8-0.4c1.9-0.3,3.5-0.9,4.9-1.7c1.4-0.9,2.6-2.1,3.4-3.6c0.9-1.6,1.3-3.6,1.3-6.2c0-2.5-0.4-4.6-1.3-6.2
		c-0.9-1.6-2-2.8-3.4-3.6c-1.4-0.9-3.1-1.4-4.9-1.7c-1.9-0.3-3.8-0.4-5.8-0.4h-13.7v24H145.3z"/>
	<path fill="#FFFFFF" d="M206.4,46v33.2L237.6,46h22l-31.3,31.6l34.3,48.4h-22.1l-24.1-36l-10.1,10.2v25.8h-17.6V46H206.4z"/>
</g>
<path fill="#FFFFFF" d="M283.3,20.7v130.7H20.7V20.7H283.3 M304,0H0v172h304V0L304,0z"/>
</svg>
