<?xml version="1.0" encoding="utf-8"?>
<!-- Generator: Adobe Illustrator 19.2.1, SVG Export Plug-In . SVG Version: 6.00 Build 0)  -->
<svg version="1.1" id="Layer_1" xmlns="http://www.w3.org/2000/svg" xmlns:xlink="http://www.w3.org/1999/xlink" x="0px" y="0px"
	 viewBox="0 0 55.7 45" enable-background="new 0 0 55.7 45" xml:space="preserve">
<path fill="#FFFFFF" d="M55.7,5.3c0,0-4.9,1.4-6.7,1.2c0,0,5-3.4,5-6.2c0,0-4.7,2.8-6.9,2.8c-5.8-6-20.8-3.7-19.7,10.4
	c0,0-15.1,0.4-23.3-11.4c0,0-5,7.3,3.2,14.9c0,0-2.8,0.3-4.7-1.3c0,0-2.8,6.6,8.7,11.6H6.4c0,0,1.8,7.6,11.1,7.5
	c-4,3.6-9.6,5.8-17.5,4.9c-0.3,0,6,5.3,18.2,5.3c11.8,0,31.9-8.5,31.2-34c0,0,0,0,0,0C49.4,11,54.3,7.2,55.7,5.3z"/>
</svg>
