<?xml version="1.0" encoding="utf-8"?>
<!-- Generator: Adobe Illustrator 19.2.1, SVG Export Plug-In . SVG Version: 6.00 Build 0)  -->
<svg version="1.1" id="Layer_1" xmlns="http://www.w3.org/2000/svg" xmlns:xlink="http://www.w3.org/1999/xlink" x="0px" y="0px"
	 viewBox="0 0 1200 371.3" enable-background="new 0 0 1200 371.3" xml:space="preserve">
<g>
	<path fill="#FFFFFF" d="M21.6,314.4c0.4-1.3,2.1-2,3.2-3.4C30,304.6,21.9,310.3,21.6,314.4z"/>
	<path fill="#FFFFFF" d="M208.6,280.6l-0.4,0.7C208.4,281,208.5,280.8,208.6,280.6z"/>
	<path fill="#FFFFFF" d="M253.5,192c6.6-15.7,10.9-27.3,17.3-40.4c0-1.9-1.6-2.6-1.5-3.7c6.7-16,15.6-32.5,22.3-46.1
		c6.5-13.2,11.6-26.4,15.8-39.9c4.3-13.4,8-27,11.2-41c0.1-1.8-1.8,1.7-1.5,0c-0.2-6.8,3.3-12.5,3-20.9c-6.5,11.1-10.6,22.8-16.8,37
		c0.5-2,3.4-8.7,2-7.4c-3.2,6.1-3.9,13.5-8,15.8c0.3-5.2,4.8-8.6,3-13.2c-2.7,6.6-5.6,12.3-7.6,18.6c-1,0-0.8,1.2-1.5-0.1
		c-21.1,38.1-46.9,86.4-68.2,132.6c-4,8.7-7.7,17.7-10.7,26.5c0.3-10,0.5-19.7,0.7-28.2c0.6-34.2,3.9-70,0.9-97
		c-0.6-5.8-3.2-10.9-5.7-15.7c1.4-6.8,0.7-13.8-7.1-19.4c-6.7-4.9-23.9-2.5-19.9-9.3l-2.1,3.1c-0.7-1.3-0.7-2.4-2.9-2.7
		c-21.8-0.7-29.1,10.6-36.4,28.2c-4.2,10.1-6.3,21.5-8.9,32.9c-2.6,11.4-5.6,22.8-11.2,33c-9.3,17-15.7,29.6-25.3,43
		c-0.1,2.3,2.2,3.9,2,5.3c-10.4,16.9-24.2,33.1-34.7,46.6C41.2,255.8,26.8,283.5,9.8,311c-0.8,2,2.5-1.2,1.7,0.5
		c-2.3,7.4-8.2,12.1-11.5,21.1c11.7-8.9,20.9-20,32.7-33.3c-1.2,2-6.8,8.3-4.8,7.5c5.8-5.5,9-13.5,14.5-14.5
		c-2,5.8-8.3,7.8-7.9,13.6c5.5-6.3,10.7-11.5,15.1-17.9c1.2,0.4,1.3-1,1.9,0.7c18.5-17.4,38.9-37.7,59-59.4
		c20.1-21.7,39.9-45,57.1-68.6c4.8-6.7,9.3-13.7,13.3-20.8c-2.4,21.7-1.8,44.4-0.9,65.9c0.2,5.2,2,10.5,2.1,16
		c0.1,4.2-1.2,8.5-0.5,12.6c0.6,3.9,2.6,7.8,3.2,11.8c1,7,1.9,13.3,4.3,19c1.2,3.2,3,6.2,5.4,8.7c0.4,2,1.4,3.6,3.2,4.7
		c3.5,2,14.3-4.1,11.1,2.1l1.6-3c0.3,0.8,0.2,1.6,1.5,1.3c13.3-4.9,19.1-15.4,25.2-30.7C243.9,230.7,245.6,210.9,253.5,192z"/>
	<path fill="#FFFFFF" d="M181.2,40.3c0.2-0.2,0.3-0.5,0.5-0.8L181.2,40.3z"/>
	<path fill="#FFFFFF" d="M308.3,21.6c0,1.2-1.2,2.2-1.6,3.7C304.2,32,309.1,25,308.3,21.6z"/>
	<path fill="#FFFFFF" d="M393.7,241.9c-0.4-0.8,0.2-1.9,0.2-3C393.7,233.6,391.6,239.8,393.7,241.9z"/>
	<path fill="#FFFFFF" d="M249.6,307c-0.5,0.7-1.3,0.9-1.6,2.1C249.2,310.2,250.1,307.4,249.6,307z"/>
	<path fill="#FFFFFF" d="M256.1,291c1.3-1.8,1.1-3.7,2.3-4.6c-1-0.6-1.5-0.2-2.1,0.2C258.2,288.2,254.5,289.5,256.1,291z"/>
	<path fill="#FFFFFF" d="M255.1,290.9c-2.1,3.5-0.4,6.7,0.6,1.9C255.7,292.6,256.1,291,255.1,290.9z"/>
	<path fill="#FFFFFF" d="M259.9,280.2c-1.1,0.9-2.7,3.7-1.6,5.3C259.3,283.6,260.3,281.8,259.9,280.2z"/>
	<path fill="#FFFFFF" d="M249.9,305.5c1.1-0.9,2.1-4.1,2.4-5.8C251.4,301.2,249.7,303.2,249.9,305.5z"/>
	<path fill="#FFFFFF" d="M364.7,111.1C361.8,112,363,114.5,364.7,111.1L364.7,111.1z"/>
	<path fill="#FFFFFF" d="M247,314.3c1.4-1.5,0.5-3.7,2.1-4.3C247.4,309.5,246.1,313.5,247,314.3z"/>
	<path fill="#FFFFFF" d="M246.3,308.3c-0.7-0.7-2.4,3.5-1.8,4.5C245.1,311.3,246.7,309.6,246.3,308.3z"/>
	<path fill="#FFFFFF" d="M242.1,325.1c-0.4,1.6-2,3.3-0.7,4.6C240.9,328.3,243.6,326.2,242.1,325.1z"/>
	<path fill="#FFFFFF" d="M240.9,343c0.2-1,1.9-2.4,1.1-3.2c-0.6,0.5-1,0.4-1.4-0.3c0,0.6-1.3,1.4-0.4,1.9
		C242.1,340.4,240,341.9,240.9,343z"/>
	<path fill="#FFFFFF" d="M242,336.5c1.2-2,2.7-3.3,1.6-5.3C242.9,333,241.3,335.1,242,336.5z"/>
	<path fill="#FFFFFF" d="M244.3,319.6c-0.8,1.6-2.1,3.3-1.3,4.7C243.9,322.6,244.8,321,244.3,319.6z"/>
	<path fill="#FFFFFF" d="M409.1,70.6c0.8-0.9,0.6-0.5,0.8-1.6C408.6,68.1,407.3,69.9,409.1,70.6z"/>
	<path fill="#FFFFFF" d="M241.6,338.4c-0.5-0.3-1,0.7-0.5,1c0.5-1,2.4-1.7,0.3-2.7C240.4,337.5,242.7,337.6,241.6,338.4z"/>
	<path fill="#FFFFFF" d="M445.3,176c1.9-0.6,3.8-1.2,5.8-1.8c1.9-0.5,3.8-1,5.7-1.5c3.8-1,7.5-1.8,11.1-2.3
		c4.6-0.6,9.9,2.5,13.7-2.7c-9.8-1.5-19.7-2.6-29.7-3.2c-9.3-0.3-19-2.1-28.8-2c-6.4,0.4-12.7,1.1-19.1,2c1.5-18.1,2.8-36.7,4-54.3
		c0.6-9.8,0.9-19.5,0.2-28.5c-0.5-5.6-2.1-11.7-0.8-16.6c0.2-0.6,0.3-1.2,0.4-1.6c0.9-1.6,1.6-3.5,1.8-5.6c0.1-1.3-0.2-2.7-0.9-4.3
		c0.1-1.7,0.2-3.4,0.3-5.2c0.1-3.7-0.9-7.1-4.8-8.9c-3.7-1.7-12.7,2.6-10.9-2.1l-0.9,1.9c-0.1-0.1-0.2-0.1-0.4-0.1
		c-0.3-0.5-0.5-0.8-1.4-0.7c-0.2,0.1-0.4,0.1-0.6,0.2h-0.1c-9.8-1.9-15.3,7.4-21.8,13.3c-5.6,5.1-11.3,10.3-15.1,14.6
		c-13.8,15.2-25.1,35.1-32.1,51.3c-3,6.9-6.7,12.7-9.6,19c-11.4,25.7-22.8,48.6-30.4,71.9c-2.7,1-1.7,3.1-2.5,4.9
		c-0.2,0.4-0.3,0.8-0.5,1.2c-0.5,0.4-1,0.9-1.5,1.4c-2.1,2.1-4.2,4.1-5.8,6.5c-1.6,2.3-2.7,4.7-3.2,7.2c-0.1,0.6-0.2,1.3-0.2,1.9
		c-0.1,0.7,0,1.4,0.1,2.1c0.1,1.3,0.5,2.5,1.3,3.6c-9.2,22.2-18.5,45-27.9,68.8c-2.3,8.1-7.2,18.9-9.5,27.3
		c7.5-14.3,13-33,19.8-48.9c3.3-7.6,6.4-19.4,11.4-22.6c-2.1,11-11.3,23.5-11.7,34.8c7.3-15.2,11-27.9,18-42
		c-1.3,3.2-1.6,6.9-2.9,9.8c-1.3,3.2-4.7,5.6-3.5,8.9c-1.6,2.2-3,4.6-2.1,6.3c1.3-2.9,2.4-7.3,4.8-9.5c-5,9.9-7.3,20.3-10.4,26.9
		c0.3-0.3,0.4-1,0.9-0.8c-0.5,2-4,4.4-3.2,7.5c1.3-1.3,0.2-3.6,2-3.9c-1.5,3.5-1.5,6.6-4.1,9c-0.4-0.8,2.2-2.4,0.8-3.7
		c-1.6,4.3-1.9,8.2-2.5,12.3c0.9,0.2,0.8-1.9,1.8-1.5c-1.1,2.9-1.2,2.6-2.3,2.5c-1.7,1.4,1.7,3.3-1,4.1c0.2-0.5,0.8-1.2,0.2-1.5
		c-1.8,1,1.4,3.3-0.7,5.4c-1.4-0.8,0.6-2.3-0.5-3.1c-0.9,1.9-1.9,2.2-1.6,4.2c1.8,1.4-0.1-1.8,1.6-1.2c-1.9,9.4-6.6,20.7-6.3,30.2
		c3.1-6.7,7.8-14.4,12.9-21.5c4.8-11.6,12.1-26.1,17.9-40.8c3.7-9.5,8.4-17.7,11-26.1c0.5,0.3,0.1,0.8,0.5,1.1
		c2.9-10.7,10.1-21.8,15.7-33.2c0.3-0.5,0.5-1.1,0.8-1.6c1.8-1.5,3.7-3,5.6-4.2c2.2-1.3,4.2-2.7,6.3-4
		c19.1-12.6,39.8-21.6,62.4-29.8c1.4-0.5,2.7-1.2,4.2-1.9c0.5,17.4,3.7,33.9,6.7,50.9c0.5,1.3,1-1.6,1.4-0.5c2.5,4.5,1.2,9.3,4,15
		c2.9-9.4,2.7-18.6,3-29.9c0.3,1.5,0.1,6.8,0.9,5.5c0.7-5-1.4-10.3,1.4-13c1.7,3.6-1.2,7.2,2.2,9.8c0.1-5.3,0.5-10-0.1-14.9
		c0.9-0.3,0.3-1,1.4-0.4c1.3-9.8,2.5-20.2,3.6-31c1.6-0.3,3.1-0.5,4.7-0.9c5.3-1,10.2-2.3,15.4-4.9
		C429.8,180.4,437.6,178.5,445.3,176z M263.4,260.9c-1.5-0.4,0.4-3.1-1.1-0.9c-1.5-1.6,2.2-4.4,1.5-6.2c0.7-0.8,1.3,0.7,0.5,1.1
		c1,0.3,1.2-1.6,1-2C266.4,254.5,264,257.8,263.4,260.9z M269.2,246.2c0.3-0.3-2.7-0.5-1.5,0.9c-1.6-0.8,0.4-2.3,0.8-3.5
		C268.3,245.3,272.3,243,269.2,246.2z M271.1,242.6c-1.3,0.8-0.8-1.2-0.2-1.8c-0.6-0.2-0.8,0.7-1.1,1.1c-0.9-0.1,0.8-2.4,1.3-2.6
		C271.8,240.3,270.4,241.6,271.1,242.6z M378.3,168.9c-2.1,0.4-4.1,0.8-6.2,1.3c-3.4,0.9-6.8,1.9-10.3,2.9c-3.4,1-6.9,2-10.3,3.1
		c-3.4,1.2-6.8,2.4-10.1,3.6c-2.2,0.8-4.6,1.6-7,2.4c-2.4,1-4.9,2-7.4,3.1c-2.2,0.9-4.5,1.9-6.8,2.9c0.1-0.1,0.2-0.2,0.2-0.3
		c5.9-9.3,11.3-27.6,18.1-34.9c4-6.7,7.3-16.8,14.5-24.8c0.2-0.7-0.4-1.3-0.6-1.9c3.9-1.6,5.4-7.8,6.9-10.5
		c3.8-7,11.7-12.1,14.3-17.1c0.5-0.9,1-1.8,1.6-2.6c0.7,5.1,1.2,10.2,1.1,15.3c-0.3,12.7,0.4,21.9-0.3,32.6c0.7,1.3,2.5,1.3,2.9,2.1
		C379.2,153.4,378.8,161.4,378.3,168.9z"/>
	<path fill="#FFFFFF" d="M393.5,37.6l0.2-0.5C393.6,37.2,393.5,37.4,393.5,37.6z"/>
	<path fill="#FFFFFF" d="M437.5,315.5C439.8,310.5,437.2,311.3,437.5,315.5L437.5,315.5z"/>
	<path fill="#FFFFFF" d="M441.6,302.2c-0.2,1.4-2.1,3.3-1.1,4.4C441.4,305.1,442.8,303.5,441.6,302.2z"/>
	<path fill="#FFFFFF" d="M418.6,356.5c-0.1,0.1-0.1,0.1-0.1,0.2C418.5,356.7,418.6,356.6,418.6,356.5z"/>
	<path fill="#FFFFFF" d="M511.9,203.1c1.1-1.9,2.3-4.2,5-6.1c0.5,0.4,0.2,0.9,1,1.4c1.3-1.7,2.7-3.3,4-4.9c1.9,1.9,3.8,3.8,5.7,5.3
		c-1.4-2.1-3.1-4.2-4.9-6.3c1.3-1.5,2.5-3,3.8-4.5c0.4,0.7,0.9,1.3,1.9,1c-0.4-0.7-0.8-1.3-1.4-1.5c0.8-0.9,1.5-1.8,2.3-2.7
		c0.8-0.1,1.4-0.2,0.8,0.9c-0.2-0.2-0.3-0.7-0.8-0.4c-0.4,1.4,3-0.4,3.1,1.3c-1.3,0.8-1.1-0.8-2.4-0.2c0.7,0.9,0.4,1.7,1.8,1.8
		c1.9-1-1.2-0.3,0.2-1.4c5,2.9,9.5,8,15.8,9.3c-2.5-3.3-4.7-7.8-6.3-12.6c-1.8-2-3.6-4.2-5.4-6.7c4.7-5.4,9.4-11,14.1-17.1
		c15-19.7,27.5-41.4,37.7-64.5c1.9-4.3,4-8.9,5.4-12c2.4-5.1,5.4-8.3,8.1-13.3c3.5-6.3,5.7-14.7,10.1-22.3
		c3.7-6.4,12.7-15.4,14.1-21.1c0.8-3.2,0.3-5.7-1-7.7s-3.3-3.5-5.7-4.7c-4.8-2.3-10.4-3.7-12.4-6c-9.5,0.2-17,1.7-25,6.3
		c-9.7,5.6-13.7,16.9-19.7,26.8c-6.2,10.4-7.6,23.3-11.3,31.6c-0.2,0.5-1.3,0.1-1.8,0.9c-2.5,4.2-2.9,12.1-4.6,16.1
		c-3.6,2.5-0.2,7.5-5,7.7c-0.6,5.5-2.8,10.7-5.6,15.5c-2.7,4.8-6,9.3-8.9,13.3c0.5,1.4,2.6,1.1,1.9,1.9c-0.9,1.4-2.2-0.5-3.1,0.9
		c0.4,1.3,2.3,0.5,1.5,1.5c-0.6-0.3-1.2-0.5-1.8-0.4c0.5,0.8,1.5,0.5,1.2,1.2c-0.3,0.3-0.1,0.7-0.3,1c-0.7,0.2-1.5-1.4-2.2-0.8
		c1.6,1.7-1.8,0.9-0.4,2.8c0.5-0.6,1.2-0.5,1.8-0.3c-2.2,2.1-4.2,5.3-6.1,8.3c-1.4,2.2-2.8,4.4-4.2,6c-3.3-3.8-5.7-8.9-8.8-13.3
		c-5.2-7.2-12.2-13.5-16.5-22c-1.9,0.6-1.3-0.9-1.6-1.6c-2.5-5.6-11.2-12.4-11.9-18.5c-2-3.9-6.5-8-7.4-14.3
		c-0.3-0.3-1.1,0.1-1.6,0.1c1.3-3-1.9-5-2.7-6.6c-2.2-3.8-0.9-10.3-2.5-12.9c-1.9-3.1-1.4-7.4-0.4-11.5c-0.1-0.2,0.1-0.4,0.1-0.6
		c-0.1,0.2-0.1,0.4-0.1,0.6c0.1,0.1,0.3,0.1,0.9-0.4c-0.1-0.9-1.1-0.3-1.9-0.2c-0.2-2.1,0.3-3.3,0.9-5.3c-0.2-0.7-1.5-2.9,0.7-3.2
		c-0.9-0.7-1.1-0.5,0.3-2c-2.4-2.1-0.6-7.6-5.2-9.4c-3.7-1.4-17.1,3.9-24.3,10.7c-7.1,6.6-4.4,12-4.4,17.6
		c-0.1,4.8-0.1,9.7,0.4,13.1c1.6,12.3,7.8,23.5,14.1,31c2.7,3.2,4.2,6.8,6.6,9.9c9.9,12.2,18,24,28.6,33.2c-1,2.1,1,1.7,1.7,2.6
		c6.9,7.7,13.9,15.7,21.2,23.8c-1,1.6-1.8,3.5-2.9,5.4c-2.5,4.1-5.6,8.2-8.7,12.4c-3.1,4.3-6.4,8.5-9.5,12.7
		c-3,4.2-5.9,8.3-8.3,12.1c-2.4,3.8-4.1,7.4-5.2,10.5c-4.4,1.6-6.7,11-8.2,12.4c-1.1,1.1-0.1,2-1.5,4.4c-2.6,4.2-3.8,7.6-7.9,7.9
		c-0.1,2.9-1.8,5.4-3.4,7.7c-1.5,2.4-2.9,4.6-2.6,6.4c0.7-0.5,1.1-1.5,2-1.5l-1.4,2.7l-1.9-1c-2,4.9-5.6,8.2-5.9,13
		c0.3-0.4,1.3-0.6,1.2,0.1c-0.7,1.2-0.9,3.4-2.5,2.8c-0.1-1.3,2.4-1.2,1.2-2.4c-0.8,0.7-1.8,1.1-2.3,2.4c0.7,0.4,1.9,0.7,1.8,1.3
		c-1.7,2.2-2.8,4.6-3.5,6.9c-0.6,2.2-1,4.3-1.5,6c-0.3-0.2-1.5-1.8-2-0.8c0.9,2.7-0.8,5.5-2.4,8.2c-1.5,2.7-2.9,5.4-1.7,7.7
		c-2.9-0.3-2.7,3.5-1,4.7c-2.2-0.7-3,1-3.2,3.1c-0.1,0.9,1.6-0.2,1.4,1.3c-1.8,2.2-2.6,4.6-3.2,7.1c-0.7,2.6-1.3,5.5-2.3,9
		c1.1,0.8,2.2-0.7,2.1,0.4c0.8,2.4-1.5,5.6-1.8,7.1c0.2-0.8,0.9,0.3-0.1,0.4c-2-1,1.6-2.2-0.4-4c-0.3,1.3-2.7,5.3-1.2,6.4
		c1.8,0.1-1.3-2.2,1.4-1.5c0.3,2.4-0.6,2.9-0.8,6.8c-0.7-0.2-1-0.7-2.1-0.7c1.9,1.1,1.5,3.2,3.3,5.5c1.4-3.2,1.8-6.3,2.2-9.4
		c0.7-3.2,1.4-6.4,3.2-9.9c-0.8,4.1-1.3,7.2-1.9,10.1c-0.4,2.9-0.9,5.6-1.9,8.8c0.6,0.1,1.5,0.1,1.6,0.5c-2.3,0.3-1.9,3.7-1.6,5.3
		c0.3-2.6,0.2,0.1,1.1,0.5c-0.4-0.9,1.9-2.7,1.8-2.1c0.9-1.9,0.1-4.9,1.2-6.3c0.2-0.3,1.5,0.4,1.6-0.2c0,0.1-1.6-0.2-1.6-0.6
		c0.1-1,1.6-1.6,1.9-2.6s-0.4-2.7-0.1-3.7c2.4-10.1,7.1-21.6,11.7-32c2.7-7,5.8-14.1,8.9-21c3.6-6.7,7.1-13.3,12.2-18.5
		c-3.6,4.8-6.1,11.1-9,17.5c-1.5,3.2-2.5,6.5-4,9.6c-1.4,3.2-3.1,6.3-4.7,9.2c1.5,1.2-0.8,1.5,0.9,2.5c0.5-1.5,1.2-3.3,1.8-5.2
		c0.8-1.9,1.6-3.8,2.6-5.7c1.8-3.8,3.6-7.5,5.6-10.1c1.5,0.3-1.2,1.6,0.3,2c0.8-0.7,0.5-3.3,2.2-2.2c-6.1,12.3-13.2,27.1-14.7,38.7
		c1.4-2,2.4-4.1,3.3-6.5s2.3-5,3.8-8c6.5-12.9,13.7-31,21.5-40c0-1.2,1-3.9,2.6-6.5s3.5-5,4.8-5.6c8.8-15.5,21.3-35.1,32.8-45.3
		c-0.1,0.3-0.5,0.7-0.1,1c4.7-4.3,9.8-11,11.6-16.3C514.1,200.1,513.4,203.5,511.9,203.1z M421.1,317.1c0.3,0.5,0.3,1.1,0.1,1.8
		c-0.4-0.2-0.4-0.5-0.9-0.7c-0.2,0.3,0.1,0.4,0.4,0.5C419,320,419.9,316.7,421.1,317.1C421.5,312.9,423.3,315.4,421.1,317.1z
		 M423,320.7c-1-0.7,0.2-3,0.8-3.3C424.5,318.7,423.5,319,423,320.7z M454.7,279.5c-1.4,2.9-3.2,5.9-4.3,7.5
		c-1.3-0.4,1.1-1.6-0.9-1.8c0.8-0.5,2.2,0.4,2.4-1.2c-1-0.7-1.2,0.1-1.5,0.7c-1-2.3,3.1-2,2.1-4.6c0.3,1.3,0.8,0.3,1.5-1.4
		c0.8-1.8,1.8-4.3,3-6.2C457.4,273.8,456.3,276.6,454.7,279.5z M490.9,156.7c-0.5,0.6-1-0.9-0.9-1.4c1-0.3,1,0.9,2.1,0.6
		c-0.3,1-1.2,0.3-1.2-0.2C490.4,156.2,490.8,156.4,490.9,156.7z M493.1,159.1c-1.5,1-1.3-0.7-1.8-1.1c0.9,0.4,1.9-2.8,2.1-0.1
		C493.4,157.6,491.4,159.7,493.1,159.1z M498.2,165c-2,0.8-1.5-2.3-3.1-2.1c-0.2-0.6,1.2-0.8,1-0.2c0.8-0.7-0.3-1.1-0.7-1
		c1.7-0.4,2.4,1.8,4.1,2.7C498.3,165.4,497.7,163.5,498.2,165z M501.6,167.4c-0.4,0.3-0.8,0.5-1.1,0.9c-0.5-1-0.8-2.1-0.5-3.2
		c0.8,0.4,1.5,0.9,2.1,1.5C502,166.9,501.8,167.2,501.6,167.4z M502.7,162.8c-0.2,0.2-0.3,0.6-0.3,1c-1.2-1.4-2.3-2.8-3.4-4.4
		c1.1,1.2,2.8,2,4,3C502.9,162.6,502.7,162.7,502.7,162.8z"/>
	<path fill="#FFFFFF" d="M443.5,300.2c0.8-1.4,2.6-4.3,2.7-6.9C445.1,295.8,442.1,298.7,443.5,300.2z"/>
	<path fill="#FFFFFF" d="M435.3,313.5l-0.5-0.2c-0.1,0.6-0.7,1.4,0,1.8C436.3,314.2,437.3,307.5,435.3,313.5z"/>
	<path fill="#FFFFFF" d="M435.6,319.6c0.2-1.3,1.4-1.4,1.5-3C435.5,315.7,434.9,319.2,435.6,319.6z"/>
	<path fill="#FFFFFF" d="M418.9,359.3L418.9,359.3C419,359.2,419,359.2,418.9,359.3L418.9,359.3z"/>
	<path fill="#FFFFFF" d="M415.1,333c-1.6-0.5-1.4,1.2-2,1.8c0.8,0.2,0.8,0.9,1.4,1.2c0.3-0.8-0.4-1-0.2-1.8
		C415.5,334.1,415.6,333.7,415.1,333z"/>
	<path fill="#FFFFFF" d="M419.4,358.9c-0.2,0.1-0.3,0.2-0.5,0.4C419.3,359.2,419.6,359.2,419.4,358.9z"/>
	<path fill="#FFFFFF" d="M418.3,367.7C419,362.3,416.8,363.8,418.3,367.7L418.3,367.7z"/>
	<path fill="#FFFFFF" d="M419.4,365.3c0.4,2.7-1.5,3.7-0.1,6C418.9,369.3,421,367,419.4,365.3z"/>
	<path fill="#FFFFFF" d="M419,359.3C417.1,361.3,419.7,364.6,419,359.3L419,359.3z"/>
	<path fill="#FFFFFF" d="M434.5,321.7c0.3,1.6-2.2,2.3-0.9,3.5C434,324.5,435.9,321.4,434.5,321.7z"/>
	<path fill="#FFFFFF" d="M432.4,323.3c0-1.2,1.3-4.8,2.4-6.5C433,316.7,430.8,323.4,432.4,323.3z"/>
	<path fill="#FFFFFF" d="M463,30.4c-0.1-0.7,0.1-0.5-0.5-0.9C461.1,30.3,461.5,31.6,463,30.4z"/>
	<path fill="#FFFFFF" d="M462.8,68.4C461.6,70.6,464,70.1,462.8,68.4L462.8,68.4z"/>
	<path fill="#FFFFFF" d="M460.5,36.6c0.3-0.8,0-1.4,0.2-2.1C459.8,35.1,459.9,36.7,460.5,36.6z"/>
	<path fill="#FFFFFF" d="M537.2,192.8c-0.4-0.5,0.3-2-1.6-0.7c-0.1,0.9,1.3-0.7,1.2,0.2C536.3,192.7,536.7,193.2,537.2,192.8z"/>
	<path fill="#FFFFFF" d="M528.4,189.9c0.8,0.6,1,1.9,2.5,1.3C529.8,191.2,530.1,189,528.4,189.9z"/>
	<path fill="#FFFFFF" d="M533.4,189.7c0.7,0.8,1,2.4,2.5,2C535.3,190.5,535.4,189.3,533.4,189.7z"/>
	<path fill="#FFFFFF" d="M537.9,193.9c0.5-1.5,0.2,0.2,1.5-0.3c-0.5-0.3-0.4-1.7-1.4-1.3c0,0.5-0.4,0.8-1,0.9
		C537.3,193.4,537.1,194.5,537.9,193.9z"/>
	<path fill="#FFFFFF" d="M860.6,281.8c-1.3,1,0.8,3.5,1.4,1.5C860.6,283.7,861.9,281.3,860.6,281.8z"/>
	<path fill="#FFFFFF" d="M1163.2,328.6c-4.6-3.2-10.9-9.3-14.5-10.6C1155.3,322.2,1159.2,327.8,1163.2,328.6z"/>
	<path fill="#FFFFFF" d="M1056.3,228.7c-1.4,2.9,5.5,3.1,0.1,0.7C1056.5,229.1,1056.6,228.9,1056.3,228.7z"/>
	<path fill="#FFFFFF" d="M1070.4,237.8c-3.6-0.8-8.3-6.2-10.8-5.5C1063.5,233.8,1065.9,238,1070.4,237.8z"/>
	<path fill="#FFFFFF" d="M1080.4,244.5c-1.9-1.5-6-3.9-8.9-6.1C1072,241.7,1077.8,243.3,1080.4,244.5z"/>
	<path fill="#FFFFFF" d="M1048.9,226.2c1.5-0.8,3.3,2.9,4.9,2.1C1053.4,227.8,1048.9,224.2,1048.9,226.2z"/>
	<path fill="#FFFFFF" d="M1031.1,219.6c1.2-0.4,5.8,4,4.8,2.1C1034.4,221.3,1032.6,217.9,1031.1,219.6z"/>
	<path fill="#FFFFFF" d="M1187.4,344.2c5.2,3.8,8,5.8,12.6,9.8c-2.1-4.8-9.9-8.7-12-11.8c0.9,0.2,1.7,1.1,3.8,1
		c-9.4-10.4-20.6-18.9-31.9-27.2c-5.6-4.2-11.2-8.2-16.7-12.5c-5.6-4.1-11.1-8.3-16.2-12.9c-4.5-4.1-11.3-8.4-16.5-12.6
		c-5.5-4.4-12.2-8.4-18.9-12.7c-3.3-2.1-6.7-4.3-10-6.6c-3.3-2.2-6.5-4.6-9.5-7.2c3.9,2.4,8,4.8,12,7.4c3.9,2.7,7.9,5.5,12,8.3
		c8.1,5.7,16.3,11.6,25.1,17.3c4.2,2.7,8.2,7.1,14.2,9.6c1.5,0.7-0.9-1.6-2.3-2.3c-1.2-5-7.2-5.9-11.3-8.8c-1.6-1.2-2.6-3.3-4.3-4.3
		c-2.1-1.3-3.4-2.5-4.9-3.5c-8.9-6.2-17.4-12-25.6-17.4s-16.3-10.2-24.2-15.1c-7.9-4.8-15.7-9.6-23.5-14.4s-15.7-9.7-23.9-14.5
		c-4.3-2.6-9.2-4.8-12.8-8.8c-0.4,0.7-0.9,1.5-1.5,0.8c-5.9-4.4-12.4-6-16.7-10.1c11,4.9,20.8,10.7,31.3,14.7
		c-7.3-3.7-14.8-8.1-22.9-12.3c-0.3-0.3,0.1-0.6,0.5-0.9c-10.5-2.8-18.8-8.9-26.4-13.3c11.8,3.8,23.5,11.6,36.2,16.6l1.3,0.9
		c0.3-0.7-0.5-0.9-1-1.3c-2.6-2.6-6.1-1.9-6.4-4.8c5.3,3.9,10.1,4.3,14,8.4c-1.8-0.4-2-1.8-3.2-0.9c6.4,3.5,13.2,7.6,20.1,11.5
		c6.5,3.8,13,7.5,19.5,10c-2.2-1-4.9-2.9-6-4.3c15.2,7.8,26.9,15.8,41.4,24.5c1.3,0.8,9,5.4,2.9,0.8c-13.3-10.1-31-19.2-45.1-27.6
		c-8.7-5.3-16.5-9.6-23.6-13.4s-13.6-7.2-20-10.5c-6.4-3.2-12.6-6.4-19.1-9.7c-6.6-3.2-13.6-6.5-21.4-10.3
		c-9.2-4.4-19.5-9-28.8-12.4c-7.7-2.7-15.5-5.1-23.2-7.2c9.7-1.4,19.9-3.3,29-4.6c6.3-0.9,12.3-1.9,17.9-3c13.6-2.8,27-5.9,40.2-9.7
		c13.3-3.9,26.4-8.2,39.5-15.1c3.3-1.8,6.6-3.7,9.9-6.2c3.3-2.4,6.7-5.3,9.8-9.5c1.5-2.1,3-4.6,4.1-7.5c1.2-2.9,1.6-6.3,1.5-9.5
		c-0.2-3.2-0.9-6.4-2.1-9c-0.5-1.3-1.2-2.6-1.9-3.6l-1-1.6l-0.1-0.1l-0.5-0.8v-0.1l-0.1-0.1l-0.2-0.2l-0.4-0.5l-1.6-1.9
		c-0.6-0.7-1.7-1.8-2.6-2.6c-0.9-0.8-1.9-1.9-2.7-2.5l-2.5-1.9c-1.6-1.3-3.3-2.2-5-3.3s-3.4-1.9-5.1-2.7c-6.9-3.3-13.8-5.8-20.7-7.6
		C997,47,983.3,47.1,970,46c-15.5-1.3-28.5-1.7-40.6-1.4c-12.2,0.4-23.5,1.7-35.4,4.9c-17.1,0.9-34.6,5.4-51,11.5
		c-16.5,6.1-31.9,13.9-46,20.8c-8.9,4.2-20.5,6.6-25.7,15.2c19.3-8.5,38.9-15.6,59.2-20.8c13.4-3.6,27.3-5.4,41.4-6.8
		c-0.5,0.7-0.9,1.3-1.4,1.9c-4,4.9-8.7,10.5-11.7,15.4c-2.1,3.3-3.6,7.3-5.1,11.2c-1.3,4-2.6,8.1-3.9,12c-4.3,12.9-8.6,25.8-12.2,39
		c-3.5,13.2-6.3,26.7-7.8,40.2c-0.3,2.6-0.3,5.2-0.3,7.8c0.1,2.6,0.2,5.2-0.2,7.7c-1.1,9.8-1.3,19-1.1,28.2
		c0.3,8.3,0.9,16.6,1.8,24.9c0.3,4.8,1.2,9.2,2.2,13.4c0.5,2.1,1,4.2,1.5,6.3c0.6,2,1.3,4.1,2,6c1.2-1-1.1-3.7,0.1-4.7
		c1,5.3,2,10.4,3.3,15.4c1.5,4.9,2.9,9.7,4.2,14.3c1.2,3.5,1.9,7,2.7,10.4s1.6,6.7,3.6,9.5c1.1,1.7,3.5,2.5,5,4.2
		c2.2,2.4,3.3,5.6,4.6,8.6c1.4,3,2.6,5.9,4.7,7.8c0.9-1-1.6-2.8-0.6-3.8c2.6,3.2,4.7,7.2,7.5,10c1.5-1.4-0.6-3.4,1.3-4.7
		c0.5,0.4,0.3,2,1.2,1.4c-1-3.3-2.4-6.9-3.7-10.3c-1.3-3.3-2.4-6.5-2.6-8.9c-0.8-1.6-2-4.1-3.2-6.7c-1.2-2.7-2.4-5.8-2.7-8.8
		c1.3,2.3,2.5,4.5,3.5,6.7s1.8,4.4,2.5,6.5c0.8,2.1,1.4,4.2,2.2,6c0.9,1.9,2,3.5,3.2,5c-0.5-2.2-1.2-4.3-1.9-6.2
		c-0.6-2-1.2-3.8-1.8-5.6c-1.2-3.7-2-7.2-2-11.1c2.4,7.4,5.6,15.9,8.1,22.2l2.1,4.6c-0.9-3.2-2-6.3-3.3-9.5s-2.2-6.4-3.5-9.6
		c-1.2-3.2-2.5-6.3-3.6-9.4c-1-3.1-2-6.2-2.9-9.2c-0.1-0.2-0.1-0.4,0.4-0.5l0.1,0.3c0.1,0.2,0.5,0.3,0.5-0.2c-0.4-0.4-1-0.6-1.4-1
		c0.1-4.1-0.8-8.8-2.2-13.5c-1.5-4.7-2.6-9.6-2.7-14l2.5-0.5c0-1.9,0.3-5.4-1-2.6c-2.1-4.7,0-7.9-1-11c-0.2-0.2-0.2-0.5-0.3-0.9
		c0.2,0.3,0.2,0.5,0.3,0.9c0.1,0.1,0.2,0.1,0.3,0.1c-0.3-1.5-0.5-3.1-0.8-4.8c-0.2-1.6-0.4-3.3-0.6-5c-0.4-3.4-1.1-7-1.3-10.6
		c-0.2-2.7-0.3-5.4-0.2-8.2c0.2-2.7,0.6-5.4,0.9-8.1c0.2-1.3,0.3-2.7,0.5-4s0.4-2.6,0.7-3.9c0.4-2.6,0.7-5.2,0.8-7.7
		c0.2-2.4,0.4-5.3,0.6-8.2c0.2-3,0.7-5.9,1.2-8.7c0.3-2.6,0.8-5.3,1.3-8c4.4,0.5,8.7,1,13.6,0.8c-1.7-1.4-5.6,0.5-5.5-2.1
		c2.2,0.3,4.4,0.3,6.6,1l-1.3,2.2c1.8,0.3,5.4-0.5,5.5,2.1c2.5-2.7,3.1,1.2,4.9-0.6c0.7,0.3,0.3,1,0.5,1.5c3.6-4.4,7.1-0.7,10.6-0.2
		c-1.2,1-1.6,2-0.9,3c1.5-1.5,2.8-3.5,6.3-2.1c-0.9,0.6-1.5,2.1-0.4,1.5c0-0.2,2.7-0.3,3.7-0.8c2.2,0.6,4.7,3.5,7.3,0.9
		c-2.6-1.8-3.5-0.4-6.4-1.5c-1-1.4,0.9-2-0.4-3.2c-1,1.3-0.2,1.7-1.3,2.2c-3-1.2-4.4-1.1-4.6-3.9c1.3,0.4,1.2-0.5,1.8-0.7
		c-0.3,1.5,1.1,2.2,1.6,3.3c2-2.4,3.8-2.4,4.7-0.2c1.4-2.4,5-0.1,5.5-0.8c-0.3,0.5-0.8,0.1-1.2,0.4c1.6,2.4,3.8,2.8,7.1,2.6
		c1.2-1.9-2-0.5-1.2-2.5c7.4-0.9,11.4,1.8,16.1,4.6c-1.7,0.7-3.5-1.2-4.3,0.3c2.2,1.4,4.2,0.1,6.2-0.3c-0.1,1.1,2.2,0.3,0.5,1.5
		c5.8,0.5,8.6,2.5,15.9,5c0.3,1.4-1.7,1.5-0.7,2.6c0.4-0.5,0.7-0.9,1.2-0.4c1.4,0.3-0.8-0.7,0.5-1.5c8,4.2,22.2,8.4,31.3,16.3
		c2.9,0.2,5.9,0.6,7.5,3c-0.5,2-3-1.5-2.4,0.8c0.8-0.9,1.8,0.9,2.6,1.1c1.1-0.8,0.6-2.5,1.4-2.1c3.8,1.3,8.6,4.2,10.9,6.5
		c-0.4-0.2-0.9-0.4-1.2,0.4c7.5,0.3,13.8,5.2,19.5,9.2c4.4,1.2,7.3,3.2,9.4,5.8c7.3,3.3,16,8.2,25.3,13.8
		c9.3,5.6,19.2,11.8,28.6,18.4c-0.4,0.5-1.1,0.5-0.3,1c2.1-0.7,2.9,2.2,3.1,0.4c4.4,4.6,10.9,4.7,13.5,11.1c0.8-1.7,1.7,0.6,2.5-0.1
		c12.7,8.7,25.7,17.9,34.9,23.5c-0.8-0.5-1.6-1.1-1-2c0.7,0.9,1.2-2.1,1.9-1.2c0.1,1.3,1.3,2.2-0.5,4.1l6.6,5.1
		c0.5,0,0.9-1.4,2.2-0.9c12.7,9.7,22.3,17.8,37.6,28.6C1187.2,344.7,1187.2,344.5,1187.4,344.2z M1035,216.1c3.6,3-3.2-1.7-5.2-2.3
		C1031.9,213,1034.3,215.5,1035,216.1z M1022.7,209.2c-2.9-0.6-9-2.8-10-5.9C1016.1,206,1019.3,206.8,1022.7,209.2z M834.3,272.6
		c1.4,0.9,0.7,3.8,1.3,5.5C834.2,277.2,834.8,274.2,834.3,272.6z M1029.3,90.3L1029.3,90.3l-0.1-0.2
		C1029.3,90.2,1029.4,90.4,1029.3,90.3z M863.2,181.4c0.6,0,1.2,0.1,1.9,0.5c-0.5,0.7-0.2,1,0.2,1.3c-0.4,0.5-0.9,0.1-0.7-0.4
		c-0.6,0.1-1.2,0.6-1.7,1.4c0-0.2-0.1-0.4-0.1-0.5C863,182.9,863.1,182.1,863.2,181.4z M862.4,186.6c0.1-0.3,0.1-0.6,0.2-0.9
		c1.6,0.1,3.3,0.1,4.6-0.3c-0.2,1.8,1.9,0.2,2.1,1.8C866.6,187.1,864.6,186.8,862.4,186.6z M877,187.7c1.1-1.4,2.6,0.8,3.8,0.5
		C879.8,189.7,877.4,188.7,877,187.7z M878,186c-1.3-1.9-1.7-0.7-3.2-0.7c-0.3-0.3,0.3-1-0.2-1.3c-1.4,1.4-1.6-1.6-3,1.2
		c-1-1.5-0.7-1.5-2.7-1.6c2.5-4.2,7.3,2.6,11.1-0.5c-0.9,1,0.2,1.3-0.4,2.1c1.2,0.5,2.2-0.5,3.4-0.3c-0.3,0.3-0.1,0.5,0.1,0.7
		l-0.5,0.9C880.6,187,879.7,184.1,878,186z M882.2,189c1.6-1,3.6,0.3,5.3,0.2C887.2,191.2,883.8,189.7,882.2,189z M897.9,190.1
		c-1.7-1.8-3.8-0.5-5.6-2.8c1.8,2.3-2,0.5-2.2-0.1c0.8-0.1,1.8-1.4,1.9-0.1c-0.2-1.3,1.4-2.2,2.9-3c-0.6,0.5-0.7,1.4-1,2.3
		c1,0.1,2.2,0.8,3.1-0.5l1.7,1C898.2,188,898.7,188.8,897.9,190.1z M877.4,130.4c2.6-6.3,5.8-12.2,8.1-18.2
		c3-7.5,7.6-14.5,11.8-21.7c4.3-7.2,8.1-14.7,10.5-24.2c0-0.1,0-0.1-0.1-0.2c21.2-1.3,42.7-1.2,64,2.1c13.4,2.2,27,5.1,39,9.9
		c5.9,2.4,11.5,5.3,15.2,8.3c0.2,0.2,0.4,0.4,0.7,0.5c0.1,0.1,0.2,0.2,0.4,0.2c0.2,0.2,0.5,0.7,0.8,1l0.9,1.1l0.1,0.1
		c0,0,0-0.1,0.1-0.1c0.2-0.2,0.3-0.3,0.3-0.4c0.1-0.1,0.2-0.2,0.2-0.3c0,0-0.1-0.2,0.6,0.2c0.4,0.2,0.8,0.3,1.2,0.4
		c0.4,0.1,0.4,0.2,0.7,0.2l0.3,0.1l0,0l0,0l0,0c0,0,0,0-0.1,0c-0.5,0-0.7,0.1-1.9,0.3c-0.5,0.2-0.7,0.2-0.8,0.3l-0.1-0.1
		c-0.1,0-0.1-0.1-0.1-0.1c0-0.1-0.1-0.2-0.2-0.3l0.1,0.2l0.2,0.2c-0.2-0.2-0.4-0.5-0.5-0.7c0,0.1,0.1,0.2,0.2,0.3l-0.2-0.3
		c-0.2,0.2-0.2,0.3-0.5,0.5c-0.8,0.9-2.2,1.9-3.7,3c-3.2,2.1-7.4,4.3-12.1,6.3c-9.3,3.9-20.2,7.3-31.3,10.2
		c-22.3,5.8-45.5,10.1-65,13.8C902.6,125.9,888.6,127.4,877.4,130.4z M978.3,192.1l2.4,1.5c0.9,0.1,1.9,0.6,3.6,1.8
		C983.1,196.3,978.4,192.9,978.3,192.1z M1144.3,313.9c-1.5-1.3-1.2-1.2-2.2-2.4C1142.7,311.2,1145.7,312.8,1144.3,313.9z"/>
	<path fill="#FFFFFF" d="M1187.9,345.3c-0.2-0.1-0.3-0.2-0.5-0.4C1187.6,345,1187.8,345.1,1187.9,345.3z"/>
	<path fill="#FFFFFF" d="M1187.9,345.3c0.3,0.2,0.6,0.4,0.9,0.7C1188.7,345.7,1188.3,345.5,1187.9,345.3z"/>
	<path fill="#FFFFFF" d="M1086.3,247.9C1082.2,244.4,1082.3,247,1086.3,247.9L1086.3,247.9z"/>
	<path fill="#FFFFFF" d="M895.3,192.1c-1.4-0.2-2.8-0.8-4.7-0.4c0.8,1.2,3.6,0.4,1.8,1.6c1,1.2,1.4-2,2.5-0.3
		c-0.3,0.4-0.6,0.3-0.9,0.7C894.4,194.9,896,192.3,895.3,192.1z"/>
	<path fill="#FFFFFF" d="M587.8,262.6c-1.5,0.7-0.7,4.6,0.7,2.4C587,264.9,589.3,262.6,587.8,262.6z"/>
	<path fill="#FFFFFF" d="M718.2,70.2c1,0.2,0.9,0.4,1.4,0.6c-0.7-0.6,1.4-1.1-1.2-1.4C720.2,70,718.5,70.1,718.2,70.2z"/>
	<path fill="#FFFFFF" d="M721.6,81.9c-0.6-0.4-3.2-1.3-3.4-1C719.3,81.2,721.8,82.5,721.6,81.9z"/>
	<path fill="#FFFFFF" d="M719.1,72.6c1.2,0.4,0.3,0.8,1.3,1.2c0.1-0.2,0.9,0.1,1,0.1l-1-0.3C721.4,73.6,720.4,72.6,719.1,72.6z"/>
	<path fill="#FFFFFF" d="M720.5,95.5c0.6,0.8-0.9,1,0.5,2.1C720.7,96.5,722.7,97,720.5,95.5z"/>
	<path fill="#FFFFFF" d="M741.7,125.4c1,1.2-1.6,1.3-0.7,2.6C741.3,127.9,743.3,125.9,741.7,125.4z"/>
	<path fill="#FFFFFF" d="M725.3,99.5l-0.4,0.7c0.8,0.4,1.4,0.8,1.7,1.2C725.6,100.3,727.4,100.8,725.3,99.5z"/>
	<path fill="#FFFFFF" d="M726.5,80.1c-0.7-0.4-2-0.7-2.5-0.7c1,0.3,0.5,0.5,1.9,0.9C725.9,80.2,726.2,80.2,726.5,80.1z"/>
	<path fill="#FFFFFF" d="M742.3,118.4c-0.1-0.9,2.2-1.2,0.4-2.5C743.4,116.8,740.9,118.5,742.3,118.4z"/>
	<path fill="#FFFFFF" d="M724.5,77.9c0.7,0.2,1,0.4,1.4,0.5c1.9,0.2-2.1-1.8,0.4-1.5C722.1,75.4,726.7,78.3,724.5,77.9z"/>
	<path fill="#FFFFFF" d="M726.3,79.1c-0.4,0.1-1.6-0.5-2.1-0.2c1.2,0.4,1.4,0.7,2.4,1C726.4,79.6,727.4,79.4,726.3,79.1z"/>
	<path fill="#FFFFFF" d="M722.1,71.5c-1-0.2-0.5-0.5-1.9-0.7c0.3,0.4,0.5,0.5-0.7,0.4c1.8,0.5,1.6,1.4,1.2,1.5
		C723.8,73.4,720.4,71.8,722.1,71.5z"/>
	<path fill="#FFFFFF" d="M723,88c-1.2-0.5-1.5-1-2.1-1.4c1,1,0.8,1.6,1.7,2.4C723.8,89.2,722.3,88.3,723,88z"/>
	<path fill="#FFFFFF" d="M717.7,65.5c0-0.1-0.4-0.2-0.5-0.1c1,0.2,1.3,0.5,1.9,0.7c-0.3-0.4,0.5-0.3,1.1-0.4
		c-1.6-0.4-1.6-0.7-1.9-1.3C715.5,64.1,718.2,65.2,717.7,65.5z"/>
	<path fill="#FFFFFF" d="M716.5,66.3c-0.4-0.4-0.5-0.5,0.6-0.4c-0.7-0.2-0.8-0.3-1.4-0.5C716.5,65.8,714.6,65.8,716.5,66.3z"/>
	<path fill="#FFFFFF" d="M710.6,58c-0.5-0.1-0.6-0.2-1-0.2c-0.8,0.2,2.1,0.5,2,0.3c-0.4-0.4-0.6-0.8-1.9-1.4c-0.6,0.3,1.4,1-0.5,0.5
		C708.6,57.6,711.6,57.7,710.6,58z"/>
	<path fill="#FFFFFF" d="M685.9,146.4c-2.6,1.6-5.6,0.4-6.4,2.6C681.5,148.1,685,147.9,685.9,146.4z"/>
	<path fill="#FFFFFF" d="M720.5,66.9c-0.5-0.2-2.2-0.9-3-0.7c1.6,0.5,1,0.9,2.8,1.6C720.8,67.5,719.6,67,720.5,66.9z"/>
	<path fill="#FFFFFF" d="M721.3,70.4c-1.5-0.4-0.9,0.1-1.1,0.2l1.5,0.3C721.8,70.8,721.2,70.6,721.3,70.4z"/>
	<path fill="#FFFFFF" d="M721,69.4c1,0.1-1.2-1.2-1.9-1.1C720,68.7,719.4,69.1,721,69.4z"/>
	<path fill="#FFFFFF" d="M722.8,87.4c0.5,0.1,0.5-0.7-0.6-1.2C721.9,86.5,722.1,86.9,722.8,87.4z"/>
	<path fill="#FFFFFF" d="M719.5,68.9c-0.9-0.2-1.2-0.2-1,0.1c2,0.3,1.1,0.6,2.4,0.9c1.4,0-1.2-0.7-1.9-1
		C719.3,69,719.6,69,719.5,68.9z"/>
	<path fill="#FFFFFF" d="M818.6,166.2l-0.5-1.8c-0.2-0.4-0.3-0.7-0.4-1l-0.8-1.9l-0.4-0.9l-0.2-0.3l-0.3-0.6l-0.6-1.2
		c-3-6.4-7.7-12.5-13.3-17.5s-12.3-8.9-19.1-11c-6.7-2.2-13.5-3.1-19.8-3.3c-6.9-0.1-13.3,0.6-19.3,1.6c1.1-2,2.1-4.1,3-5.9
		c4.4-8.7,6.2-15.5,7.4-21.8c1-6.3,1.5-12.3,1.4-19.6c0-4.3-0.7-9-2-13c-2.2-6.7-6.5-13-11.1-18.4c-3-3.4-7.8-6.6-14.4-8.2
		c-0.2,0.1-0.4,0.1-0.5,0.1c1.8-1.6,2.5-2.8,4.1-4.2c-2.2-0.7-3.7-1.4-4.8-2.3c-1.2-0.9-2.2-1.8-3.5-2.6c3.3-0.5,0.8-2.7-1-3.9
		c0.5-0.7,2.2,0.4,2.5-0.5c-3.6-1.8-4.4-4.2-8.2-5.5c1.1-0.2,2.5,0,3.2-0.7c-7.2,0.1-12.2-3.4-19.2-4.5c-1.5-0.2-3-0.3-4.4-0.3
		c-1.4,0.1-2.7,0.3-4,0.5c-2.6,0.4-4.8,1.2-7,1.8c-9.3,2.4-19.7,6.8-26.8,11.8c-1.2,0.9-2.4,1.8-3.5,2.8c-1.4,1.2-2.7,2.4-4.1,3.6
		c-1.4,1.8-2.9,3.6-4.2,5.4l-2.1,2.8l-2.2,3.1c-1.6,2.2-3.2,4.4-4.7,6.6c-1.3,1.8-2.6,3.5-3.8,5.3c-1.1,1.8-2.2,3.5-3.3,5.3
		s-2.2,3.5-3.3,5.2l-1.7,2.6l-1.5,2.7c-2.1,3.5-4.2,7.1-6.3,10.6c-2,3.6-3.8,7.2-5.8,10.9l-2.9,5.4l-2.6,5.6
		c-1.8,3.7-3.6,7.4-5.3,11.1c-1.6,3.8-3.2,7.6-4.8,11.3l-2.4,5.6l-2.1,5.8c-1,3-1.9,6-2.7,8.9c-0.4,1.5-0.8,3-1.3,4.4
		c-0.4,1.5-0.8,3-1.4,4.4c-2,5.6-4,11-5.8,16.4c-1.6,5.4-3.2,10.7-4.8,16.2c-1.6,4.8-2.5,9.8-3.7,14.6c-1.2,4.9-2.6,9.8-3.6,14.7
		c-1.7,8-3.1,15.3-3.8,22.5c-8.1-1-15.9-2.6-23.2-4.9c-4.6-1.5-8.9-4.2-13.3-6.5c-4.4-2.2-8.7-4.3-13.6-4.4
		c14.5,11.4,31.7,19.2,49.5,24.6c0,0.2-0.1,0.4-0.1,0.6c0.2-0.1,0.4-0.3,0.5-0.5c0.2,0.1,0.4,0.1,0.6,0.2c-0.8,4.7-1.6,9.4-2.3,14
		c-0.6,6.3-1.3,12.3-1.8,18.1c-1.2,8.9-3.4,17.1-2.7,25.3c0.2,2.4,2,4.4,2.6,7.1c0.8,3.8,0.7,7.9,0.6,11.9s-0.2,7.9,0.8,11.2
		c1.3-0.7-0.2-3.9,1.2-4.6c0.9,4.9,1,10.5,2.2,15.1c2-0.7,0.9-4.1,3.2-4.6c0.3,0.7-0.7,2.4,0.4,2.2c1.2-8.5,1.3-19.1,2.6-24.9
		c-0.1-4.6-0.2-13.4,1.4-20.7c0.8,6.6,0.2,12.6-0.4,18.1c-0.4,5.5-0.7,10.7,0.3,15.3c1-5.5,1.2-10.6,1.7-15.4
		c0.7-4.8,1.4-9.2,3.2-13.7c-0.6,4.8-1.1,10.1-1.5,15.2c-0.2,5.1-0.4,10.1-0.8,14.3l-0.1,6.3c0.5-4.1,1-8.2,1.3-12.4
		c0.3-4.2,0.4-8.6,0.9-12.8c0.8-8.5,1.1-17,2-24.7c0.1-0.3,0.2-0.5,0.5-0.4l-0.1,0.4c-0.1,0.2,0.3,0.5,0.5,0.1
		c-0.2-0.7-0.6-1.2-0.8-1.9c2.1-4.7,3-10.7,3.7-16.9c0.2-1.5,0.3-3.1,0.5-4.7c0.3-1.5,0.5-3.1,0.8-4.6c0.4-2.5,1-4.8,1.6-7
		c14.4,3.4,29.2,6.2,44.6,6.9c28.4,1.1,57.1-2.8,86.1-9.3c14.1-3.2,28.5-7.7,42.5-13.8c14-6.2,28-13.8,40.7-25.2
		c4.1-3.8,8.4-8.3,12.1-14.1c3.7-5.8,7.1-13.1,7.8-21.6c0.4-4.2,0.1-8.6-0.8-12.7C819.3,168.5,819,167.4,818.6,166.2z M566.7,245.3
		c-0.2,0-0.4-0.1-0.6-0.1c0.3-1.4,0.8-2.8,0.9-4C567.5,242.2,567.1,243.8,566.7,245.3z M746.7,119.1c-1.5,1.6,0.6-1.6,0.5-2.7
		C748.4,117.8,747,118.8,746.7,119.1z M749.1,113.1c-0.3-1.6-0.4-4.8,2-4.9C749.9,109.7,750.3,111.5,749.1,113.1z M748.6,90.9
		l-0.4,1c0.3,0.5,0.2,0.9-0.1,1.7C746.7,92.9,747.9,90.8,748.6,90.9z M743.2,108c0.8-2,1.3-4.2,3.4-5.6c-0.7-0.3-1.6-0.7-1.3-0.9
		c1.8-2.6,0.7-5.8,2.6-7.6c0,5.3-1.6,9.8-1.8,15c0.9-3.5,2.1-7.1,2.9-10.9c0.2-0.2,0.5,0.1,0.9,0.4c-1.4-5.3,0.4-8.9,1.2-12.5
		c1.3,5.5-0.5,11.1-0.6,17.4l-0.3,0.7c0.7,0.3,0.6-0.2,0.8-0.4c1.4-1.2-0.5-3.2,1.9-3c-1.6,2.4-0.1,5.2-2.6,6.7
		c-0.2-0.9,0.9-0.9-0.3-1.7c-1.8,6.3-6.1,12.8-7.3,20c0.3-1.3,1.2-2.9,2.2-3.2c-0.9,2.3-1.9,4.3-3,6.3c-0.7,0.1-1.3,0.3-2,0.4
		c-0.3-0.1-0.4,0-0.5,0.1c-3.5,0.8-6.9,1.6-10.1,2.5c-0.1,0-0.1,0.1-0.2,0.1c0.7-0.8,1.3-1.7,1.9-2.5
		C736.1,122.4,739.9,115.4,743.2,108z M713.3,56.4c0.4,0.2,2,0.4,1,0.5c1.2-0.2,3,0.4,4.5,0.8c-0.9-0.3-1.9-0.2-3-0.3
		c0.4,0.3,0.4,0.7,1.9,0.9l-0.1,0.5c-1.1-0.1-1.5,0.2-3.1-0.1c0.8-0.6-1.4-1.2-0.3-1.8C713.2,57.7,712.8,56.5,713.3,56.4z
		 M712.1,53.4c-1.4-0.2-1,0.1-2,0.1c0.1,0.4,1.5,0.5,2,0.9c-0.4-0.1-0.5,0-0.5,0.1l-1-0.1c-1.5-0.5,0.5-1-1.9-1.3
		c1-0.5-0.2-0.5-0.9-0.9c0.1-0.1,1,0,1-0.2c-1.9-0.3,0.7-0.5-2.5-0.7c0.7-0.3,0.8-0.2-0.1-0.7C711,50.8,707.5,52.6,712.1,53.4z
		 M710.3,55.8c-1.8,0-2.1-1-2.4-1.5C709.6,54.7,709.4,55.3,710.3,55.8z M706.5,52.8c1.7,0.2,0.6,0.7,1.4,1
		C706.1,53.7,705.8,53,706.5,52.8z M703.4,48.8c0.3-0.1,0.6-0.2,0.9-0.3c0.6,0.3,1.4,0.5,1.4,0.9c-0.9-0.1-1,0.1-1,0.2
		c-0.7-0.1-0.5-0.2,0-0.2c-0.3-0.2-1.1-0.2-2-0.3C703.3,49.1,703.5,49,703.4,48.8z M701.6,49.4c0.6,0.3,1.3,0.5,2,0.8
		c-1.6,0.1,0.8,0.5-0.5,0.7c-0.8-0.4-1.5-0.8-2.1-1.2C701.2,49.6,701.4,49.5,701.6,49.4z M791,183.2c-1.2,3.5-3.7,7.3-7.2,10.9
		c-3.4,3.7-7.7,7.1-12.3,10.3c-9.3,6.4-20.1,11.8-31.4,16.6c-10.5,4.3-21.2,10.3-33,13.5c-13.7,3.7-25.4,5.5-36.5,7
		c-11.1,1.6-21.4,3-32.7,5.3c-15.1-0.7-30.8-0.1-46.6-0.2c0.8-1.9,1.6-3.7,1.8-5.6c-0.1-0.3,0.1-0.8,0.1-1.1c0,0.4-0.1,0.8-0.1,1.1
		c0.1,0.1,0.1,0.2,0.3,0.3c0.9-3.9,1.7-8.2,2.5-12.6s2-8.8,3-13.5c0.8-3.5,1.8-6.9,2.9-10.2c1.3-3.3,2.6-6.5,4-9.8
		c1.3-3.2,2.7-6.4,4-9.6c1.4-3.1,2.7-6.2,3.7-9.3c1.1-3,2-6.6,3.5-10.1c1.4-3.5,2.8-7.2,4.2-10.4c1.6-4.1,3.5-8.1,5.2-12.2
		c0.9-2.1,1.7-4.2,2.6-6.2c0.8-2.1,1.9-4,2.9-6c6.1-13.5,14.9-28.1,21.7-39.7c1.5-2.5,3.1-5.1,4.8-7.5c1.8-2.2,3.5-4.4,5.3-6.6
		c1.5-2.2,4.1-4.5,6.1-6.7c1-1.2,2.1-2.2,3.1-3.4l0.7-0.9l0.2-0.2c-0.8,0.6-0.2,0.2-0.4,0.3l0.1-0.1l0.1-0.1l0.3-0.3l1.3-1.4
		c0.7-0.8,1.4-1.6,2.2-2.4l2.5-2.1c1.6-1.5,3.6-2.6,5.5-3.9c3.9-2.2,8.2-4.3,12.8-5.8c0.8-0.3,1.6-0.5,2.4-0.8
		c1.4,0.8,2.9,1.7,5.2,2.7c0.3-0.5-3.3-1.4-0.9-1.5c0.8,0.5,2,1.1,2.4,1.8l-2.5-0.2c0.7,0.4,3.1,1.4,0.9,1.5c3.6,0.5,0.4,0.9,3,1.3
		c0.1,0.2-0.7,0.1-1,0.2c5.6,0.8,4.1,2,5.3,3c-1.5-0.3-2.5-0.4-3.1-0.2c2,0.4,4.3,0.7,4.9,1.9c-1-0.3-2.6-0.4-1.5-0.1
		c0.1,0,1.5,0.8,2.4,1.2c0.5,0.7-0.8,1.5,2.7,2.4c0.3-0.9-1.3-1.2-1.7-2.1c0.8-0.4,2.1,0.2,2.6-0.2c-1.6-0.3-1.6,0-2.5-0.4
		c-0.4-1-1.1-1.4,1.2-1.5c0.2,0.4,1,0.3,1.5,0.5c-1.4-0.1-1.4,0.4-2.1,0.6c3.1,0.5,3.9,1.2,2.4,1.5c2.7,0.4,2.4,1.6,3.3,1.8
		c-0.7-0.1-0.4-0.3-1-0.4c-1.3,0.6-0.5,1.3,1.1,2.5c2.2,0.4-0.5-0.7,1.6-0.4c4.3,2.6,3.7,4.2,3.5,5.9c-1.4-0.7-0.5-1.3-2.2-1.6
		c-0.2,0.8,1.9,1.6,3.1,2.4c-1-0.1,0.7,0.9-1.1,0.2c2.1,2.2,1.7,3.3,2.6,6.1c-1,0-2-0.8-2.5-0.5c0.6,0.2,1.2,0.4,0.9,0.5
		c0.4,0.6,0.3-0.3,1.5,0.3c-0.2,1.5,0.3,3.7,0.5,6c0.1,2.2-0.1,4.7-1.8,6.2c0.9,1.3,1.7,2.8,0.3,3.1c-1.9-0.6,0.2-1.2-1.6-1.4
		c1,0.5-0.1,0.7,0.1,1.1c1,0.7,2.4,0.8,2.3,1.1c0.3,1.7-0.5,3.5-1.6,4.3c0.1-0.2,0-0.4-0.8-0.7c2.2,3.8,0.1,6.1-1.3,8.2
		c0.3,2.2-0.4,3.2-1.9,3.7c-1.2,6.4-7,14-13.7,20c-0.4-0.5-0.4-1-0.8-0.7c0.7,1.7-1.2,0.7,0.1,1.9c-2.6,0.5-2.2,4.8-6.2,3.1
		c1.1,1.5-0.3,0.8,0.2,1.7c-1.2,0.9-2.5,1.8-3.7,2.6c-1.2,0.8-2.6,1.5-3.8,2.2c-2.5,1.5-4.7,2.7-6.5,4.1c0.3-0.2,0.7-0.4,1.1,0.7
		c-0.1-0.1-0.1,0.1-0.1,0.3c-0.3,0.2-0.5,0.3-0.8,0.4c-0.2-0.3-0.4-0.9-0.7-1.6l-3,1.2c-0.1,0.4,0.6,1.6,0.3,2
		c-6.1,2.2-11,3.1-18.1,5.4c0.3,0.2,0.8-0.8,1,0.3c-2.4,0.7-3.7,0.9-6,1.1c2.1,2.1,5.1-0.1,6.7,0.8c-0.2,0.4-0.7,0.3-1.1,1.8
		c1.4,0.3,2.9,0.5,4.3,0.5s2.9-0.2,4.3-0.4c1.1-0.2,2.1-0.4,3.2-0.7c1.6,0.2,3.5,0.3,5.8,0.1c1.1-0.1,2.2-0.2,3.5-0.4
		c-0.2,0.2-0.4,0.3-0.5,0.7c1.2-0.1,1.4-0.5,1.4-0.8c3.9-0.6,8.4-1.5,13.2-2.8c12.1-3.2,27.7-6.5,40.3-6.1c5.5,0.1,10.6,0.7,15,1.5
		c5.4,1,10.4,2.6,14.6,4.7c4.2,2.2,7.6,4.9,10.5,8.2c2.9,3.3,5.1,7.3,6.9,12c0.2,0.9,0.6,2.6,0.6,4.2
		C791.8,179.9,791.5,181.5,791,183.2z M725.9,131.9c-0.3,0.4-0.6,0.7-0.9,1.1c-0.5,0.2-1,0.3-1.5,0.4
		C724.4,132.8,725.1,132.3,725.9,131.9z M688.3,146.1c0.8-0.2,0.7-0.1,1.3,0C689.8,146.7,688.7,147.7,688.3,146.1z"/>
</g>
</svg>
