<?xml version="1.0" encoding="utf-8"?>
<!-- Generator: Adobe Illustrator 19.2.1, SVG Export Plug-In . SVG Version: 6.00 Build 0)  -->
<svg version="1.1" id="Layer_1" xmlns="http://www.w3.org/2000/svg" xmlns:xlink="http://www.w3.org/1999/xlink" x="0px" y="0px"
	 viewBox="0 0 1024 357.2" enable-background="new 0 0 1024 357.2" xml:space="preserve">
<g>
	<path fill="#FFFFFF" d="M245.2,255.8c2.8-5.4,5.2-11.1,6.7-17c6.1-24.2,13.7-47.8,24-70.5c3.2-7.1,9.7-13.3,7.6-22.3
		c-0.1-0.6,0.6-1.5,1-2.2c1-2.1,1.9-4.2,2.9-6.3c9.7-19.7,20.1-39.1,29-59.1c10.8-24.3,17.4-49.8,19.7-76.4c0-0.6,0-1.2,0-1.7
		c-0.3-0.1-0.5-0.1-0.8-0.2c-7.3,14.6-14.6,29.3-21.9,43.9c-0.3-0.2-0.7-0.3-1-0.5c1.2-3.6,2.5-7.2,3.7-10.8
		c-4.8,7.5-9.1,15-13.4,22.6c-6.5,11.3-13.3,22.5-19.4,34c-16.9,31.6-33.6,63.3-50.1,95.1c-3.8,7.3-6.7,15.2-9.8,22.4
		c0-7.1-0.2-14.3,0-21.6c0.7-27.6,9.5-67.5,9.8-95.2c0.1-11.2,0.1-22.7-6.5-32.8c-0.6-0.9-0.4-2.5-0.3-3.8
		c0.7-10.8-4.8-17.8-15.6-19.9c-4.3-0.8-8.6-2-12.9-3.2c-2.1-0.6-3.9-2.6-6-2.7c-13.1-1-24.5,2.8-31.3,14.8
		c-4.5,8-8.2,16.7-11.1,25.4c-3.3,10-5.1,20.4-7.9,30.6c-6.5,23.5-28,55.3-41.1,75.3c-1.5,2.3-3,4.1-0.9,6.9c0.5,0.7,0,2.5-0.6,3.5
		c-1.3,2.3-2.8,4.5-4.4,6.5c-11.4,14.2-23.3,28.1-34.3,42.5C37.7,262.9,18.2,295,0.8,328.2c-0.3,0.7-0.6,1.4-0.8,2
		c0.4,0.3,0.8,0.7,1.2,1c13.8-13.2,27.6-26.3,41.4-39.5c0.2,0.2,0.5,0.5,0.7,0.7c-2.8,3.8-5.6,7.6-8.5,11.5
		c7.4-6,14.3-12.2,21.1-18.5c12.6-11.6,25.5-22.9,37.7-35c15.3-15.3,30.2-31,44.9-46.9c10.3-11.2,20.2-22.9,29.9-34.7
		c7.5-9.2,14.2-19,21.7-29.1c-0.5,1.8-1,2.8-1,3.9c-0.2,18.3-0.5,36.6-0.3,54.9c0.1,8.6,2.3,17.2,1.9,25.7c-0.3,6,0,11.4,2.1,16.9
		c0.8,2.1,0.8,4.5,1.3,6.8c1.7,8.9,3.6,17.6,9.5,25.2c3.1,4.1,5.8,4.4,10.5,4.8C231,279.4,238.7,268.4,245.2,255.8z"/>
	<path fill="#FFFFFF" d="M1024,333.4c-1.8-6.7-3.4-13.3-6.7-19c-14.3-25-29.2-49.6-47.4-72.1c-1-1.2-1.6-2.8-2.2-4.2
		c-0.6-1.4-0.6-3.5-1.7-4.4c-8.3-7.4-16.6-15-25.3-21.9c-17.3-13.7-34.3-27.9-52.7-40.1c-16-10.6-33.7-18.8-50.6-28.1
		c-1.6-0.9-3.2-1.7-5-2.7c18.8-4.8,36.8-9.5,54.8-14c19.5-4.9,37.6-12.8,52.8-26.2c18.6-16.5,18.3-38.5-0.3-54.9
		c-8.3-7.3-18.4-12.4-29-13.8c-20.1-2.6-40.4-4.4-60.6-4.6c-11.8-0.1-23.5,4.1-35.4,5.3c-18,1.9-34.2,8.2-49.7,17.1
		c-11.6,6.6-23.1,13.2-34.5,20.1c-3.4,2.1-6.3,5.1-9.4,7.7c0.3,0.4,0.6,0.8,0.9,1.2c16.2-8.4,32.5-16.6,50.6-21.1
		c-5.2,8.7-7.7,18-8.6,27.5c-1.2,13.2-1.6,26.6-2.2,39.9c-0.7,15.5-1.7,31.1-1.6,46.6c0.2,23,1,45.9,2,68.9
		c0.5,10.4,2.2,20.8,3.6,31.2c0.2,1.2,1.5,2.3,2.3,3.5c3.3,8.4,5.8,17.4,7.7,26.5c2,9.4,5.6,17.8,11.9,25.1c0.1-0.9,0.1-1.6,0.1-1.5
		c3.7,5.4,7.8,11.4,11.9,17.5c0.6-0.2,1.2-0.5,1.8-0.7c-7.4-26.6-7-53.6-8.8-81.2c-1.8-28.2,4.2-53.1,8.1-81.4
		c1.6,0.3,2.2,0.4,2.8,0.5c28,8.3,45.2,15.4,70.9,29.5c9.3,5.1,18.8,10.2,27.7,16c17,11.2,32.9,23.7,47.4,38.1
		c10.5,10.5,23.2,18.8,32.1,31.1c0.9,1.3,2.3,2.3,3.5,3.4c0.3-0.3,0.6-0.6,0.9-0.8c-2.3-3.4-4.6-6.8-7-10.2c0.4-0.3,0.8-0.6,1.2-1
		C994.9,301.9,1008,319,1024,333.4z M804.5,114.8c3.2-9.1,6.3-17.9,9.5-26.7c4.5-12.1,9.2-24.2,14-36.2c0.4-1,1.6-2.2,2.5-2.3
		c29.5-2,58.6-0.4,85.8,12.9c5.1,2.5,9.7,6.2,15.1,9.7c-18.1,15.1-38.8,21.9-60.1,27c-21.5,5.2-42.9,10.4-64.4,15.5
		C806.5,115,806,114.9,804.5,114.8z"/>
	<path fill="#FFFFFF" d="M418.7,235.8c0.3,0,0.7,0,1,0c0.7,2.3,1.5,4.6,2.2,6.9c0.4-0.1,0.9-0.2,1.3-0.3c-0.4-4.6-1.1-9.1-1.1-13.7
		c0.1-8.6,0.8-17.2,0.8-25.8c0-7.1,1.6-10.6,8.7-11.8c5.5-0.9,9.9-3.2,14.5-5.9c2.8-1.7,6.2-2.5,9.4-3.4c4.5-1.2,9.1-1.9,13.6-3.1
		c6.8-1.8,13.6-3.9,20.3-5.9c-0.1-0.6-0.1-1.1-0.2-1.7c-21.2-0.1-42.4-3.2-63.5,0.7c0-9.5-0.1-18.2,0-26.8c0.4-22.8,1.1-58,1.9-80.7
		c0.3-8.6,2-17.1,2.9-25.7c0.9-8.2-3.4-12.2-11.6-11c-2.5,0.4-5.2,0.4-7.8,0c-8.5-1.3-16.1,0.5-22.9,6c-4.9,4-10,7.8-15.1,11.5
		c-12.3,9-24,18.5-33.8,30.2c-10.6,12.6-18.7,39.3-26.8,53.5c-14.4,25.4-27.9,51.2-37.8,78.7c-1.1,3.1-3.3,5.7-4.2,8.8
		c-3,10.1-5.4,20.4-8.4,30.5c-2.2,7.5-5,14.7-7.3,22.2c-0.8,2.7-3,5.8,0.5,8.5c0.4,0.3-0.1,2.1-0.4,3.2c-1.9,6.7-6.7,12.5-5.9,20.1
		c0.1,1.1-2.1,2.4-3.2,3.6c-0.6,0.6-1.3,1.2-2.4,2.2c1.5,0.2,2.5,0.3,5,0.5c-2.6,1.8-4.1,2.9-5.1,3.6c0.7,5.8,0.8,11.2-2.7,16.2
		c-0.6,0.9-1.3,1.8-1.5,2.8c-0.5,2-0.6,4.1-0.9,6.2c-0.1,0-0.2,0-0.2,0c-0.9,7-1.8,14.1-2.7,21.1c0.5,0.1,1,0.2,1.4,0.3
		c1.6-2.4,2.9-5.3,5-7.3c10.6-9.9,14.9-23.5,21.1-35.9c10.9-21.7,21.2-43.7,31.5-65.7c3.2-6.8,8-11.3,14.8-14
		c18.6-7.3,37.1-14.8,55.8-21.7c9.6-3.5,19.6-6,30-9.1c4.1,24.9,11.5,48.1,25.7,69.2C420,260.4,419.4,248.1,418.7,235.8z M393.8,172
		c-0.1,1.3-1.6,3.5-2.8,3.8c-22.2,5.6-44.5,11-66.8,16.4c-0.3,0.1-0.6-0.2-1.6-0.5c17.1-33.1,35.3-65.2,62.9-90.7
		c0.5,0.1,1.1,0.2,1.6,0.4c0.5,5.7,1.1,11.5,1.4,17.2c0.4,7.8,0.4,15.7,0.7,23.5c0.1,3.5-0.7,7.4,3.4,9.7c0.7,0.4,0.9,2.1,0.9,3.2
		C393.7,160.7,394,166.4,393.8,172z"/>
	<path fill="#FFFFFF" d="M704.7,131.1c-2.7-0.1-5.4,0-9,0c6.7-13.2,10.2-26.1,11.2-39.6c1.4-18.5-1.6-35.5-18-47.7
		c0.5-0.9,1.1-2,1.1-1.9c-1.9-3.8-2.9-6.6-4.4-9c-1.9-3.1-3.4-6.9-6.2-8.7c-8.6-5.3-17.7-7.5-27.9-3.6c-9.3,3.6-18.5,7.1-24.3,15.6
		c-18,26.3-29.8,55.3-35.8,86.5c-3.8,19.9-6.4,40.1-9.4,60.1c-2.1,13.7-4,27.5-6,41.5c-12.4-3.3-17.7-14.9-26.7-21.6
		c-0.6,0.6-1.1,1.2-1.7,1.7c8.3,9.1,16.7,18.2,25,27.5c1.2,1.4,2.7,3.8,2.3,5.3c-4.8,19.5-9.8,39-15.1,58.4c-3,11-6.5,21.9-9.7,32.9
		c0.4,0.2,0.9,0.4,1.3,0.6c7.1-13.8,15-27.2,21.1-41.5c6.1-14.3,10.3-29.4,15.3-44c6.8,3.4,13.3,7.5,20.4,10.1
		c15.9,5.8,32.6,6.1,49.3,4.3c29.5-3.1,55.8-13.1,76.9-34.9c19.5-20.2,22.1-49,6.3-72.3C731.8,138.1,719.9,131.6,704.7,131.1z
		 M700,102.4c0,0.7,0.1,1.5,0.1,2.2c0.2,0,0.5,0.1,0.7,0.1c0.7-3.9,1.3-7.7,2-11.6c0.5,0.1,1.1,0.2,1.6,0.3
		c-1.2,6.1-2.2,12.3-3.7,18.3c-1.4,5.4-3.5,10.6-5,15.9c-1.6,5.4-6.2,4.6-9.8,5.5C690.5,122.8,695.3,112.6,700,102.4z M626.1,236
		c-11.4,0.3-21.8-3.3-32.7-5.5c-0.6-0.1-1-0.7-1.6-1.1c4.7-15.6,9.2-31.1,14-46.5c4.1-13.3,8-26.7,12.8-39.7
		c4.2-11.6,9.2-22.9,14.2-34.1c2.9-6.5,6.4-12.8,10.1-18.9c1.2-2,3.8-3.2,6.2-4.2c2.3-2.9,4.6-5.7,6.9-8.6c0.3,0.2,0.7,0.4,1,0.6
		c-0.7,1.5-1.3,3-2,4.5c0.2,0.3,0.4,0.5,0.7,0.8c2-1.7,4.4-3.1,6-5.1c1.6-2,3-4,4.4-6.1c22.1,27.2-5.7,63.6-14.6,73.9
		c-4,1.8-8.4,3.1-12.5,4.8c8.3,5.7,17.1,4.4,25.8,2.6c0.4,0,40.4-2.2,54.5,12.1c11,11.2,3,36.1-32,57.6
		C668.1,234,647.4,235.5,626.1,236z"/>
	<path fill="#FFFFFF" d="M534.6,176.5c8.3-11.6,17-23.1,24.2-35.4c14.7-25.5,22.9-53.7,33.3-81c3.5-9.3,7.7-18.4,11.2-27.7
		c4.2-10.9-6.5-25.6-17.5-24.3c-8.3,1-15.2,4.8-18.9,12.3c-4.8,9.7-9,19.7-12.6,29.8c-2.7,7.5-3.7,15.5-6.2,23.1
		c-3.3,10.3-7.1,20.4-11.1,30.4c-2.8,7.1-6.1,13.9-9.2,20.9c-0.5,1.2-1.5,2.2-2.1,3.4c-3.6,7.4-7.1,14.9-10.6,22.3
		c-0.9-0.1-1.8-0.2-2.7-0.3c-10.5-21.4-21.1-42.8-31.3-64.3c-2.5-5.3-4.3-11.2-5.2-17c-1.6-10.6-1.2-21.3,0.2-32
		c0.4-3.1,0.4-6.4,0-9.6c-0.4-3.4-2.8-5.2-6.1-3.6c-6.5,3.2-13.1,6.4-19.1,10.4c-2.4,1.6-4.5,5.4-4.8,8.3c-1,9.2-1.5,18.6-1.3,27.9
		c0.4,14.4,8,26.4,14.9,38.2c9.9,17.1,20.9,33.6,31.6,50.2c8.8,13.6,8.8,13.5-1.3,26.3c-10.4,13.2-21,26.2-30.7,39.8
		c-8.3,11.8-16.2,24-23.1,36.7c-10.7,19.9-20.4,40.4-30.5,60.6c-1.3,2.6-2,5.6-3,8.4c-0.8,2.5-1.7,5-2.5,7.4
		c0.4,0.1,0.8,0.3,1.1,0.4c13.8-21.8,27.7-43.6,41.5-65.4c-3.2,8.2-6.6,16.1-9.8,24.2c-3,7.5-5.7,15.1-8.5,22.6
		c3.2-3.1,5.2-6.6,7.4-10.1c9.3-14.7,18.4-29.7,28.2-44.1c5.8-8.5,12.6-16.2,19-24.4c7.1-9.2,14.2-18.3,23.7-25.4
		c3.9-2.9,6.5-7.8,8.7-12.3c1.3-2.6,6.4-6.3,9.9-4.9c-4.2-5.6,3.2-6,3.4-9.6c5.3,2.2,7.1,9.3,14.9,8.2c-2-4.6-3.3-9-5.7-12.8
		C532.1,181.1,532.5,179.3,534.6,176.5z"/>
</g>
</svg>
