<?xml version="1.0" encoding="utf-8"?>
<!-- Generator: Adobe Illustrator 19.0.0, SVG Export Plug-In . SVG Version: 6.00 Build 0)  -->
<svg version="1.1" id="Layer_1" xmlns="http://www.w3.org/2000/svg" xmlns:xlink="http://www.w3.org/1999/xlink" x="0px" y="0px"
	 viewBox="0 0 690.2 717" enable-background="new 0 0 690.2 717" xml:space="preserve">
<g id="XMLID_43_">
	<g id="_x36_SjLFR_1_">
		<g id="XMLID_27_">
			<g id="XMLID_472_">
				<path id="XMLID_580_" fill="#FFFFFF" d="M548,422.4c2.2,7.6,4.5,13.7,5.7,20c1.6,8.4,2.3,16.7-0.7,25.3
					c-2.6,7.4-7,13.4-13.3,17.1c-12,6.9-16.3,18-19.1,30.4c-3.9,16.9-7,33.8-6.5,51.2c0.2,6.4,0.1,12.7,0.3,19.1
					c0.3,10.1-6.1,15.9-13.6,20.8c-9.3,6.1-19,11.7-28.1,18.1c-5.9,4.1-9.1,10.3-10.8,17.6c-3.8,16.6-6.8,33.4-14.3,48.9
					c-3.8,7.9-8.3,15.6-12.9,23.1c-0.9,1.5-3.3,2.1-5.1,3.1c-0.6-1.7-1.8-3.6-1.7-5.2c0.9-10.2,2.3-20.3,3.3-30.4
					c0.5-4.8,0.7-9.6,0.6-14.4c-0.1-3-3.9-4.3-6.2-1.9c-3.1,3.2-5.8,6.7-8.3,10.3c-7.7,10.9-15.1,21.9-23,32.7
					c-3.6,4.9-9.1,6.9-15.1,7c-8.1,0.1-16.3-0.1-24.4,0.1c-11.8,0.2-23.6,1.1-35.3,0.6c-8.1-0.4-17.4,0.7-23.2-6.9
					c-8.2-10.7-15.6-22-23.5-33c-2.6-3.6-5.2-7.2-8.2-10.4c-0.9-1-3.3-1.3-4.6-0.8c-1,0.3-2,2.5-1.9,3.7c0.9,11.5,2.1,22.9,3.2,34.4
					c0.3,3.5,0.7,6.9,0.6,10.4c0,1.3-0.9,3.6-1.6,3.6c-1.4,0.1-3.5-0.5-4.3-1.6c-2.6-3.6-4.8-7.4-7.1-11.2
					c-9.8-16.7-14.8-35.2-19.1-53.9c-1.5-6.6-2-13.4-6.4-19.4c-4.4-5.9-10.3-9.5-16-13.4c-8.1-5.6-16.6-10.6-24.7-16.1
					c-4.5-3.1-6.6-7.8-6.7-13.2c-0.2-10.3,0.3-20.7-0.1-31.1c-0.9-20.1-4.7-39.6-11.8-58.5c-2.1-5.5-6.5-8.6-10.9-11.5
					c-9.3-6.2-16.4-14.2-17.4-25.4c-0.7-7.7,0.5-15.7,1.7-23.4c0.7-4.9,3-9.5,4.9-15.3c-5.4-0.9-11.5-2.4-17.7-2.7
					c-10.8-0.5-21.7-0.3-31.8-5.1c-17.3-8.3-33.1-18.8-46.3-32.9c-9.9-10.6-20-21-29.6-31.8c-2.6-3-4.4-6.8-6.2-10.4
					c-2.2-4.5-4.3-9.2-5.6-14c-1.7-6.2-2.6-12.6-3.7-19c-2.2-11.8-2.6-23.6,1.7-35.1c1.4-3.7,3.8-7.1,5.8-10.6
					c0.6-0.1,1.2-0.1,1.8-0.2c1.1,3.9,3,7.7,3.2,11.6c0.4,9.4,4.5,17.2,10.3,23.9c6.6,7.5,13.1,15.6,21.3,21
					c13.2,8.7,27.5,15.8,44.1,16.7c8.1,0.4,16.2,3.4,24.3,3.4c8.1,0.1,16.2-2,24.3-3.2c1.3-0.2,2.4-1,3.6-1.4
					c4.7-1.5,8.9-2.8,10.7-8.6c1-3.1,4.6-5.5,7-8.1c1.1-1.2,2.2-2.4,2.9-3.2c-12.5-10.8-25.1-20.6-36.3-31.7
					c-9.5-9.4-17.8-20.1-23.4-32.7c-3.9-8.6-9.1-16.6-12.8-25.3c-3.3-7.9-6.1-16.2-7.8-24.6c-2.1-10.2-3.4-20.7-3.9-31.1
					c-0.3-4.7,1.8-9.6,3.2-14.4c4.8-16,9.6-32,14.6-48c1.1-3.6,3.4-6.8,5.2-10.2c0.5,0.2,1,0.3,1.5,0.5c0.1,0.9,0.2,1.8,0.3,2.7
					c0.7,16.4,1.1,32.8,2.2,49.2c0.4,6.4,0.4,13.1,4.8,18.8c1.3,1.7,1.4,4.5,1.6,6.9c1,9.4,7.8,15.7,12.3,23.2
					c7.3,12.2,17.4,22.2,28.7,30.5c9,6.6,19.3,11.6,29.4,16.6c3,1.5,7.2,0.7,10.8,0.5c0.8,0,1.6-1.7,2.2-2.7
					c4.7-9,8.5-18.6,14.2-26.8c5.4-7.7,11.3-15.5,20.7-20.3c-13.1,19.1-19.5,40.6-28.6,61.6c4-0.8,8,4.6,11.6-2.3
					c1.1-2.1,7.1-1.6,10.9-2.2c0.4-0.1,0.9,0.5,1.4,0.5c13.5-1.9,16.7,9.6,22.3,17.5c7.4,10.5,4.4,22.2,2.1,33.5
					c-1.2,6.2-1.6,12.7-6.3,18.2c-5.3,6.2-11.7,9.2-19.1,11.2c-5.1,1.4-10.3,3.5-15.4,3.5c-5.8,0.1-11.7-1.8-18.8-3.1
					c-17.4,11.7-13.7,23.4-4.7,44.7c-6.4-1.1-8.7-5.6-11.8-10.8c-1.5,5.5-3.5,11-4.3,16.6c-2.2,15.9-8.7,30-16.3,43.9
					c-4.1,7.5-8.3,15.7-9.5,24c-1.8,12.3,4.4,21.6,15.2,28.6c15.1,9.9,30.5,20,38.6,37.3c1.3,2.8,2.3,5.8,2.6,8.8
					c0.2,1.8-1.3,3.8-2.3,6.5c-2.8-6.6-5-11.7-7.3-16.9c-0.5,0-1,0-1.5,0c-0.8,3-1.3,6.1-2.3,8.9c-3.6,10-2.7,20.1-1.7,30.4
					c0.6,5.8-0.9,11.8-0.6,17.7c0.3,7.4,0.8,15.3,6.3,20.8c4.2,4.2,9.9,6.8,15,10c7.5,4.6,15,9.1,22.2,13.4
					c-0.2-4.3-0.5-9.6-0.6-14.9c-0.3-8.4-2.2-16.1-8.8-22c-2.4-2.1-4.7-4.5-7.5-6.2c-6.7-4.1-9.5-13-18.2-14.7
					c-0.3-0.1-0.8-3.6-0.1-4.1c8.7-7.2,12.1-15.9,9.8-27.2c-1.9-9.5-3.2-19.1-4.1-28.7c-0.4-4.5,2-9.5-2.9-13c1.1-1.2,2-3.2,3.3-3.4
					c6-1,12.1-1.6,18.1-1.9c1.8-0.1,3.6,1.3,6,2.3c1.7-8.8,3.3-17,4.9-25.2c0.5,0,1-0.1,1.5-0.1c1,3.6,2.3,7.1,2.8,10.8
					c0.5,3.8-0.3,7.8,0.4,11.6c0.5,2.7,2.3,5.4,4.2,7.4c3.4,3.5,7.4,6.5,11.1,9.6c-1.5-12.1-0.1-23.3,9.5-32.1
					c4.1-3.7,7.8-8.1,12.4-11.1c7.7-5,16.4-4.7,24.9-2.2c11.4,3.3,19.1,11.2,25.3,20.9c2.5,4,2,8.6-1.4,12c-0.9-1.9-1.5-3.7-2.4-5.4
					c-5.8-11.2-14-19.9-26.3-23.8c-10-3.1-18.3,0.8-25.5,7.7c-10.5,9.9-8.1,28.1-1,39c2.9,4.5,4.5,9.8,7.2,15.8
					c-9.5-4-17.3-7.4-25.6-10.9c0.5,4.1,6.6,4.9,4.1,10.3c-2.3-2.1-4.1-3.7-6.3-5.6c-0.6,2.3-1,4.1-1.7,6.6
					c9.5,1,15.6,6.6,20.9,13.4c3.5,4.6,8.4,5.5,13.5,5.9c8.8,0.7,17.4-0.5,25.9-2.9c5.8-1.7,11.6-3.2,17.4-4.7
					c0.7-0.2,2-0.3,2.3,0.1c4.1,6.3,10.9,6.2,17,7.2c10.5,1.8,21,0.9,29.9-5.3c2.6-1.8,3.9-1.6,6.5-1.1c12.5,2.5,24.5,7.4,37.6,6.9
					c7.7-0.3,14.5-1.8,19-8.4c4.4-6.5,10.8-9.6,18.5-11.2c-0.4-2.1-0.8-4-1.4-6.5c-2.1,1.9-3.9,3.5-5.7,5.1c-2-2.5-2-2.5,3-9.5
					c-7.9,3.4-15.9,6.7-23.8,10.1c-0.4-0.2-0.8-0.4-1.2-0.5c2.4-5,4.6-10.2,7.2-15.1c5.8-10.8,8.7-21.9,2.4-33.2
					c-7.8-14.1-27.5-19.1-39.4-7.9c-2.2,2-4.9,3.6-6.7,5.9c-4.4,5.5-8.5,11.4-12.7,17.1c-2.3-1.8-3.2-6.6-1-10.2
					c7.8-12.5,18.1-21.9,33.5-23.1c8.6-0.6,16.8,1.4,23.4,7.7c9.6,9.2,17.2,19.2,16.1,33.5c-0.1,1,0,2-0.1,3c-0.1,0.8-0.5,1.5-0.1,3
					c4.9-5,10.6-9.5,14.4-15.3c2.1-3.1,0.8-8.3,1.3-12.5c0.5-4,1.3-8.1,1.9-12.1c0.6,0,1.2,0,1.9,0c1.6,8.2,3.2,16.4,4.6,23.7
					c8.3,0.4,16,0.8,23.7,1.3c1.4,0.1,2.7,0.8,4,1.3c-0.5,1.3-0.7,2.7-1.4,3.8c-1.7,2.4-1.7,4.6-1.7,7.6c0,8.5-0.4,17.2-2.5,25.4
					c-2.6,10.2-3.1,19.7,2.9,28.8c1.3,1.9,3.3,3.4,4.9,5.1c0.7,0.8,2.1,1.8,1.9,2.4c-0.3,1-1.5,1.8-2.4,2.6
					c-3.3,2.7-6.8,5.3-10.1,8.1c-3.2,2.7-6.4,5.3-9.3,8.3c-4.2,4.3-8.7,8.4-11.9,13.3c-1.8,2.8-1.5,7.2-1.9,10.9
					c-0.5,5.9-0.7,11.8-1.1,17.8c3.9-2.8,7.5-5.9,11.5-8.3c7.4-4.5,15.4-8,22.3-13c3.5-2.5,6.4-7.1,7.7-11.3
					c2.8-9,2.9-18.4,1.5-27.9c-0.7-5.1,0.6-10.5,0.7-15.7c0-3.6-0.3-7.3-1-10.9c-1-5.1-2.4-10-3.7-15c-0.5-0.1-0.9-0.1-1.4-0.2
					c-2.3,5.2-4.5,10.4-6.9,15.9c-2.9-0.7-3.5-3.3-2.9-5.9c2.3-10.3,7.6-19.1,15.6-25.7c10.1-8.4,20.9-15.9,31.4-23.8
					c9-6.8,12.4-21.9,7.9-31.8c-4.6-10.1-9.9-19.9-14.8-29.9c-6.2-12.8-9.1-26.5-11.3-40.5c-0.4-2.3-1.9-4.4-3.1-7.1
					c-2.4,5.3-4.5,9.9-10.3,10.9c2.4-7.5,5.7-14.6,6.5-21.9c0.5-5-1.9-10.7-4.3-15.5c-1.7-3.4-5.6-5.6-8.6-8.4
					c-7.6,4.4-15.2,5.4-23.3,3.2c-4-1.1-8-1.9-12-3c-12.2-3.4-20.4-10.5-22.4-23.7c-1.4-9.7-4.4-19.2-2.5-29.3
					c1.4-7.7,6.7-12.9,10.4-19.2c6.3-10.6,16.3-7.4,25.5-7.7c1,0,2.5,0.9,2.8,1.7c2.9,7.5,7.4,1.4,10.8,2.2
					c-1.6-4.2-3.2-7.7-4.3-11.4c-2.2-7.4-3.6-15-6.2-22.2c-1.9-5.1-4.9-9.8-8-14.4c-2.7-4-6.2-7.6-9.3-11.3c0.3-0.4,0.6-0.8,0.9-1.2
					c1.3,0.7,2.9,1,3.8,2c8.7,8.6,17.2,17.3,22.7,28.3c2.5,5.1,4.5,10.6,7.1,15.7c0.7,1.4,2.5,2.8,4,3c11.1,1.2,19.7-5.2,28.6-10.3
					c4.5-2.6,8.5-6.1,12.6-9.4c11.6-9.2,21.2-20.2,29-32.8c4.8-7.8,10.2-15.3,14.5-23.4c2.1-3.9,3-8.7,3.1-13.2
					c0.3-17.3,0.1-34.7,0.2-52c0-1.6,0.2-3.2,0.3-5.1c10.5,9.3,13.8,21.7,17.7,33.8c6.2,19.1,6.5,39,4.6,58.5
					c-1.3,13.4-4.9,27-12.1,39.1c-4.7,7.8-7.8,16.5-12.5,24.4c-4.5,7.4-10,14.2-15.1,21.2c-10.1,13.8-25.2,22.4-37.2,34.1
					c-1.4,1.3-3.3,2.1-5.3,3.4c0.6,1.2,0.9,2.7,1.8,3.3c4.9,3.4,8.6,7.5,10.4,13.3c0.2,0.8,1.3,1.7,2.1,2
					c10.2,3.5,20.3,7.9,31.4,7.1c8.3-0.6,16.6-2.2,24.9-3.3c3.2-0.5,6.5-0.9,9.7-1.6c19.8-4.1,37.3-12.5,51-27.6
					c7.1-7.8,13.9-15.9,16.7-26.3c1.2-4.5,1.7-9.3,2.7-13.9c0.3-1.4,1.4-2.7,2.3-4.4c10.5,12.3,10.6,26.3,9.1,40.6
					c-0.7,6.3-1.3,12.6-2.5,18.8c-0.7,3.6-2.6,7-4.1,10.4c-2.7,6.1-4.6,12.7-8.3,18.1c-4.5,6.6-10.1,12.7-15.9,18.2
					c-12.4,11.9-24.5,24.5-38.3,34.8c-14.2,10.6-30,18.8-48.8,18.4C563.5,420.1,555.4,421.7,548,422.4z M448.7,313.6
					c1.3,1.4,2.5,2.8,3.6,4c1.1-0.8,2.1-1.3,2.7-2c0.8-0.9,1.2-2.1,1.8-3.2c-1.2-0.1-2.5-0.5-3.7-0.3
					C451.7,312.4,450.2,313.2,448.7,313.6c1.5-1.9,3-3.8,4.4-5.6c-1.7-4.5-4.3-9.7-5.4-15.2c-1.8-8.9-2.2-17.9,5.9-24.7
					c3.6-3.1,6.8-6.7,10-9.9c-5.2-1.5-7.5,2.8-10.5,6.3c-5.6,6.5-10.5,13.2-9,22.5C445.6,295.9,447.2,304.8,448.7,313.6z
					 M241.6,313.7c1.1-4.9,2.4-9.9,3.3-14.8c1.9-10.8,3.7-21.8-4.9-30.8c-3.9-4.1-5.8-11.5-14-9.7c21,14.9,21.9,27.8,10.9,49.3
					C238.7,309.9,240.2,311.8,241.6,313.7c-1.8-0.6-3.6-1.5-5.4-1.9c-0.8-0.2-1.8,0.5-2.8,0.7c0.3,0.9,0.4,2,1,2.6
					c1,1,2.4,1.7,3.7,2.6C239.3,316.3,240.5,315,241.6,313.7z M416.6,565.6c-0.8-6.6-1.5-13.1-2.6-19.6c-0.2-1-2.7-1.5-4.2-2.2
					c-0.5,0.5-1.1,1-1.6,1.5C411,552,413.9,558.8,416.6,565.6c21,43.9,27,89.6,17.2,137.4c6.9-13.7,11-28.3,14.1-43.2
					c3.2-15.4,5.6-30.9,7.9-46.5c0.9-6.1,1.4-12.4,1-18.5c-0.5-8.1-1.8-16.2-3-24.2c-1.1-6.9-2.6-13.7-4.1-21.7
					c-0.9,4.2-1.6,7.3-2.3,10.3c-0.5-0.1-0.9-0.1-1.4-0.2c0.4-5.9,0.7-11.8,1.1-17.7c-0.3,0-0.5,0-0.8-0.1c-0.3,2.8-0.7,5.7-1,8.5
					c-0.3-0.1-0.5-0.1-0.8-0.2c-0.9-6.8-1.8-13.6-2.7-20.4c-0.4,0-0.8,0.1-1.3,0.1c0,5.8,0,11.7,0,17.5c-0.4,0-0.7,0.1-1.1,0.1
					c-0.6-4.9-1.3-9.7-1.9-14.6c-0.4-0.3-0.9-0.6-1.3-0.9c-2.7,3.7-5.3,7.4-8,11.1c-1.3,1.7-2.7,3.3-4,5c-0.4-0.3-0.7-0.5-1.1-0.8
					c0,2.3,0,4.6,0,6.9c-0.3,0.1-0.6,0.1-0.9,0.2c-0.6-1.3-1.2-2.6-1.8-3.9c-0.1,3.1,0.6,6.1,0.5,9
					C421,561.9,419.9,564.6,416.6,565.6z M273.7,565.6c-3.3-0.7-5.4-5.7-4.4-10.5c0.3-1.6,0.6-3.3,0.9-4.9c-0.2,0-0.3-0.1-0.5-0.1
					c-0.7,1.3-1.3,2.6-2,3.9c-0.3-0.1-0.7-0.3-1-0.4c0.1-2.2,0.3-4.5,0.4-6.7c-0.4,0.3-0.8,0.5-1.2,0.8c-1.4-1.7-2.8-3.3-4.1-5
					c-2.7-3.7-5.3-7.4-8-11.1c-0.4,0.3-0.9,0.6-1.3,0.8c-0.6,4.9-1.3,9.7-1.9,14.6c-0.4,0-0.7-0.1-1.1-0.1c0-5.8,0-11.7,0-17.5
					c-0.4,0-0.8-0.1-1.3-0.1c-0.9,6.8-1.8,13.6-2.7,20.4c-0.3,0.1-0.5,0.1-0.8,0.2c-0.3-2.8-0.7-5.7-1-8.5c-0.3,0-0.5,0.1-0.8,0.1
					c0.4,5.9,0.7,11.8,1.1,17.7c-0.5,0.1-0.9,0.1-1.4,0.2c-0.7-3.1-1.4-6.1-2.2-9.9c-2.2,10.9-4.9,21-6.2,31.2
					c-1,8.1-0.5,16.4-0.2,24.6c0.4,8.8,0.5,17.7,2.3,26.3c3.8,18.4,8.3,36.7,12.9,54.9c1.5,5.8,4.4,11.3,6.7,16.9
					C246.7,655.2,252.8,609.5,273.7,565.6c2.8-6.8,5.6-13.6,8.4-20.4c-0.5-0.5-1.1-1-1.6-1.5c-1.4,0.7-4,1.3-4.2,2.2
					C275.2,552.4,274.5,559,273.7,565.6z M550.5,344.8c-0.1-0.4-0.1-0.8-0.2-1.2c1-0.3,2-0.6,3.1-1c-5.6-1.6-10.9-3.2-16.3-4.5
					c-1.2-0.3-3.1,0-4.1,0.8c-6.2,4.7-6.5,12.1-8.3,18.8c-1.1,0.2-2.2,0.4-3.2,0.5c1.7,2.5,3.8,4.5,4.5,6.8c1.4,4.7,4.4,5.3,8.6,5.1
					c8.6-0.5,17.3-0.7,25.9-1c0.8,0,1.6,0.3,2.4,0.5c0,0.4,0,0.9,0,1.3c-7.3,0.9-14.5,1.8-22.3,2.7c1.9,0.6,3.1,1.1,5.6,1.9
					c-5,2.2-8.8,4.5-13,5.5c-3.5,0.8-4.1,3.3-3.7,5.3c1.1,5.4,3,10.6,4.7,15.8c2.1,6.5,5.1,10.5,13.5,9.4c11-1.3,22.2-0.7,33.4-0.8
					c-5-2.8-11,0.6-15.1-3.6c9.2-1.5,18.3-2.9,27.5-4.4c-0.1-0.5-0.2-1.1-0.3-1.6c-5.1,1-10.3,2-15.8,3.1
					c14.8-7.7,29.2-15.2,43.4-22.6c-1.3,1.5-2.8,3.2-4.6,5.3c9.4-1.2,13.7-9.3,20.7-13.5c-0.5,2.1-1.5,3.7-2.6,5.1
					c-1.2,1.6-2.4,3.2-3.8,4.6c-1.2,1.2-2.7,2.1-4,3.2c1.4,0.3,2.3,0,3.1-0.6c12.4-9.3,22.1-21,31.7-33c8-10,13.3-21.2,17.7-33.1
					c3.2-8.7,4.9-17.5,4.1-26.7c-0.3-3.9-1.1-7.7-1.7-11.6c-0.5-0.1-0.9-0.2-1.4-0.3c-2.2,11.9-9.2,20.9-16.7,29.7
					c-9.3,11-20.4,19.6-33.7,25c-13.5,5.5-27.8,7.3-42.3,8.2c-5.3,0.3-10.6,0.9-16,1.4c8.6,0,17.1,0,25.7,0
					c-12.1,6.7-24.9,4.7-38.1,3.3c1.9-1.2,3.8-2.5,6.4-4.1C559.9,344.8,555.2,344.8,550.5,344.8z M97.3,401.1
					c-0.2,0.6-0.4,1.1-0.6,1.7c9.3,1.4,18.5,2.8,28,4.2c-4.7,3.9-10.5,1.1-15.5,2.9c13.2,0.9,26.4,1.4,39.6,1.8c1,0,2.6-0.4,3.1-1.2
					c4.5-7.8,8.9-15.7,9.1-25c0-1.4-2.1-3.4-3.7-4.3c-3.9-2.1-8-3.6-13.1-5.8c2.7-0.9,4-1.3,5.6-1.8c-7.8-0.9-15.1-1.8-22.4-2.7
					c0.1-0.5,0.1-1.1,0.2-1.6c4.6,0.3,9.3,0.6,13.9,0.8c4.2,0.1,8.4,0.3,12.6-0.1c3-0.3,6.7,2,8.9-2c1.8-3.2,3.6-6.4,5.6-9.9
					c-0.9-0.1-2.1-0.3-2.9-0.4c-1-4-1.7-7.9-3.1-11.6c-2.7-7.5-6.5-9.1-13.9-6.9c-3.9,1.2-7.8,2.2-11.7,3.3c1,0.4,2,0.8,3.1,1.2
					c-0.1,0.3-0.1,0.7-0.2,1c-4.9,0-9.7,0-14.8,0c2.3,1.6,4.3,2.9,7.2,4.9c-22.4,1.8-35.9,0.4-39-4.1c8.6,0,17,0,25.5,0
					c-13.1-1.1-26.1-2.9-39.1-4.5c-17.3-2.1-31.9-9.9-44.4-21.5c-11-10.2-21-21.4-24.9-36.6c-0.1-0.6-0.7-1-1.6-2.3
					c-0.7,5-1.3,9.1-1.7,13.3c-1.5,17,5.2,32.2,13.1,46.1c9.2,16.1,21.8,30.1,35.9,42.5c2.1,1.9,4.7,3.2,8.2,5.5
					c-4.6-5.3-8.2-9.5-11.8-13.8c0.5-0.5,1.1-0.9,1.6-1.4c2.9,2.8,5.6,5.9,8.8,8.4c3.1,2.4,6.7,4.2,10.1,6.2
					c0.2-0.4,0.4-0.7,0.7-1.1c-1.5-1.7-3-3.3-4.5-5c0.3-0.5,0.6-0.9,0.9-1.4c12.5,11.1,27.8,16.9,42.9,23c-0.2,0.4-0.3,0.8-0.5,1.2
					C107.5,403.2,102.4,402.2,97.3,401.1z M194.6,284.8c0.2-0.4,0.3-0.7,0.5-1.1c8.5,4.2,17,8.4,25.5,12.5c0.1-0.2,0.2-0.5,0.3-0.7
					c-2-1.4-4-2.9-5.9-4.3c6.7,0.5,11.3,6.5,18.2,5.6c-1.7-1.4-3.2-2.7-5.9-5c3.5,0.6,5.6,0.9,7.7,1.3c0.6-4.9,0.8-9.1-4.6-11.6
					c-1.6-0.8-2-3.7-3.5-5.1c-2.4-2.2-5.6-2.7-8-6c-2.9-3.9-8.5-6.3-13.3-8.2c-5.7-2.3-11.9-3.4-17.6-4.9c-0.9,4.2-1.8,8.3-2.7,12.4
					c-0.4,0-0.9-0.1-1.3-0.1c-0.6-4.8-1.2-9.6-1.9-14.4c-0.6,0-1.1,0.1-1.7,0.1c-0.9,3.6-1.8,7.2-2.8,10.7c-0.5,0-0.9-0.1-1.4-0.1
					c-0.4-3.6-0.9-7.3-1.4-11c-1,1.4-2,2.8-3.4,4.8c-1.6-3.5-2.8-6.2-4.2-9.2c-0.6,1.2-1.1,2.3-1.7,3.4c-0.4-0.2-0.9-0.5-1.3-0.7
					c0.7-5.6-1.9-8.8-6.6-11.6c-5.2-3-9.9-7-14.4-11c-8.3-7.5-16.5-15.3-24.3-23.3c-4-4.1-7-9.1-10.6-14c0.4,2.4,0.8,4.4,1.1,6.4
					c-0.5,0.1-1.1,0.3-1.6,0.4c-0.9-1.5-1.8-3-2.3-3.8c-1.8-0.1-4.1,0.2-4.3-0.3c-2-4.8-3.6-9.8-5.3-14.7c0.4-0.2,0.9-0.4,1.3-0.6
					c0.8,0.9,1.6,1.9,3.3,3.7c-1.4-5.1-2.5-9-3.5-12.9c0.5-0.2,0.9-0.3,1.4-0.5c1.6,4.1,3.2,8.2,4.8,12.2c-6.1-20-7.9-40.4-5.5-61.2
					c-1,2.6-2.1,5.2-2.6,7.9c-3.4,18.9-6.4,37.8-5.1,57.2c0.2,2.8-0.4,5.8,0.4,8.4c2.6,8.4,5.2,16.8,8.6,24.9
					c3.5,8.4,7.8,16.5,12.2,24.5c3.2,5.8,6.9,11.3,10.9,16.5c4.8,6.1,10.1,11.8,15.3,17.4c4.8,5.1,9.7,10.1,14.9,14.7
					c4.3,3.7,9.3,6.5,13.7,10.1c7,5.8,14.7,7.7,23.4,5.2c0.7-0.2,1.5-0.3,2.2-0.4c0.1,0.3,0.2,0.6,0.3,1c-2.6,1.3-5.2,2.6-7.7,4
					c0.1,0.3,0.2,0.5,0.3,0.8c6.7-1.8,13.5-3.5,20.2-5.3c0.4,0.3,0.7,0.6,1.1,0.9c-1.9,1.1-3.9,2.2-6.7,3.8c2.3,0,3.3,0,4.2,0
					c0.1,0.3,0.1,0.5,0.2,0.8c-4,1.8-8,3.5-12.1,5.4c7.9,5.2,15,1.4,22.3-0.3c-0.9-2.1-1.4-3.5-2-4.9c0.3-0.2,0.6-0.3,0.8-0.5
					c1.5,1,2.9,1.9,5.2,3.3c4.6-4.6,9.2-9.2,14.2-14.3C217.5,298.8,205.7,292.6,194.6,284.8z M495.3,283.7c0.2,0.4,0.3,0.7,0.5,1.1
					c-11.1,7.7-23,14-37.6,18.3c5.1,5.1,9.7,9.7,14.3,14.3c2.2-1.4,3.7-2.4,6.4-4.1c-1.1,2.8-1.7,4.3-2.4,6.3
					c7.5,1.7,14.7,5.5,22,0.2c-4.1-1.8-8-3.7-12-5.5c0.2-0.4,0.3-0.7,0.5-1.1c0.9,0.1,1.7,0.3,2.9,0.4c-1.6-1.8-3.1-3.4-4.3-4.7
					c6.8,1.8,13.4,3.5,20.1,5.2c0.1-0.2,0.2-0.5,0.3-0.7c-2.6-1.4-5.2-2.8-7.8-4.2c0.2-0.4,0.3-0.8,0.5-1.2
					c4.7,1.9,9.3,3.4,14.2,0.8c1.7-0.9,4.3-0.1,5.8-1.2c6.8-4.7,13.8-9.3,20-14.8c7-6.3,13.1-13.6,19.7-20.4
					c7.9-8.2,15.9-16.4,20.7-27.1c5.3-11.7,11.5-23.1,16.2-35.1c2.8-7,4.2-14.8,4.8-22.3c0.7-8.1-0.1-16.3-0.5-24.4
					c-0.8-14.1-2.4-28.1-6.3-40.5c0,9.2,0.8,19.5-0.2,29.6c-1.1,10.2-4,20.3-6.2,30.4c0.1,0,0.1,0.1,0.2,0.1
					c1.6-4.1,3.2-8.2,4.8-12.3c0.5,0.1,0.9,0.3,1.4,0.4c-1,3.9-2.1,7.9-3.1,11.8c0.3,0.1,0.7,0.3,1,0.4c0.5-1.2,1.1-2.3,1.6-3.5
					c0.5,0.4,1,0.8,1.6,1.3c-1.6,4.6-3.1,9.2-4.9,13.6c-0.4,0.9-2.3,1.2-3.6,1.8c-0.2-0.4-0.5-0.8-0.7-1.2c-0.9,1.5-1.8,3-2.7,4.4
					c-0.5-0.1-1.1-0.3-1.6-0.4c0.4-2.1,0.7-4.1,0.9-5.1c-5.7,6.6-11.5,14.1-18.3,20.7c-8.2,8.1-17.2,15.4-25.9,22.9
					c-5,4.2-12.9,5.9-11.3,16c-1.8-2-2.6-2.9-3.1-3.4c-1.4,2.8-2.8,5.4-4.5,8.7c-1.3-2-2.2-3.3-3-4.6c-0.6,3.8-1.1,7.5-1.6,11.1
					c-0.4,0-0.8-0.1-1.3-0.1c-0.9-3.5-1.7-7.1-2.6-10.6c-0.6,0-1.2-0.1-1.7-0.1c-0.6,4.8-1.2,9.6-1.8,14.4c-0.5,0-0.9,0.1-1.4,0.1
					c-0.9-4.1-1.8-8.3-2.8-13.2c-8.3,3.2-16.8,6.3-25.2,9.7c-2.2,0.9-5,2.1-5.9,4c-2.5,5.2-8,7.1-11.6,11.1c-3.6,3.9-4.8,7-4.2,11.8
					c2.2-0.4,4.2-0.7,6.2-1.1c0.1,0.2,0.3,0.5,0.4,0.7c-1.7,1.4-3.3,2.7-5,4.1c0.2,0.4,0.3,0.7,0.5,1.1c5.8-2.6,11.5-5.2,17.3-7.8
					c0.2,0.3,0.4,0.7,0.6,1c-2,1.4-4,2.8-5.9,4.3c0.1,0.2,0.2,0.5,0.4,0.7C478.3,292.1,486.8,287.9,495.3,283.7z M429.6,619.1
					c-0.6-0.3-1.2-0.7-1.7-1c-0.4,0.9-0.5,2.2-1.2,2.8c-9.7,8-16.4,18.3-22.5,29.1c-3.7,6.7-9.8,8.5-17.5,7.6
					c-5.8-0.7-11.9-0.3-17.8,0.4c-6,0.7-11.9,2.4-17.9,3.3c-2.3,0.3-4.8-0.5-7.1-0.6c-3.7-0.2-7.7,0.5-11.2-0.4
					c-9.3-2.6-18.9-4.9-28.3-2.7c-9,2.1-15.2-2.3-18.8-8.8c-6.3-11.4-14.5-21.2-23.7-30.3c-0.4,0.2-0.8,0.5-1.1,0.7
					c11.5,19.8,23,39.6,34.5,59.3c-0.4,0.3-0.8,0.6-1.2,0.8c-10.9-14.4-21.8-28.8-32.8-43.2c-0.6,0.2-1.2,0.4-1.8,0.6
					c0.2,2.2-0.2,4.8,0.8,6.4c4.7,7.3,10.3,14,14.8,21.4c7.3,11.8,14.8,23.6,25.6,32.5c3.4,2.8,7.8,4.9,12,6
					c13.4,3.5,27.1,3.8,40.8,3.1c8.8-0.4,17.8-1.4,26.3-3.6c10-2.5,16-11,22-18.5c5.9-7.4,10.6-15.8,15.9-23.7
					c4-5.8,8.4-11.3,12.1-17.3c1.1-1.6,0.6-4.3,0.8-6.4c-0.6-0.2-1.2-0.4-1.8-0.6c-10.9,14.4-21.9,28.8-32.8,43.2
					c-0.4-0.3-0.8-0.5-1.2-0.8C406.6,658.7,418.1,638.9,429.6,619.1z M296.7,608.2c0.6-0.1,1.3-0.3,1.9-0.4c0.8,3.1,1.5,6.3,2.2,8.9
					c0.7-2.1,1.5-4.8,2.3-7.4c0.4,0.1,0.8,0.2,1.2,0.3c-0.4,3.5-0.7,7-1.1,10.5c0.2,0,0.4,0.1,0.6,0.1c1.3-4.4,2.6-8.8,4-13.2
					c0.5,0,0.9,0.1,1.4,0.1c0,4.9,0,9.8,0,15.5c1.8-3.4,3.3-6.3,4.8-9.2c1.3-6.4,1.3-6.4,4.1-7.2c0.1,1.5,0.2,3,0.3,4.4
					c0.2,0,0.5,0,0.7,0c1-4.2,1.9-8.4,2.9-12.6c0.4,0.1,0.8,0.1,1.3,0.2c-0.3,3.9-0.7,7.8-1,11.7c0.3,0,0.6,0,0.8,0.1
					c0.7-2.8,1.4-5.7,2.1-8.5c0.4,0.1,0.7,0.2,1.1,0.2c0,2,0,3.9,0,5.9c0.2,0,0.4,0,0.6,0.1c0.3-2.6,0.6-5.2,0.9-7.8
					c0.4,0,0.8,0,1.2,0c0,3,0,6,0,9c0.2,0,0.5,0,0.7,0c0.6-3.7,1.2-7.3,1.8-11c0.5,0.1,1.1,0.1,1.6,0.2c0,3.2,0,6.4,0,10.5
					c2.3-3.1-1.3-9.8,6.2-7c-0.3-2.7-0.6-5.1-0.9-7.5c0.5-0.4,1.1-0.7,1.6-1.1c0.4,0.9,0.8,1.8,1.2,2.7c0.4,0.9,0.7,1.8,0.9,2.8
					c0.2,0.7,0.3,1.5,0.5,2.8c0.7-3.9,1.2-7.2,1.8-10.4c0.5,0,0.9,0,1.4,0c0.6,3.4,1.2,6.7,1.7,9.5c0.9-1.9,2-4.3,3.1-6.7
					c0.4,0.2,0.9,0.4,1.3,0.5c-0.3,2.5-0.6,5-0.9,7.4c7.3-2.4,3.9,4.1,5.8,6.3c0.2-3.5,0.3-6.7,0.5-10c0.5,0,1,0,1.5-0.1
					c0.6,3.7,1.1,7.3,1.9,12.2c0.3-4.2,0.5-7.2,0.7-10.1c0.4,0,0.8,0.1,1.2,0.1c0.2,2.5,0.5,5,0.7,7.6c0.1,0,0.3,0,0.4,0
					c0.2-2,0.3-4.1,0.5-6.1c0.3,0,0.6-0.1,0.9-0.1c0.7,2.8,1.4,5.6,2.1,8.4c0.7-2.1,0.4-4,0.3-6c-0.2-1.8-0.2-3.7-0.3-5.5
					c0.4,0,0.8-0.1,1.3-0.1c0.9,4.2,1.9,8.3,2.8,12.5c0.2-0.1,0.4-0.1,0.7-0.2c0.2-1.5,0.3-3.1,0.5-4.6c0.6-0.1,1.2-0.1,1.8-0.2
					c0.4,2.8,0.9,5.6,1.3,8.4c6-1.1,1.3,7.2,5.5,7.5c0-5,0-9.8,0-14.7c0.5-0.1,0.9-0.1,1.4-0.2c1.3,4.4,2.7,8.8,4,13.2
					c0.2,0,0.3-0.1,0.5-0.1c-0.3-3.5-0.7-7-1-10.5c0.4-0.1,0.9-0.1,1.3-0.2c0.7,2.6,1.5,5.1,2.4,8.4c1-3.9-1.7-8.5,3.8-9.8
					c0.7,1.7,1.3,3.4,2,5.1c0.3,0,0.6-0.1,0.9-0.1c0-3,0-5.9,0-8.9c0.4-0.1,0.8-0.1,1.2-0.2c0.7,1.7,1.3,3.4,2.2,5.5
					c2.2-2.7,3.9-6.1,6.5-7.5c3-1.6,4.5-3.6,5.8-6.4c0.7-1.5,2-2.8,3-4.2c0.4,0.2,0.9,0.4,1.3,0.6c0-3.5,0-7.1,0-9.8
					c-2.6,0-4.6-0.6-6,0.1c-3.5,1.8-6,4.7-5.3,9c0.6,3.9-2,5.6-4.7,5.2c-5.1-0.7-10.3-1.3-14.3-5.8c-3.6-4.1-7.5-8.1-12.1-11
					c-13.3-8.6-28.1-8.5-43-6.1c-10.8,1.8-19.3,8.1-26.3,16.3c-3.3,3.9-7.5,5.6-12.5,6.2c-6.2,0.7-7,0.2-7.2-5.7
					c-0.2-5.4-2.9-7.8-8.4-7.6c-0.7,0-1.5-0.9-3.1-1.9c0,4.1,0,7.6,0,10c2,1.6,3.5,2.4,4.4,3.6c1,1.4,1.3,3.4,2.4,4.8
					c0.9,1.2,2.5,1.7,3.6,2.8c2.2,2.3,4.3,4.7,6.3,7c0.9-2,1.7-3.6,2.5-5.4c0.8,0.7,1,0.7,1,0.8c0,2.8,0,5.6,0,8.5
					c0.2,0.1,0.5,0.1,0.7,0.2C295.4,611.6,296.1,609.9,296.7,608.2z M270,595.4c-0.4,0.1-0.8,0.3-1.3,0.4c-0.7,1.8-1.8,3.5-2,5.3
					c-0.2,1.9-0.2,4.4,0.9,5.8c6,8.2,12.6,16.1,18.6,24.3c7.1,9.6,15.5,15.8,28.3,15.1c8.5-0.5,17.1,0.4,25.6,0.9
					c1.3,0.1,2.6,1.3,3.9,2c-1.2,1-2.4,2.7-3.7,2.8c-5,0.3-10.1,0.1-15.2,0.1c13.4,4.7,26.7,4.7,41.4,0c-6.7,0-11.9,0.2-17.1-0.1
					c-1.2-0.1-2.3-1.7-3.4-2.5c1.2-0.8,2.4-2.2,3.7-2.3c9.7-0.5,19.4-0.9,29.1-1.2c7.3-0.3,14-1.8,18.9-8c6.9-8.8,14-17.5,21.3-26.1
					c3.9-4.6,6.6-9.2,2.9-15.1c-0.2-0.3-0.2-0.7-0.3-1.1c-0.4-0.1-0.8-0.3-1.2-0.4c-1.1,2.4-2.1,4.8-3.4,7c-0.8,1.4-1.9,3-3.3,3.8
					c-4.2,2.5-7,5.7-7.8,10.7c-0.2,1.6-2.3,2.8-3.4,4.3c-1.9,2.5-3.8,4.9-5.3,7.6c-0.9,1.6-1.1,3.7-1.8,5.5
					c-0.1,0.4-0.7,0.6-1.2,0.9c-1.1-0.7-2.1-1.4-3.3-2.2c-1.6,3.5-2.2,6.6-7.5,3.3c-2.8-1.8-8.2,0.3-12.3,1.3
					c-1,0.3-1.3,3.2-2.2,4.8c-0.5,1-1.4,1.7-2.6,3.1c-0.7-1-1.3-1.8-1.9-2.6c-4.2-5.8-11.3-6.5-16.3-1.6c-2.1,2-4,2-6.1-0.2
					c-4.5-4.6-12.2-3.7-16.1,1.6c-0.6,0.9-1.6,1.5-2.5,2.5c-0.9-1.2-2.2-2.2-2.1-3c0.6-4.8-3.3-3.9-5.7-5.5
					c-5.3-3.5-12.8,5.6-16.5-3.4c-1.2,0.6-2.4,1.2-3.9,2c-0.8-1.9-1.9-3.4-1.9-4.9c-0.2-4.8-1.9-8.1-6.7-9.8c-1.1-0.4-2.1-2.6-2.4-4
					c-0.8-4.8-3.5-7.9-7.5-10.4c-1.4-0.8-2.7-2.3-3.5-3.7C272,600.3,271.1,597.8,270,595.4z M338.1,544.9c-9.4,0-18.5,0-27.8,0
					c0.4,3.6,0.4,6.5,1.1,9.3c0.3,1.1,1.7,2.7,2.7,2.8c8.1,1,16.2,2.4,23.9-1.7C338.1,552.2,338.1,549.1,338.1,544.9z M380.1,545
					c-9.5,0-18.5,0-27.7,0c0,4,0,7.3,0,10.4c7.7,3.9,15.7,2.8,23.6,1.7c1.2-0.2,2.7-1.8,3-3.1C379.7,551.3,379.7,548.5,380.1,545z
					 M473.7,532c-4.7,2.8-5.3,2.7-6.8,12.1c-1.4,8.9-1.4,18.1-2.1,28.2C477.3,560.2,474.4,546.3,473.7,532z M217.4,532.6
					c-4.6,11.6-0.8,31.1,7.9,39c-0.4-8.9-0.3-17.6-1.4-26C223.3,541.1,224.3,534.9,217.4,532.6z M526.6,326.2
					c-2.4-2-5.2-4.3-7.9-6.6c-1.8,1.6-3.5,3.2-5.4,4.9c1.2,0.4,2,0.7,3,1.1c-4.1,1.7-5.5,3.9-3.9,6.2c3.5,5.1,7.2,10.1,10.8,15.1
					c-0.4-2.9-0.3-5.8,2.6-8.1c1.7-1.3,3.1-2.9,4.4-4.5c0.7-0.9,1-2.2,1.5-3.4c-0.3-0.1-0.6-0.2-1-0.4c-3.1,2.7-6.3,5.5-9.4,8.2
					c-0.6-0.6-1.3-1.1-1.9-1.7C521.7,333.4,524.1,329.9,526.6,326.2z M160.1,330.6c-0.5,0.1-0.9,0.2-1.4,0.2
					c0.5,1.1,0.7,2.6,1.6,3.3c3.9,3.3,8,6.4,7,12.5c0,0.2,0.3,0.4,0.2,0.3c3.1-4.6,6-9.3,9.3-13.7c2.7-3.5,2.4-5.4-1.8-7.3
					c-0.1-0.1-0.1-0.5-0.2-0.7c0.7-0.2,1.3-0.4,1.7-0.5c-1.7-1.7-3.3-3.4-4.9-5.1c-2.7,2.3-5.5,4.6-8.2,6.9
					c3.1,3.4,6.9,6.2,6.8,11.1c-0.4,0.4-0.9,0.8-1.3,1.1C165.9,336.1,163,333.3,160.1,330.6z M470.4,500.5
					c-3.2,0.9-6.2,1.7-10.1,2.8c5.7,6.2,5.2,12.6,2.9,19.4C470.8,517.2,473.5,510.2,470.4,500.5z M219.6,500.5
					c-1.3,13.3,0.3,17.8,8.5,22.7c-3.4-7.3-3.5-13.7,2-20C226.1,502.2,223.1,501.4,219.6,500.5z M304,554c0.2-3.5,0.4-6.5,0.6-9.5
					c-7.1-1.8-12.9,1.8-14.6,7.4c-0.2,0.8,0.8,3,1.2,3C295.4,554.8,299.7,554.3,304,554z M386.4,553.7c2.2,0.5,4.3,1.1,6.3,1.3
					c2,0.2,4.1,0.3,6-0.1c0.8-0.2,1.9-2.3,1.6-3c-2.2-6.2-6.5-8.3-14.5-7.3C386,547.4,386.2,550.3,386.4,553.7z M310,651.9
					c0-0.6,0.1-1.1,0.1-1.7c-10.1,2.6-16-4.4-23.2-11.1c0.7,7,4.1,11.1,8.7,12.5C300.1,652.9,305.2,651.9,310,651.9z M381.4,651.3
					c3.3,2.1,11.3,2.2,15.4-0.8c3.3-2.4,6.4-5.2,6.3-10.7c-3.9,3.2-6.9,6.4-10.5,8.3C388.9,649.9,384.6,650.4,381.4,651.3z
					 M236,273.6c3.6,11,2.8,21.3-2.6,31.1C241,294.1,244.5,279.8,236,273.6z M456.8,304.7c-1.5-4.9-3.9-9.7-4.4-14.7
					c-0.5-5.2,0.7-10.6,1.1-15.7C445.2,279.4,450.3,296.8,456.8,304.7z M275,623.6c-3.9-5.3-7.2-9.7-10.4-14.1
					C262.9,612.8,267.9,619.9,275,623.6z M416.1,622.5c6.9-3.1,11.4-9.8,9.7-12.9C422.6,613.9,419.4,618.2,416.1,622.5z"/>
				<path id="XMLID_577_" fill="#FFFFFF" d="M308.1,410.2c-2.2,1.6-5.2,2.7-6.6,4.9c-2.2,3.3-4.9,5-8.5,5.7
					c-4.7,0.9-9.4,1.9-14.1,2.2c-1.4,0.1-2.8-1.9-4.3-3c0.2-0.5,0.4-1.1,0.5-1.6c2.2-0.4,4.3-1.2,6.5-1.2c5.9,0,9.2-3.4,13-7.6
					c10.6-11.9,7.4-25.8,6.4-39.3c-0.1-2.1-1.8-4-2.8-6c-0.4,0.1-0.9,0.2-1.3,0.3c0.2,2.2,0.2,4.4,0.7,6.4
					c3.6,14.2,2.7,31.9-9.4,41.3c-1.5,1.2-3.3,2.1-5.1,2.9c-0.7,0.3-1.7-0.1-2.5-0.1c0.2-0.8,0.2-1.9,0.7-2.5
					c2.3-2.8,4.7-5.6,6.5-8.8c-2.3,1.2-4.6,2.4-7,3.7c-0.4-0.2-0.7-0.4-1.1-0.6c3.9-7.4,7.7-14.9,5.3-24.1
					c-2,17.7-11.5,27.8-29.2,26.5c-9.1-0.7-18-9.6-18-20.4c-3.1,5-2.4,9.1,0.7,13.5c6.3,9,15.8,10.4,25.4,11.9
					c0.6,0.1,1.3,0.2,1.9,0.3c-1.2,3.3-11.9,6.1-17.1,3.3c-5.4-2.9-10.6-6.9-14.7-11.5c-4.1-4.6-6.6-10.6-10-16.3
					c-3.8,4.7-1.5,8.9,1.1,12.5c7.9,11.1,18,18.7,32.4,18.6c0.7,0,1.3,0.1,2,0.2c0.1,0,0.2,0.2,0.4,0.3c-7.3,10-30,0.3-41.2-17.8
					c-0.5,4.9-0.8,9.6-1.6,14.1c-0.8,4.5-2.3,8.9-3.5,13.4c-5.7-1.5-3.3-4.9-3.3-7.2c0.3-9.2-3-17.3-8-27c-2.1,2.8-3.6,4.6-4.8,6.4
					c-3.8,5.6-6.9,11.7-11.3,16.7c-4.4,5-9.9,8.9-15.1,13.1c-0.5,0.4-1.9-0.4-4.2-1c16.6-13.6,22.1-32.3,28.3-51.7
					c-0.9-0.5-2.2-1.1-3.5-1.8c0.3-0.5,0.5-1,0.8-1.5c2.1,0.3,4.3,0.5,6.5,0.8c0.1-0.4,0.3-1.1,0.6-2c1.3,1.1,2.4,2,3.5,3
					c0.2-0.1,0.4-0.2,0.6-0.3c-0.4-0.8-0.7-1.6-1.6-3.6c4.5,0.5,8.4,1,12,1.4c0.2,0.4-0.1-0.2-1.1-1.9c2.7,0.5,4.7,0.9,7.2,1.4
					c0.2-0.9,0.4-2.4,1-5.5c2.8,3.6,5,6.5,7.2,9.3c0.4-0.3,0.8-0.7,1.3-1c-0.5-1.4-1-2.8-1.9-5.2c3.9,1.7,6.8,3,9.7,4.3
					c-0.1-1.4-0.2-2.8-0.3-4.7c1.3,0.5,2.3,0.9,3.3,1.2c-0.1-0.4-0.1-0.7-0.2-1.1c1-0.2,2.4-1,3.1-0.6c1.4,0.9,2.4,2.4,4.4,2.9
					c-0.9-1.7-1.9-3.3-2.8-5c0.3-0.2,0.5-0.4,0.8-0.6c1,0.7,1.9,1.5,2.7,2.1c3.7-5,3.5,3.7,6.2,1c-0.4-0.8-1-2.1-1.6-3.3
					c1.1-1.5,4.9,4.3,3.2-2.3c1.8,1.5,2.9,2.5,5.2,4.4c-1.5-3.1-2.3-4.9-3.2-6.7c0.4-0.3,0.7-0.5,1.1-0.8c1.5,1.6,2.9,3.1,4.3,4.6
					c0.8-0.6,1.8-1.4,3-2.2c-0.5-1-1.4-2.5-2.8-5.1c2.1,0.7,3.2,1.1,4.2,1.4c3.5-6.8,5.2-7.5,9.3-3.7c-4.4-6.2,1.3-9.4,3.5-13.7
					c0.8-1.6,0.2-4,0.3-6c0-0.6,0.2-1.2,0.4-2.1c4,1.1,6.9,6.9,11.8,2.3c0.9,1.1,1.9,2.2,2,2.2c3.1,0.2,5.1,0.4,7,0.5
					c1.6,0.1,3.2,0.2,6.1,0.3c1.9,1.8,4.6,1.4,7.1-2c3.4-4.6,6.8-9.2,10.6-13.7c-3.6,8.3-1.8,17.6-6.2,26.1c-2,3.9-1.8,9.7,1.8,14.6
					c10.6,14.2,12.5,30.2,8.9,47.3c-2.8,13.2-5,26.6-1.7,40.2c0.3,1-1.2,2.5-1.9,3.8c-0.7-0.2-1.3-0.3-2-0.5
					c-1.2-10.1-3.5-20.2-3.4-30.3c0.1-9.2,2.8-18.4,3.9-27.6c0.5-4.4,0.1-9,0.1-14.2c-8.1,4.6-13.1,10.5-14.3,19.1
					C310.2,407.4,309.1,408.8,308.1,410.2z M290.5,399.2c3.5-9.5,3.8-18.9,0-28.3C291.3,380.3,294.6,389.8,290.5,399.2z"/>
				<path id="XMLID_574_" fill="#FFFFFF" d="M379.1,406c-1.2-8.7-6.2-14.5-13.5-18.7c-2.7,11.5,1.2,22.2,2.3,33.2
					c0.8,7.9,0.3,15.9-0.3,23.8c-0.3,4.9-1.9,9.8-2.9,14.7c-0.5,0.2-0.9,0.3-1.4,0.5c-0.7-1.3-2.1-2.7-1.9-3.8
					c3.3-14.1,0.6-27.7-2.1-41.5c-3.1-16-1.5-31.7,8.9-45.1c3.6-4.7,3.3-9.7,2.7-14.6c-0.8-5.9-2.7-11.7-4.4-17.5
					c-1.1-3.9-2.7-7.6-3.6-11.8c4.1,5.5,8.3,11,12.4,16.6c2.3,3.1,4.9,3.3,6.7,1.4c4.6-0.3,8.2-0.5,11.8-0.7
					c0.1,0.4,0.2,0.9,0.3,1.3c1-1.1,2-2.2,3.2-3.5c4.8,4.7,7.5-1.2,11.9-2.3c0,2.3-0.1,4.5,0.1,6.6c0.1,1,0.8,2,1.3,2.8
					c2.5,3.6,6.8,6.6,2.5,11.7c1.9-0.5,3.6-1.5,4.8-1.1c1.4,0.4,2.2,2.2,3.5,3.2c1.1,0.8,2.5,1.4,4.5,2.4c-0.4,0.8-1.1,2.3-1.8,3.8
					c0.7,0.4,1.8,1.1,3.1,1.9c1-1.2,2.5-2.9,3.9-4.5c0.4,0.2,0.8,0.5,1.2,0.7c-0.9,1.8-1.7,3.6-3,6.2c2-1.5,3.2-2.4,4.5-3.4
					c0.2,0.8,0.5,1.6,0.7,2.4c0.8-0.5,1.6-0.9,3.5-2c-1.2,2.4-1.8,3.7-2.7,5.5c2.4-1.5,4.3-2.8,6.3-4c0,0.7,0,1.5,0,2.3
					c1.2-0.9,2.2-1.6,3.2-2.3c0.3,0.2,0.5,0.4,0.8,0.6c-1,1.6-1.9,3.2-2.9,4.8c0.2,0.3,0.4,0.5,0.6,0.8c1.8-1.5,3.6-3.1,6.1-5.2
					c0,1.5,0,2.3,0,3.4c1.2-0.4,2.4-0.8,3.9-1.3c-0.1,1.5-0.2,2.9-0.3,4.7c2.9-1.3,5.7-2.6,9.7-4.4c-0.8,2.3-1.3,3.8-2.3,6.7
					c3.6-3.5,6.2-6,9.2-8.9c0.3,2.2,0.6,3.6,0.8,4.9c2.3-0.6,4.4-1.1,7.4-1.9c-1,1.7-1.5,2.5-1.4,2.3c3.5-0.4,7.4-0.9,12.4-1.6
					c-1.2,2.1-1.6,2.8-2,3.5c0.2,0.2,0.3,0.3,0.5,0.5c1.2-0.9,2.5-1.9,3.7-2.8c0,0.4,0,0.8-0.1,1.1c2.4,0,4.8,0,8.5,0
					c-6.2,3.7-2.8,8-1.5,11c4.5,11.2,9.4,22.3,15.2,32.9c2.1,3.8,7.3,5.8,11.1,8.7c-0.6,0.9-1.2,1.8-1.8,2.8
					c-1.2,0.1-2.6,0.7-3.5,0.2c-10.8-5.6-17.3-15.3-23.6-25.2c-2-3.1-4.2-6.1-6.3-9.2c-0.7,0-1.3,0-2,0c-1.9,4.7-4.3,9.3-5.5,14.2
					c-1.1,4.6-0.7,9.5-1.2,14.3c-0.1,1.4-0.9,2.8-1.7,5.2c-6.6-9.5-5.9-19.1-6.8-28.8c-5.7,8.9-13.3,15.1-22,20.2
					c-4.3,2.5-15.8,1.5-20.2-2.5c17.9,0,30.2-8.2,37.8-23.3c1-2.1,0.1-5.1,0.1-7.7c-0.6-0.1-1.2-0.3-1.8-0.4
					c-1.9,3.8-3.5,7.7-5.6,11.4c-4.1,7.3-10.2,13.2-17.8,15.7c-5.3,1.8-11.8-0.3-17.8-0.6c-0.1,0-0.2-0.9-0.3-1.8
					c4.5-0.8,8.9-1.9,13.4-2.4c10.5-1.1,19.1-14,14.9-23.4c-0.8,11.3-7.7,17-17.2,20.3c-4.5,1.6-17.4-2.7-20.9-5.8
					c-5.5-4.7-6.1-11.3-8.1-17.4c-0.3-1-0.7-1.9-1.4-2.8c-1.6,8.6,1.2,16.1,5.9,23.3c-0.4,0.3-0.8,0.6-1.2,0.9
					c-2.3-1.1-4.7-2.3-8.3-4c2.9,3.5,5.3,6.2,7.5,8.9c0.6,0.8,0.7,1.9,1,2.9c-1,0-2.2,0.3-3-0.1c-9.5-4.5-14.2-12.8-15.3-22.5
					c-0.8-7.7-1.5-15.8,2.1-23.4c0.6-1.2-0.3-3.1-0.6-4.7c-0.6-0.1-1.2-0.1-1.9-0.2c-0.9,5.2-1.8,10.4-2.7,15.7
					c-2.1,12.2,1.1,22.8,9.1,32.1c3,3.4,6.6,5.3,11.3,5.2c2.1,0,4.1,0.7,6.2,1c-0.7,4.5-4.1,6.6-7.9,5.5c-4.6-1.3-9.5-1.9-13.7-3.9
					c-2.6-1.3-4.1-4.8-6.4-6.9c-1.3-1.2-3.2-1.8-4.8-2.6C381.2,408.8,380.2,407.4,379.1,406z M400.1,371.1c-4.2,6.2-4,22.8,0.2,28
					C395.9,389.8,399,380.5,400.1,371.1z"/>
				<path id="XMLID_573_" fill="#FFFFFF" d="M308.2,495.5c4.4,2.3,7.7,5.1,10.2,9c2.4-1.4,7.2,1,7.8,4c0.3,1.5,2.7,2.3,4.3,1.8
					c2.9-0.8,5.9-1.3,8.9-1.9c0.1,0.4,0.3,0.8,0.4,1.2c0.8-2.1,1.6-4.1,2.5-6.2c0.4-0.1,0.8-0.2,1.2-0.2c0.4,2.9,0.8,5.8,1.2,8.7
					c0.3,0.1,0.6,0.1,0.9,0.2c0.5-3,1-5.9,1.5-8.9c0.4,0.1,0.7,0.1,1.1,0.2c0.8,2.1,1.6,4.1,2.4,6.2c0.2-0.4,0.3-0.7,0.5-1.1
					c1.4,0.5,3.1,0.7,4.1,1.6c2.5,2.1,8.2,0.9,9.1-2.1c0.7-2.3,5.6-4.4,7.5-3.2c2.9-3.7,5.8-7.3,11.1-8.6c0.4-3.7,3.4-4.8,7.3-4.4
					c4.7,0.5,9.5,1.2,14.2,1.6c6.8,0.5,10.1,4.9,12.7,10.5c2.7,6,1.2,10.7-4.7,13.4c-1.8,0.8-3.6,1.3-5.5,2c0.5-2.8,1.1-5.6,1.4-8.3
					c0.3-2.9-1.2-3.2-4-3.2c-6.1,0-10.3,2.9-14.8,6.6c-2.9,2.3-7.3,2.7-10.8,4.4c-7.8,3.7-15.9,7.7-24.6,5.4
					c-6.2-1.6-11.7-1.2-17.8,0.1c-8.6,1.8-16.4-1.9-24.1-5.3c-6-2.6-11.9-4.9-17.2-9.1c-2.5-2-7-1.7-10.7-2
					c-0.6-0.1-1.9,1.9-1.9,2.8c0.1,2.7,0.8,5.3,1.3,8.3c-5-0.3-8.5-3.9-11.9-7.5c-0.6-0.6,0.1-2.8,0.5-4.1c2.3-6.5,4.4-13.1,13-13.8
					c5.8-0.5,11.6-1.8,17.4-1.9C304.5,491.5,306.3,494.1,308.2,495.5z"/>
				<path id="XMLID_572_" fill="#FFFFFF" d="M379.1,406c1,1.4,2.1,2.8,3.1,4.2c5.5,8.6,12.3,16.2,22.1,19.3
					c5.7,1.8,12.2,1.6,18.3,1.6c10.1,0,20.2-1.1,30.2-0.9c10.6,0.2,20.7,3.1,30.1,8c2.2,1.1,4,3.3,6.6,5.5c-1.7,0.2-2.4,0.5-2.9,0.3
					c-13.9-5.1-28.6-6.3-43-5.6c-14,0.6-27.8,3.9-41.7,5.7c-1.9,0.3-5.1,0-5.9-1.2c-5.5-8.6-10.6-17.6-15.8-26.4
					c-2.2-3.8-4.4-7.6-6.6-11.5c-0.7-1.3-1.2-2.8-2.1-5.2C374.7,402.4,376.9,404.2,379.1,406z"/>
				<path id="XMLID_571_" fill="#FFFFFF" d="M308.1,410.2c1.1-1.4,2.1-2.8,3.2-4.2c2.2-1.8,4.5-3.6,6.7-5.4c0.3,0.1,0.6,0.2,0.8,0.4
					c-2.2,4.2-4.3,8.5-6.7,12.6c-5.6,9.6-11.2,19.1-17.1,28.5c-0.9,1.5-4.2,2.7-5.9,2.2c-11.4-3.2-23.1-4.2-34.9-5.4
					c-11-1.1-21.5-0.5-32.2,1.8c-6.5,1.4-13.3,1.7-19.8,2.4c3.7-6.4,11.1-7.8,17.6-9.8c12.7-3.9,25.8-3.8,39.1-2.5
					c8.5,0.8,17.5,0.8,25.8-1c9-1.9,15.9-8.2,20.8-16.2C306.2,412.4,307.2,411.3,308.1,410.2z"/>
				<path id="XMLID_570_" fill="#FFFFFF" d="M390.5,322.9c-1.5-3.4-3-6.8-4.6-10.2c0.3-0.2,0.6-0.5,0.9-0.7c2.5,1.9,4.8,4.2,7.5,5.6
					c3.2,1.6,6.7,3.3,10.1,3.3c9.6,0.1,15.7,4.3,19.5,13c6.7,15.4,18.9,24.2,34.9,28.2c6.1,1.6,12.2,3,18.2,5
					c-7.1,1.9-14,0.8-20.9-1.3c-17.1-5.3-30.8-15-40.2-30.6c-1.5-2.5-5.2-4.1-8.3-5c-5-1.6-10.9-0.6-14.7-5.6
					c-0.6-0.8-2.4-0.7-3.6-0.9C389.8,323.4,390.2,323.2,390.5,322.9z"/>
				<path id="XMLID_569_" fill="#FFFFFF" d="M304.5,311.6c-1.5,3.8-3.1,7.6-4.9,12.1c-0.9,0.6-2.6,2.1-4.6,2.9
					c-3.9,1.4-8,2.7-12.1,3.4c-3.9,0.7-6.9,1.9-9.1,5.6c-10.7,18.4-27.8,27.7-47.8,32.4c-2.5,0.6-5.3,0.1-8,0.1
					c-1.6,0-3.2-0.1-5.1-1.3c1.4-0.5,2.7-1.1,4.1-1.5c9.5-2.8,19.6-4.3,28.3-8.7c9-4.5,16.5-11.8,20.8-21.6
					c1.8-4.2,2.8-9.5,8.4-10.8c2.1-0.5,4.4-0.2,6.6-0.4c7.5-0.6,13.1-4.9,18.5-9.6c1.2-1,2.4-2.1,3.5-3.2
					C303.7,311.2,304.1,311.4,304.5,311.6z"/>
				<path id="XMLID_568_" fill="#FFFFFF" d="M170.6,447.3c-0.5-5,2.7-7.4,5.6-10.2c4.1-4,7.4-9,11.6-12.9c3.6-3.3,8.2-5.7,12.3-8.5
					c-0.6-1-1.2-1.9-1.9-2.9c2.4,2.8,5.1,5.5,7.2,8.5c0.4,0.6-1.3,3.8-1.8,3.7c-8.1-0.7-12.7,5.2-18.1,9.4
					C180.5,438.3,175.7,442.8,170.6,447.3z"/>
				<path id="XMLID_567_" fill="#FFFFFF" d="M492.1,412.6c9.4,12.1,22.2,20.3,27.6,34.4c-6.6-5.6-13.1-11.3-19.9-16.7
					c-3.6-2.9-7.3-5.9-12.6-5.3c-2.6,0.3-3.8-1.7-2.3-3.9C486.8,418.2,489.4,415.6,492.1,412.6z"/>
				<path id="XMLID_501_" fill="#FFFFFF" d="M623.1,346.6c3.1-1.2,6.2-2.5,9.2-3.7c0-0.2-0.1-0.4-0.1-0.6
					c-8.6,1.9-17.1,3.9-25.7,5.8c-0.2-0.4-0.3-0.9-0.5-1.3c1.7-0.8,3.4-1.8,5.2-2.3c14.5-4,28.8-8.4,41.2-17.3
					c4.7-3.4,8.9-7.7,14.3-12.4c-2.6,8.6-8.7,12.9-13.9,18.3c2.2-1.3,4.4-2.6,6.6-4C658.9,335.8,633.6,348.7,623.1,346.6z"/>
				<path id="XMLID_500_" fill="#FFFFFF" d="M596.8,380.7c-14.3,7.9-29.8,7.9-44.2,11.5c-0.3-0.3-0.6-0.7-0.8-1c1-1,2-2.7,3.2-3
					c13.3-2.8,26.6-5.4,39.9-8.1C595.1,380.1,595.4,380.3,596.8,380.7z"/>
				<path id="XMLID_499_" fill="#FFFFFF" d="M650.2,341.7c-4.2,6.3-17.1,11.1-22.2,8.1C635.4,347.1,642.6,344.5,650.2,341.7z"/>
				<path id="XMLID_498_" fill="#FFFFFF" d="M597.7,377.4c-5.9,1.6-11.8,3.1-17.7,4.7c-1.9,0.5-3.7,1.4-5.5,1.8
					c-0.7,0.1-1.6-0.6-2.4-0.9c0.4-0.6,0.7-1.6,1.2-1.7c8.1-1.9,16.1-3.6,24.2-5.4C597.6,376.3,597.7,376.9,597.7,377.4z"/>
				<path id="XMLID_497_" fill="#FFFFFF" d="M574.2,376.4c4.2-0.9,8.3-1.8,12.5-2.6c0.1,0.6,0.2,1.1,0.4,1.7
					c-3.6,3.6-8.8,0.1-12.5,3.2C574.5,377.9,574.3,377.1,574.2,376.4z"/>
				<path id="XMLID_496_" fill="#FFFFFF" d="M564.5,352.7c4.7,0,9.3,0,13.6,0C575.4,355.4,571.5,355.6,564.5,352.7z"/>
				<path id="XMLID_495_" fill="#FFFFFF" d="M30.3,328.6c2.8,1.8,5,3.1,7.1,4.5c-4.9-5.5-11.2-9.7-13-17.6c8,8.5,17,15.6,28,19.7
					c10.5,3.9,21.1,7.7,31.7,11.6c-0.1,0.4-0.2,0.8-0.3,1.2c-8.6-1.9-17.1-3.8-25.7-5.7c-0.1,0.2-0.2,0.4-0.2,0.6
					c3.1,1.2,6.2,2.5,9.7,3.9C61.1,350.5,32.1,336.5,30.3,328.6z"/>
				<path id="XMLID_494_" fill="#FFFFFF" d="M95,380.9c13.5,2.4,27,4.8,40.5,7.4c1.2,0.2,2.2,1.8,2.9,3.3
					C123.4,388.8,108,388.6,95,380.9z"/>
				<path id="XMLID_493_" fill="#FFFFFF" d="M62.5,349.9c-5.6,2.9-18.4-2-22.2-8.1C47.6,344.5,54.9,347.1,62.5,349.9z"/>
				<path id="XMLID_492_" fill="#FFFFFF" d="M92.8,375.8c6.6,1.5,13.2,2.9,19.8,4.5c2,0.5,3.8,1.7,5.7,2.5c-2.1-0.2-4.2-0.2-6.3-0.6
					c-6.6-1.5-13.1-3.1-19.6-4.7C92.5,376.9,92.7,376.3,92.8,375.8z"/>
				<path id="XMLID_491_" fill="#FFFFFF" d="M115.9,378.1c-4-1.7-8.9,0.4-12.7-2.4c0.1-0.6,0.3-1.2,0.4-1.9
					c4.2,0.9,8.4,1.8,12.6,2.6C116.1,377,116,377.5,115.9,378.1z"/>
				<path id="XMLID_490_" fill="#FFFFFF" d="M125.7,354c-4.6,0-9.3,0-13.9,0c0-0.4,0-0.8,0-1.3c4.7,0,9.3,0,14,0
					C125.8,353.1,125.7,353.6,125.7,354z"/>
				<path id="XMLID_489_" fill="#FFFFFF" d="M134,257.9c-10.6-2-29.3-35.3-26.8-47.6C114,227.7,120.8,244.2,134,257.9z"/>
				<path id="XMLID_488_" fill="#FFFFFF" d="M171.3,296.2c2.5,2.2,5,4.4,8.5,7.4c-8-0.3-18.2-10.5-23.5-18.8
					c0.3-0.4,0.6-0.7,0.9-1.1c4,3.4,8,6.9,11.9,10.3C169.9,294.7,170.6,295.4,171.3,296.2z"/>
				<path id="XMLID_487_" fill="#FFFFFF" d="M136.2,254.4c-9.9-6-15.5-14.8-17.5-26C124.5,237.1,130.4,245.8,136.2,254.4z"/>
				<path id="XMLID_486_" fill="#FFFFFF" d="M116.4,244.5c7.2,8.3,14.5,16.6,21.7,24.9C128.3,263.3,119.9,256,116.4,244.5z"/>
				<path id="XMLID_485_" fill="#FFFFFF" d="M171.3,296.2c-0.7-0.7-1.4-1.4-2.2-2.1c-0.1-1-0.2-2.1-0.3-3.5c3.5,2.1,6.6,4,9.6,5.8
					l-0.2-0.2c2.2,2.1,4.5,4.2,6.7,6.3c-0.1,0.2-0.2,0.3-0.3,0.5C180.2,300.7,175.8,298.4,171.3,296.2z"/>
				<path id="XMLID_484_" fill="#FFFFFF" d="M178.5,296.3c-0.4-0.8-0.9-1.7-1.3-2.5c0.3-0.5,0.7-0.9,1-1.4c4.7,3.1,9.4,6.1,14.2,9.2
					c-0.2,0.4-0.5,0.9-0.7,1.3c-4.4-2.3-8.9-4.5-13.3-6.8C178.3,296.2,178.5,296.3,178.5,296.3z"/>
				<path id="XMLID_483_" fill="#FFFFFF" d="M556.5,257.9c13-13.7,20-30.1,26.8-47.8C585.7,222.7,567,255.9,556.5,257.9z"/>
				<path id="XMLID_482_" fill="#FFFFFF" d="M521.2,294c3.9-3.5,7.9-6.9,11.8-10.4c-1.2,6.5-14.8,20.2-22.6,19.8
					c3.5-2.9,6-5.1,8.6-7.3C519.8,295.4,520.5,294.7,521.2,294z"/>
				<path id="XMLID_481_" fill="#FFFFFF" d="M553.7,255.1c6.2-9.3,12-17.9,17.7-26.4C572.5,235.9,563.4,250.1,553.7,255.1z"/>
				<path id="XMLID_480_" fill="#FFFFFF" d="M574,244.4c-3.6,11.6-12.2,18.7-21.8,25C559.5,261.1,566.8,252.8,574,244.4z"/>
				<path id="XMLID_479_" fill="#FFFFFF" d="M521.2,294c-0.7,0.7-1.4,1.4-2.1,2.2c-4.4,2.3-8.8,4.5-13.2,6.8
					c-0.1-0.1-0.3-0.3-0.4-0.4c2.2-2.1,4.4-4.2,6.6-6.3c0,0-0.2,0.2-0.2,0.2c3-1.8,5.9-3.6,9.5-5.8
					C521.3,291.9,521.3,292.9,521.2,294z"/>
				<path id="XMLID_478_" fill="#FFFFFF" d="M512,296.2c-2.7,1.5-5.3,3.1-8,4.5c-1.7,0.9-3.7,1.4-6,1c4.7-3.1,9.3-6.2,14-9.3
					c0.3,0.4,0.7,0.8,1,1.1c-0.4,0.9-0.8,1.9-1.2,2.8C511.9,296.4,512,296.2,512,296.2z"/>
				<path id="XMLID_477_" fill="#FFFFFF" d="M325.5,664.2c-1.4,1.4-2.8,2.6-5.1,4.8c1.9-0.7,3-0.7,3.5-1.3c3.4-3.4,6.8-5.2,11.6-2.1
					c1.7,1.1,4.7,0.2,7.6,0.2c-0.8,0.9-1.6,1.9-2.4,2.8c2.9,0,5.8,0,8.8,0c-0.7-0.8-1.6-1.8-1.8-2.1c3.4-0.8,6.9-1.9,10.4-2.2
					c1.9-0.2,4,0.6,5.7,1.4c1.7,0.8,3,2.2,5.2,2.5c-1.6-1.1-3.1-2.3-4.9-3.6c4.8-3.6,8.7-1.7,11.8,0.1c5.1,2.9,9.8,6.6,14.1,10.6
					c0.9,0.9-0.5,4.4-0.9,6.6c-0.5,0-1,0-1.5,0c1.2,0.7,2.4,1.4,3.6,2.1c-1,2.1-1.8,3.9-2.7,5.7c-5.9,0.9-9-3.7-12.6-7.2
					c-1-1-2-2.8-3.5-0.5c-0.1,0.1-1.3-0.3-1.6-0.7c-1.9-3-5.4-3.5-7.9-5.3c-4.2-3-8.3,1.9-11.7-1.3c-1,1.1-2,2.2-3.3,3.5
					c-0.9-1-1.8-2-2.9-3.2c-0.9,1.2-1.7,2.2-3,3.8c-0.7-6.1-4.9-2.3-7.2-3.5c-3.7-2-6.3,2-8.6,1.4c-5.3-1.3-4.8,4.1-7.7,4.7
					c-1.2,0.1-2.8-0.2-3.6,0.4c-4.1,3.3-6.9,8.7-13.5,7.6c1.7-2.1-6.6-5.5,0.6-7.2c-1.2-2-2.3-4-3.4-5.8
					C317.3,661.6,319,660.8,325.5,664.2z"/>
				<path id="XMLID_476_" fill="#FFFFFF" d="M314.5,661.3c-4.5,3.5-9,7.1-13.6,10.4c-0.5,0.4-3.5-1.3-3.4-1.6c0.5-2.4,1.2-4.9,2.4-7
					c0.9-1.6,2.2-3.1,4.6-0.8c0.9,0.9,3.7,0,5.5-0.4c1.3-0.3,2.5-1.2,3.7-1.8C314,660.5,314.2,660.9,314.5,661.3z"/>
				<path id="XMLID_475_" fill="#FFFFFF" d="M376.6,660.1c3.5,1.3,6.9,5.1,11,1.2c0.2-0.2,3.1,1.6,3.9,3c1,1.7,1.3,3.9,1.3,5.9
					c0,0.5-3.1,1.7-3.9,1.2c-4.5-3.1-8.7-6.7-13.1-10.1C376.1,660.9,376.4,660.5,376.6,660.1z"/>
				<path id="XMLID_474_" fill="#FFFFFF" d="M259,582.7c-2.7,17.1-5.4,34.2-8.1,51.4c-0.6,0-1.2-0.1-1.8-0.1c0-1.9-0.7-4.1,0.1-5.6
					c2.3-4.2-2.7-6.6-2.1-10.2c-6.2-0.7-2.4-5.2-3-7.9c-1.3-0.6-2.9-0.9-3.6-1.9c-0.4-0.5,0.6-2.3,1.3-3.3c2.1-2.7,4.4-5.2,6.9-8.2
					c-0.6,6.3-1.2,12-1.8,17.8c0.3,0,0.7,0.1,1,0.1c1.2-8.5,2.4-17,3.6-25.6c0.5,0,1,0,1.5,0c-0.3,4.6-0.5,9.1-0.8,13.7
					c0.1,0,0.2,0,0.4,0c1.7-6.8,3.4-13.7,5-20.5C258,582.6,258.5,582.6,259,582.7z"/>
				<path id="XMLID_473_" fill="#FFFFFF" d="M432.8,582.5c1.7,6.8,3.3,13.7,5,20.5c0.2,0,0.3,0,0.5,0c-0.4-4.5-0.7-9-1.1-13.6
					c0.5-0.1,1.1-0.1,1.6-0.2c1.2,8.6,2.4,17.1,3.6,25.7c0.3,0,0.6,0,0.9-0.1c-0.6-5.8-1.1-11.6-1.7-17.6c2.7,3.1,5.4,5.9,7.8,8.9
					c0.5,0.6,0.7,2.2,0.2,2.6c-0.7,0.7-2,0.9-3.6,1.5c0.1,0.8,0.4,2.2,0.5,3.7c0.1,0.9,0.1,2.3-0.4,2.6c-7.2,3.9-4.6,10.7-5.3,16.6
					c0,0.3-0.4,0.5-2,0.9c-1-8.5-1.7-17-3-25.4c-1.4-8.7-3.4-17.3-5.1-25.9C431.5,582.7,432.2,582.6,432.8,582.5z"/>
			</g>
		</g>
	</g>
	<g id="XMLID_28_">
		<path id="XMLID_31_" fill="#FFFFFF" d="M343.1,254.1c0.5,3.1,1.2,6.8,1.9,10l8.6-42.8l-7-28.6c0,0-6.7,20.3-7.9,43.5
			C338.6,236.2,341.4,243.6,343.1,254.1C343.1,254.1,343.1,254.1,343.1,254.1z"/>
		<path id="XMLID_54_" fill="#FFFFFF" d="M413.7,271.5c-5.5-2.8-11.1-5.5-16.7-8.2c1.9-2.9,3.6-6,5-9.2c11.9-0.9,23.5-3.1,35.1-5.9
			l15.5-3.2l-28-2.3l0,0c-6.2-0.5-12.4-1-18.5-1.3c0.7-3.4,1.1-6.8,1.2-10.4c10.7-5.3,20.7-11.7,30.3-18.7l13.1-8.7l-26.8,8.4h0
			c-5.9,2-11.8,3.6-17.7,5.6c-0.9-4.9-2.4-9.6-4.4-14c0.7-0.8,1.3-1.7,1.9-2.6c0.1-0.1,0.2-0.3,0.3-0.4c1.7-2.3,3.4-4.7,5-7.2
			c0.1-0.2,0.3-0.4,0.4-0.6c0.6-1,1.3-1.9,1.9-2.9c0.2-0.3,0.3-0.6,0.5-0.9c0.7-1.2,1.1-2.3,2.1-3.5c0,0,0-0.1,0-0.1
			c0,0,0.1-0.5,0.1-0.5c0,0,0,0,0,0c0,0,0.1,0.1,0.1,0c1.5-2.5,2.9-4.8,4.3-7.3c0-0.1,0.1,0,0.1-0.1c0,0,0,0,0,0
			c0-0.1,0.1-0.1,0.1-0.2c0,0,0,0,0,0c0.7-1.3,1.4-2.6,2.2-4l8-13.6l-20.4,19.2l0,0c-0.2,0.2-0.5,0.4-0.7,0.6
			c-0.9,0.8-1.8,1.7-2.7,2.5c-0.2,0.2-0.4,0.4-0.6,0.6c-1,1-2.1,2-3.1,3c0,0,0,0,0,0c0,0-0.1,0.1-0.1,0.1c0,0,0,0-0.1,0.1
			c-2.1,2-4.1,4-6.1,6c-2.1-2.8-4.4-5.4-6.9-7.8c3.3-11.5,5.2-23.2,6.4-35l2.3-15.6l-11.8,25.5l0,0c-2.6,5.6-5.2,11.3-7.6,17
			c-3-1.8-6.1-3.4-9.3-4.7c-1.3-11.9-3.9-23.4-7.1-34.9l-3.8-15.4l-1.3,28l0,0c-0.3,6.2-0.6,12.4-0.7,18.6
			c-3.3-0.6-6.8-0.9-10.3-0.9c-0.1,0-0.2,0-0.2,0c-5.6-10.5-12.4-20.3-19.7-29.6l-9.2-12.8l9.2,26.5v0c2,5.9,4.2,11.7,6.4,17.5
			c-3.4,0.8-6.7,1.8-9.9,3.1c-9.2-7.6-19.1-14.1-29.4-20.1l-13.4-8.4l18.5,21.1l0,0c4.1,4.7,8.2,9.3,12.4,13.8
			c-2.9,2-5.6,4.2-8.1,6.6c-11.4-3.7-23-6-34.8-7.6l-15.6-2.8l25.1,12.6l0,0c5.5,2.8,11.1,5.5,16.7,8.2c-1.9,2.9-3.6,6-5,9.2
			c-11.9,0.9-23.5,3.1-35.1,5.9l-15.5,3.2l28,2.3l0,0c6.2,0.5,12.4,1,18.5,1.3c-0.7,3.4-1.1,6.8-1.2,10.4
			c-10.7,5.3-20.7,11.7-30.3,18.7l-13.1,8.7l26.8-8.4h0c5.9-2,11.8-3.7,17.7-5.7c0.9,4.9,2.4,9.6,4.4,14c-7.3,9.4-13.5,19.5-19.1,30
			l-8,13.7l20.4-19.2l0,0c4.5-4.2,9-8.5,13.4-12.9c2.1,2.8,4.4,5.4,6.9,7.9c-3.3,11.5-5.2,23.2-6.4,35l-2.3,15.6l11.8-25.5l0,0
			c2.6-5.6,5.1-11.2,7.6-16.9c3,1.8,6.1,3.4,9.4,4.7c1.3,11.8,3.9,23.4,7.1,34.8l3.8,15.4l1.3-28l0,0c0.3-6.2,0.6-12.4,0.7-18.5
			c3.3,0.6,6.8,0.9,10.3,0.9c0.1,0,0.1,0,0.2,0c5.6,10.5,12.4,20.2,19.6,29.6l9.4,12.8l-9.2-26.5v0c-3-5.8-4.2-11.7-6.4-17.4
			c3.5-0.8,6.8-1.8,10-3.1c9.1,7.6,19,14.1,29.3,20.1l13.4,8.4l-18.5-21.1l0,0c-4.1-4.7-8.2-9.3-12.4-13.8c2.9-2,5.6-4.2,8.1-6.6
			c11.3,3.6,23,6,34.7,7.6l15.6,2.8L413.7,271.5L413.7,271.5z M318.5,191.8c-0.2,0.2-0.3,0.5-0.5,0.7c-2,3.3-3.9,7-4.5,10.8
			c-2.1,12-7.1,22.6-13.7,32.6c-0.3-2.2-0.5-4.5-0.5-6.9C299.3,213.8,306.9,200.2,318.5,191.8z M329.6,225.1c0,0,11.7-21.5,9.8-31.9
			c-0.8-1.6-2.3-2.6-4.6-3.2c-1.4-0.3-2.8-0.4-4.1-1c-2-0.9-4-1.2-5.8-1.1c6.1-3,13-4.7,20.3-4.7c16.1,0,30.3,8.3,38.4,20.9
			c-8.2,9-16,18.5-22.9,28.8c0,0-11.7,21.5-9.8,31.9v0c0.8,1.6,2.3,2.6,4.6,3.2c1.4,0.3,2.8,0.4,4.1,1c2,0.9,4,1.2,5.8,1.1
			c-6.1,3-13,4.7-20.3,4.7c-16.2,0-30.4-8.5-38.6-21.2C314.9,244.4,323.8,233.7,329.6,225.1z M371.7,266.3c0.2-0.2,0.3-0.5,0.5-0.7
			c2-3.3,3.9-7,4.5-10.8c2.1-12,7.1-22.6,13.7-32.6c0.3,2.2,0.5,4.5,0.5,6.9C390.9,244.4,383.3,258,371.7,266.3z"/>
	</g>
	<g id="XMLID_44_">
		<path id="XMLID_196_" fill-rule="evenodd" clip-rule="evenodd" fill="#FFFFFF" d="M124.7,146.3c0.4-0.4,0.8-0.8,1.1-1.2
			C128,142.7,125.3,145,124.7,146.3z"/>
		<path id="XMLID_195_" fill-rule="evenodd" clip-rule="evenodd" fill="#FFFFFF" d="M119,151.8c0.8-0.9,3.1-2.3,3-3.5
			C120.9,149.8,119.4,150.7,119,151.8z"/>
		<path id="XMLID_194_" fill-rule="evenodd" clip-rule="evenodd" fill="#FFFFFF" d="M136.9,130.4c0.2-0.5,0.9-0.7,1.4-1.2
			C140.6,126.8,137.2,128.9,136.9,130.4z"/>
		<path id="XMLID_193_" fill-rule="evenodd" clip-rule="evenodd" fill="#FFFFFF" d="M122.5,148.4c0.4-0.6,2.1-1.2,1.6-2
			C123.6,147.1,122.4,147.8,122.5,148.4z"/>
		<path id="XMLID_192_" fill-rule="evenodd" clip-rule="evenodd" fill="#FFFFFF" d="M266.1,7.8c0.2-0.5,0.4-1.4,0.4-2
			c-0.1,0.4-0.3,0.9-0.4,1.3C265.8,8.3,265.8,8.3,266.1,7.8z"/>
		<path id="XMLID_189_" fill-rule="evenodd" clip-rule="evenodd" fill="#FFFFFF" d="M221,106.7c3.7-6.6,5.5-14.1,9.6-21.1
			c3.4-5.8,5.7-10.1,8.9-14.9c0.1-0.7-0.4-1.1-0.3-1.5c3.5-5.9,7.9-12,11.2-16.9c3.2-4.8,6-9.7,8.4-14.8c2.5-5,4.7-10.1,6.8-15.4
			c0.2-0.7-0.8,0.6-0.6-0.1c0.2-1.3,0.7-2.5,1.2-3.7c0.5-1.2,1.1-2.6,1.3-4.2c-3.2,4-5.5,8.3-8.7,13.6c0.3-0.8,1.8-3.2,1.2-2.8
			c-1.6,2.2-2.4,5.1-4,5.8c0.5-2,2.4-3.1,2-5c-1.4,2.5-2.9,4.5-4.1,6.9c-0.4,0-0.4,0.4-0.6-0.1c-10.3,13.9-23,31.6-33.8,48.7
			c-1.7,2.7-3.4,5.5-4.8,8.3c0.5-2.7,1-5.3,1.5-7.6c2.4-12.7,5.9-25.8,6.6-36c0.1-2-0.4-3.9-0.9-5.8c1-2.7,1.3-5.6-1.5-8
			c-2.4-2.1-9.5-1.5-6.8-4.4l-1.2,1.4c-0.2-0.5-0.1-1-0.9-1.1c-8.3-0.8-11.7,3.4-15.5,10.1c-2.2,3.8-3.6,8.2-5.3,12.6
			c-1.6,4.4-3.4,8.7-6.1,12.6c-4.5,6.4-7.7,11.1-12.1,16.1c-0.2,0.9,0.6,1.6,0.5,2.1c-4.9,6.3-11.1,12.3-15.9,17.2
			c-9.3,9.7-16.4,20.1-24.4,30.4c-0.4,0.7,1-0.4,0.6,0.3c-1.3,2.8-3.8,4.5-5.6,7.9c5-3.2,9.1-7.3,14.4-12.2c-0.6,0.8-3.1,3-2.2,2.8
			c2.5-2,4.2-5,6.4-5.3c-1.1,2.2-3.6,2.8-3.8,5c2.5-2.3,4.8-4.2,6.8-6.6c0.4,0.2,0.5-0.3,0.7,0.3c8.1-6.3,17-13.7,25.9-21.6
			c8.9-7.9,17.8-16.5,25.7-25.3c1.7-1.9,3.3-3.8,4.8-5.8c-1.6,6.6-2.6,13.5-3.4,20.2c-0.3,2,0.1,4-0.3,6.1c-0.3,1.6-1,3.1-1,4.6
			c0,1.5,0.5,3.1,0.4,4.6c-0.1,2.7-0.2,5.1,0.3,7.3c0.2,1.2,0.7,2.4,1.3,3.5c0,0.9,0.2,1.6,0.9,2.2c1.2,0.9,5.9-1.2,3.9,1.5l1-1.3
			c0.1,0.3,0,0.7,0.5,0.6C215,116.2,217.8,112.4,221,106.7z M217.1,48.8C217.1,48.8,217.1,48.8,217.1,48.8c0.3-0.4,0.5-0.6,0.7-0.9
			c-0.2,0.5-0.5,1-0.7,1.5C217.1,49.2,217,49,217.1,48.8z"/>
		<path id="XMLID_188_" fill-rule="evenodd" clip-rule="evenodd" fill="#FFFFFF" d="M261.8,21.8c-0.1,0.5-0.6,0.8-0.9,1.4
			C259.6,25.6,261.9,23.2,261.8,21.8z"/>
		<path id="XMLID_187_" fill-rule="evenodd" clip-rule="evenodd" fill="#FFFFFF" d="M266.9,5.4c0.1-0.6,0.6-1.5,0.3-1.9
			C267.2,4,266.2,5,266.9,5.4z"/>
		<path id="XMLID_186_" fill-rule="evenodd" clip-rule="evenodd" fill="#FFFFFF" d="M268,1.5c0.1-0.6,0.2-1.1-0.1-1.5
			c0,0.4-0.3,1.1-0.4,1.7c-0.1,0.6-0.3,1.3,0.1,1.7C267.7,2.7,267.9,2,268,1.5z"/>
		<path id="XMLID_185_" fill-rule="evenodd" clip-rule="evenodd" fill="#FFFFFF" d="M279.6,103.2c-0.1-0.3,0.2-0.7,0.3-1.1
			C280.1,100.2,279,102.3,279.6,103.2z"/>
		<path id="XMLID_179_" fill-rule="evenodd" clip-rule="evenodd" fill="#FFFFFF" d="M280,100.9c0.6-1.8,0.2-3.9,1.4-4.8
			c0.4,1.4-0.9,2.6,0.2,3.8c0.4-2,0.8-3.7,0.9-5.6c0.4-0.1,0.2-0.4,0.6-0.1c1.1-3.6,2.3-7.6,3.4-11.7c2.6-0.5,4.9-0.9,7.3-2.1
			c6,0.1,12.2-3.1,17.8-3.7c1.8-0.2,3.8,0.9,5.3-1c-3.8-0.6-7.6-0.9-11.5-1.2c-3.6-0.1-7.4-0.8-11.2-0.7c-1.8,0.1-3.7,0.3-5.5,0.6
			c1.7-6.5,3.3-13.2,4.9-19.5c0.9-3.6,1.6-7.3,1.9-10.7c0.1-1.1,0.1-2.2,0.2-3.3c0-0.8,0.1-1.5,0.3-2.2c0.7-0.8,1.3-1.6,1.5-2.8
			c0.1-0.6,0.1-1.2-0.1-2c0-0.1,0-0.2,0.1-0.2c0.1-0.3,0.2-0.7,0.2-1c0.1-0.4,0.2-0.7,0.2-1.1c0.2-1.4,0-2.7-1.3-3.6
			c-1.3-0.8-5.1,0.5-3.8-1.5l-0.6,1c-0.1-0.3-0.1-0.5-0.5-0.5c-0.6,0.1-1.2,0.2-1.7,0.4c-2.9,0-5.2,2.8-7.6,4.6
			c-2.4,1.8-4.9,3.6-6.6,5.1c-6.1,5.4-11.6,12.8-15.2,18.8c-1.5,2.6-3.3,4.7-4.8,7.1c-5.9,9.6-11.6,18.1-15.9,26.9
			c-1.1,0.3-0.8,1.1-1.2,1.8c-0.3,0.5-0.5,0.9-0.8,1.4c-1.1,0.9-2.2,1.8-3,2.8c-0.3,0.4-0.6,0.8-0.9,1.3c-0.2,0.4-0.4,0.9-0.6,1.4
			c-0.2,0.7-0.3,1.6-0.1,2.3c-4.8,8.2-9.7,16.7-14.6,25.5c-1.4,3.1-3.9,7.1-5.3,10.3c3.7-5.3,6.9-12.4,10.5-18.3
			c1.7-2.8,3.6-7.3,5.7-8.4c-1.5,4.2-5.7,8.7-6.6,13.1c3.7-5.6,5.9-10.4,9.4-15.7c-0.7,1.2-1,2.6-1.7,3.7c-0.7,1.2-2.1,2-1.9,3.4
			c-0.7,0.8-1.4,1.7-1.2,2.4c0.7-1.1,1.3-2.8,2.4-3.5c-2.5,3.7-4,7.6-5.6,10.1c0.1-0.1,0.2-0.4,0.4-0.3c-0.3,0.8-1.8,1.6-1.7,2.8
			c0.6-0.4,0.3-1.4,1-1.5c-0.8,1.3-1,2.5-2.1,3.4c-0.1-0.3,1-0.9,0.5-1.4c-0.9,1.6-1.2,3.1-1.7,4.7c0.3,0.1,0.4-0.7,0.8-0.5
			c-0.6,1.1-0.6,1-1,0.9c-0.7,0.5,0.4,1.4-0.6,1.5c0.1-0.2,0.4-0.4,0.2-0.6c-0.7,0.3,0.3,1.4-0.6,2.1c-0.5-0.4,0.4-0.9,0-1.2
			c-0.5,0.7-0.8,0.8-0.8,1.6c0.6,0.6,0.1-0.7,0.7-0.4c-1.3,3.6-3.8,7.8-4.2,11.5c1.6-2.5,3.8-5.3,6.2-7.9c2.5-4.3,6.2-9.7,9.3-15.2
			c2-3.6,4.3-6.6,5.8-9.8c0.2,0.1,0,0.3,0.1,0.4c1.7-4,5.1-8,7.8-12.2c1-0.8,2-1.5,3-2.1c0.9-0.5,1.7-1,2.5-1.5
			c7.8-4.7,15.8-8.1,24.7-11.2c0.6-0.2,1.3-0.5,1.9-0.9c-0.8,6.1-0.7,12-0.7,18.1c0.1,0.5,0.5-0.5,0.6-0.1c0.6,1.8-0.2,3.6,0.5,5.9
			c1.7-3.3,2.2-6.8,3-11C280,99.3,279.6,101.3,280,100.9z M229.9,109.7c-0.5-0.2,0.4-1.2-0.3-0.4c-0.5-0.7,1.1-1.6,1-2.4
			c0.3-0.3,0.5,0.3,0.1,0.4c0.4,0.2,0.6-0.6,0.5-0.7C231.4,107.3,230.3,108.5,229.9,109.7z M233,104.2c0.1-0.1-1-0.3-0.6,0.3
			c-0.6-0.4,0.4-0.9,0.5-1.4C232.6,103.9,234.4,103,233,104.2z M234,102.2c-0.2-0.1-0.3,0.2-0.5,0.4c-0.2,0,0-0.4,0.3-0.7
			c0.1,0.1,0.2,0.1,0.3,0.2c-0.1,0.3-0.3,0.5-0.2,0.8C233.4,103.1,233.7,102.3,234,102.2z M270.4,77.9c-2.7,0.7-5.3,1.6-7.9,2.5
			c-1.7,0.5-3.6,1.3-5.6,2c-0.2,0.1-0.4,0.1-0.5,0.2c2.7-3.6,5.7-9.9,8.5-12.4c1.9-2.5,3.8-6.3,7-9.1c0.1-0.3-0.1-0.5-0.1-0.8
			c1.6-0.5,2.5-2.8,3.2-3.9c1.9-2.6,5.2-4.3,6.4-6.1c0.3-0.4,0.6-0.8,0.9-1.1c-0.1,1.3-0.2,2.7-0.5,4c-0.9,4.7-1.3,8.2-2.3,12.2
			c0.2,0.5,0.8,0.7,0.9,1c-0.5,3.2-1.3,6.6-2.1,9.7c-0.1,0-0.1,0-0.2,0C275.7,76.5,273,77.2,270.4,77.9z"/>
		<path id="XMLID_178_" fill-rule="evenodd" clip-rule="evenodd" fill="#FFFFFF" d="M279.9,119.9c0-0.7,0.7-2.2-0.1-2.7
			C280,118.3,279.4,119.3,279.9,119.9z"/>
		<path id="XMLID_177_" fill-rule="evenodd" clip-rule="evenodd" fill="#FFFFFF" d="M280.4,115.2c0-0.3,0-0.7,0-1
			C280.5,112.3,280.1,114.4,280.4,115.2z"/>
		<path id="XMLID_176_" fill-rule="evenodd" clip-rule="evenodd" fill="#FFFFFF" d="M280.1,115.6c0.1,0.5-0.3,1.2,0.1,1.5
			C280.1,116.6,280.9,115.8,280.1,115.6z"/>
		<path id="XMLID_175_" fill-rule="evenodd" clip-rule="evenodd" fill="#FFFFFF" d="M208,155.1c0.1,0.2-0.7,1-0.6,1.5
			C207.7,156,208.6,155.1,208,155.1z"/>
		<path id="XMLID_174_" fill-rule="evenodd" clip-rule="evenodd" fill="#FFFFFF" d="M217.2,138.4c0.6-0.8,1.2-1.2,1-2
			C217.7,137.1,217,137.8,217.2,138.4z"/>
		<path id="XMLID_173_" fill-rule="evenodd" clip-rule="evenodd" fill="#FFFFFF" d="M219.6,129.2c0.3-0.6,1-1.2,0.9-1.7
			C220.4,127.2,219.5,128.8,219.6,129.2z"/>
		<path id="XMLID_172_" fill-rule="evenodd" clip-rule="evenodd" fill="#FFFFFF" d="M222.1,126.6c0.5-0.3,1.1-1.5,1.3-2.2
			C222.9,125,222.2,125.7,222.1,126.6z"/>
		<path id="XMLID_171_" fill-rule="evenodd" clip-rule="evenodd" fill="#FFFFFF" d="M225,121.9c0-0.1,0.3-0.7-0.1-0.8
			C223.9,122.3,224.4,123.7,225,121.9z"/>
		<path id="XMLID_170_" fill-rule="evenodd" clip-rule="evenodd" fill="#FFFFFF" d="M225.3,121.2c0.6-0.6,0.6-1.4,1.2-1.7
			c-0.3-0.3-0.6-0.1-0.8,0C226.3,120.2,224.8,120.5,225.3,121.2z"/>
		<path id="XMLID_169_" fill-rule="evenodd" clip-rule="evenodd" fill="#FFFFFF" d="M221.9,127.2c-0.2,0.3-0.5,0.3-0.7,0.8
			C221.5,128.4,222.1,127.3,221.9,127.2z"/>
		<path id="XMLID_168_" fill-rule="evenodd" clip-rule="evenodd" fill="#FFFFFF" d="M220.4,129.9c0.6-0.5,0.4-1.4,1.1-1.6
			C220.9,128.1,220.2,129.6,220.4,129.9z"/>
		<path id="XMLID_167_" fill-rule="evenodd" clip-rule="evenodd" fill="#FFFFFF" d="M216.9,139.1c-0.2-0.1-0.4,0.2-0.2,0.4
			c0.3-0.4,1-0.6,0.3-1C216.5,138.7,217.4,138.8,216.9,139.1z"/>
		<path id="XMLID_166_" fill-rule="evenodd" clip-rule="evenodd" fill="#FFFFFF" d="M227.4,117.1c-0.5,0.3-1.2,1.3-0.9,2
			C227,118.4,227.5,117.7,227.4,117.1z"/>
		<path id="XMLID_165_" fill-rule="evenodd" clip-rule="evenodd" fill="#FFFFFF" d="M218.3,133.7c0.4-0.6,0.9-1.2,0.8-1.8
			C218.7,132.5,218.1,133.1,218.3,133.7z"/>
		<path id="XMLID_164_" fill-rule="evenodd" clip-rule="evenodd" fill="#FFFFFF" d="M277.3,55.1C276.1,55.3,276.4,56.3,277.3,55.1
			L277.3,55.1z"/>
		<path id="XMLID_163_" fill-rule="evenodd" clip-rule="evenodd" fill="#FFFFFF" d="M217.9,133.9c-0.3,0.6-0.9,1.2-0.6,1.8
			C217.3,135.1,218.4,134.4,217.9,133.9z"/>
		<path id="XMLID_162_" fill-rule="evenodd" clip-rule="evenodd" fill="#FFFFFF" d="M216.5,139.5c0,0.2-0.6,0.5-0.3,0.7
			c0.8-0.3-0.1,0.2,0.2,0.7c0.1-0.4,0.8-0.8,0.6-1.2C216.7,139.9,216.6,139.8,216.5,139.5z"/>
		<path id="XMLID_161_" fill-rule="evenodd" clip-rule="evenodd" fill="#FFFFFF" d="M296.5,40.9c0.4-0.3,0.3-0.2,0.4-0.6
			C296.4,39.9,295.8,40.6,296.5,40.9z"/>
		<path id="XMLID_151_" fill-rule="evenodd" clip-rule="evenodd" fill="#FFFFFF" d="M328.8,88.5c-0.5-0.2-1,1.2-1.5,1
			c0.5-0.7,1.1-1.6,2.3-2.3c0.2,0.2,0,0.4,0.3,0.6c0.6-0.6,1.1-1.1,1.7-1.7c0.2,0.3,0.5,0.5,0.7,0.8c-0.2-0.3-0.3-0.6-0.5-1
			c0.6-0.5,1.1-1.1,1.7-1.6c0.1,0.1,0.2,0.1,0.5,0c-0.2,0-0.2-0.1-0.3-0.2c0.3-0.2,0.5-0.5,0.8-0.7c0,0,0,0,0,0
			c0.3-0.1,0.3-0.2,0.2-0.2c0,0,0.1-0.1,0.1-0.1c1.6,1.2,2.9,3,5,3.7c-0.7-1.2-1.2-2.9-1.5-4.6c-0.3-0.5-0.6-0.9-0.9-1.5
			c2.4-2.3,4.8-4.6,7.1-7.1C351.2,66,357,57.9,362,49.1c0.9-1.6,1.9-3.3,2.6-4.5c1.1-1.9,2.5-3.1,3.7-5c1.6-2.4,2.8-5.6,4.8-8.4
			c1.7-2.4,5.5-5.7,6.3-7.9c0.9-2.4-0.4-3.8-2.2-4.7c-1.8-0.9-3.9-1.5-4.6-2.4c-3.7,0-6.6,0.5-9.9,2.1c-3.9,2-5.9,6.2-8.6,9.9
			c-2.8,3.9-3.9,8.8-5.6,11.9c-0.1,0.2-0.5,0-0.7,0.3c-1.1,1.6-1.6,4.6-2.5,6.1c-1.5,0.9-0.4,2.9-2.3,2.9c-1,4.2-4.3,7.8-6.9,10.8
			c0.1,0.5,1,0.5,0.7,0.8c-0.4,0.5-0.8-0.2-1.2,0.3c0.1,0.5,0.9,0.3,0.5,0.6c-0.2-0.1-0.5-0.2-0.7-0.2c0.2,0.3,0.5,0.2,0.4,0.5
			c-0.1,0.1-0.1,0.3-0.1,0.4c-0.3,0.1-0.5-0.6-0.8-0.4c0.6,0.7-0.7,0.3-0.3,1.1c0.2-0.2,0.5-0.2,0.7-0.1c-1.9,1.6-3.6,4.7-5.3,5.8
			c-1-1.5-1.6-3.3-2.5-5c-1.5-2.7-3.6-5.1-4.7-8.2c-0.7,0.1-0.4-0.4-0.5-0.6c-0.6-2.1-3.3-4.7-3.2-6.8c-0.5-1.4-1.9-3-1.8-5.2
			c-0.1-0.1-0.4,0-0.6,0c0.6-1-0.4-1.8-0.6-2.4c-0.6-1.4,0.3-3.6-0.2-4.6c-0.5-1.1-0.1-2.6,0.5-4c0-0.1,0-0.2,0.1-0.2
			c0,0.1-0.1,0.1-0.1,0.2c0,0,0.1,0,0.3-0.1c0-0.3-0.4-0.2-0.7-0.1c0.1-0.7,0.3-1.1,0.6-1.8c0-0.2-0.4-1,0.4-1.1
			c-0.3-0.3-0.4-0.2,0.2-0.7c-0.7-0.8,0.2-2.7-1.3-3.4c-1.3-0.6-6.4,0.8-9.4,2.9c-2.9,2.1-2.3,4-2.6,6c-0.3,1.7-0.6,3.4-0.6,4.6
			c-0.1,4.3,1.5,8.4,3.3,11.3c0.8,1.2,1.1,2.5,1.8,3.7c2.9,4.6,5.1,9,8.4,12.5c-0.5,0.7,0.3,0.6,0.5,0.9c2.2,3.1,4.4,6.4,6.8,9.6
			c-0.5,0.6-0.8,1.3-1.3,1.9c-1.2,1.5-2.5,3.1-4,4.6c-1.4,1.6-2.9,3.2-4.3,4.7c-2.8,3.1-5.3,6-6.4,8.4c-0.9,0.3-1.7,1.3-2.4,2.3
			c-0.7,1-1.2,2.1-1.5,2.3c-0.5,0.4-0.1,0.8-0.8,1.7c-1.2,1.6-2,2.8-3.5,2.8c-0.4,2.2-3.2,3.8-3.2,5.3c0.3-0.2,0.5-0.6,0.8-0.5
			l-0.7,1l-0.7-0.5c-1.1,1.9-2.7,3-3.1,4.9c0.1-0.1,0.5-0.2,0.4,0.1c-0.3,0.4-0.6,1.3-1.1,1c0.1-0.5,1-0.4,0.6-0.9
			c-0.3,0.3-0.7,0.4-1,0.8c0.2,0.2,0.7,0.3,0.6,0.6c-1.6,1.6-2.2,3.6-2.7,4.8c-0.1-0.1-0.4-0.8-0.7-0.4c0.3,2.2-3.3,4.1-2.7,6.1
			c-1-0.2-1.2,1.2-0.7,1.8c-0.8-0.4-1.1,0.3-1.4,1.1c-0.1,0.4,0.6,0,0.4,0.6c-0.8,0.8-1.3,1.7-1.7,2.7c-0.4,1-0.9,2.1-1.5,3.4
			c0.4,0.4,0.9-0.2,0.8,0.3c0.1,1-0.9,2.1-1.2,2.7c0.1-0.3,0.3,0.2-0.1,0.2c-0.7-0.5,0.8-0.8,0.1-1.6c-0.2,0.5-1.4,2-0.9,2.5
			c0.7,0.2-0.3-1,0.6-0.5c0,1-0.5,1.1-0.8,2.6c-0.2-0.1-0.3-0.3-0.7-0.4c0.6,0.6,0.3,1.4,0.8,2.4c0.8-1.2,1-2.4,1.5-3.6
			c0.5-1.2,1-2.5,1.9-3.7c-0.6,1.6-1,2.8-1.4,3.9c-0.4,1.1-0.7,2.2-1.4,3.4c0.2,0.1,0.6,0.1,0.5,0.3c-0.9,0-0.9,1.4-1,2
			c0.4-1,0.1,0,0.4,0.3c-0.1-0.4,1.1-1,0.8-0.7c0.5-0.7,0.4-2,0.9-2.5c0.1-0.1,0.5,0.3,0.6,0c0,0-0.6-0.2-0.5-0.3
			c0.1-0.4,0.7-0.5,0.9-0.9c0.2-0.4,0.1-1.1,0.3-1.5c0.9-1.9,1.8-4,3-6.1c0.6-1,1.2-2.1,1.8-3.1c0.7-1,1.3-2,1.9-3
			c3.2-5.3,6.2-11,10.7-14.9c-0.8,0.9-1.6,1.9-2.4,3c-0.7,1.1-1.5,2.3-2.2,3.6c-0.4,0.6-0.8,1.2-1.1,1.8c-0.4,0.6-0.7,1.2-1.1,1.8
			c-0.7,1.2-1.6,2.4-2.4,3.4c0.5,0.5-0.4,0.6,0.2,1c0.6-1.2,1.5-2.7,2.4-4.2c0.5-0.7,0.9-1.4,1.4-2.1c0.5-0.6,1-1.2,1.4-1.7
			c0.5,0.2-0.6,0.6,0,0.8c0.3-0.2,0.4-1.3,1-0.8c-1.7,2.3-3.3,4.9-4.9,7.4c-1.4,2.6-2.8,5.1-3.5,7.4c0.7-0.7,1.1-1.5,1.7-2.4
			c0.6-0.9,1.2-1.9,2-3.1c3.4-4.9,7.5-11.8,11-15.1c0.1-1,2.6-4.2,3.7-4.6c4.4-5.9,10.4-13.2,15.4-17c-0.1,0.1-0.2,0.3-0.1,0.4
			C325.4,93,327.8,90.5,328.8,88.5z M321.2,70.4c0.4-0.1,0.3,0.4,0.7,0.3c-0.2,0.4-0.5,0.1-0.4-0.1c-0.2,0.1,0,0.2,0,0.3
			C321.2,71.1,321.1,70.5,321.2,70.4z M322.2,71.4c0-0.1-0.8,0.6-0.2,0.4c-0.6,0.3-0.4-0.4-0.6-0.5
			C321.7,71.6,322.3,70.4,322.2,71.4z M285.2,132.1c-0.1-0.1-0.1-0.2-0.3-0.3c-0.1,0.1,0,0.2,0.1,0.2c-0.7,0.4-0.2-0.9,0.3-0.6
			c0.5-1.6,1-0.6,0,0C285.3,131.6,285.3,131.9,285.2,132.1z M285.7,132.9c-0.3-0.3,0.3-1.2,0.6-1.3
			C286.4,132.2,286,132.3,285.7,132.9z M298.4,120.7c-0.4-0.2,0.5-0.6-0.2-0.8c0.3-0.2,0.8,0.3,1-0.4c-0.3-0.3-0.5,0-0.6,0.2
			c-0.2-1,1.3-0.7,1.1-1.7c0,1.1,1.1-1.5,2.2-2.9C302.1,116.3,299.4,119.5,298.4,120.7z M325.6,73.5c0.1,0.1,0.1,0.2,0.1,0.2
			c-0.1,0.2-0.1,0.4-0.2,0.7c-0.5-0.7-1-1.5-1.4-2.3C324.5,72.7,325.3,73,325.6,73.5z M323.5,74c-0.8,0.2-0.4-0.8-1-0.8
			c0-0.2,0.5-0.2,0.4,0c0.3-0.2,0-0.4-0.2-0.4c0.6-0.1,0.8,0.7,1.3,1.1C323.6,74.2,323.5,73.5,323.5,74z M324.2,74.1
			c0.4,0.3,0.8,0.7,1.1,1.2c0,0-0.1,0.1-0.1,0.1c-0.3,0.1-0.5,0.3-0.7,0.5C324.1,75.3,323.9,74.7,324.2,74.1z"/>
		<path id="XMLID_150_" fill-rule="evenodd" clip-rule="evenodd" fill="#FFFFFF" d="M290.8,130.7l-0.2-0.1c-0.1,0.2-0.3,0.5-0.1,0.7
			C291.2,131,292,128.3,290.8,130.7z"/>
		<path id="XMLID_149_" fill-rule="evenodd" clip-rule="evenodd" fill="#FFFFFF" d="M290.5,133.1c0.2-0.5,0.6-0.5,0.8-1.1
			C290.7,131.6,290.3,132.9,290.5,133.1z"/>
		<path id="XMLID_148_" fill-rule="evenodd" clip-rule="evenodd" fill="#FFFFFF" d="M294,126.4c-0.2,0.6-1,1.2-0.8,1.7
			C293.7,127.6,294.4,127,294,126.4z"/>
		<path id="XMLID_147_" fill-rule="evenodd" clip-rule="evenodd" fill="#FFFFFF" d="M291.5,131.6
			C292.7,129.7,291.7,129.9,291.5,131.6L291.5,131.6z"/>
		<path id="XMLID_146_" fill-rule="evenodd" clip-rule="evenodd" fill="#FFFFFF" d="M281.3,148.1
			C281.4,148.1,281.4,148.1,281.3,148.1C281.4,148.1,281.4,148.1,281.3,148.1C281.3,148.1,281.3,148.1,281.3,148.1z"/>
		<path id="XMLID_145_" fill-rule="evenodd" clip-rule="evenodd" fill="#FFFFFF" d="M280.7,152.9c0-0.9,0.9-1.6,0.5-2.4
			C281.1,151.6,280.3,151.9,280.7,152.9z"/>
		<path id="XMLID_144_" fill-rule="evenodd" clip-rule="evenodd" fill="#FFFFFF" d="M294.9,125.7c0.4-0.5,1.2-1.6,1.5-2.6
			C295.7,124,294.5,125.1,294.9,125.7z"/>
		<path id="XMLID_143_" fill-rule="evenodd" clip-rule="evenodd" fill="#FFFFFF" d="M280.5,151.4
			C281.2,149.3,280.2,149.7,280.5,151.4L280.5,151.4z"/>
		<path id="XMLID_142_" fill-rule="evenodd" clip-rule="evenodd" fill="#FFFFFF" d="M281.6,147.9c-0.1,0-0.1,0.1-0.2,0.1
			C281.5,148.1,281.6,148.1,281.6,147.9z"/>
		<path id="XMLID_141_" fill-rule="evenodd" clip-rule="evenodd" fill="#FFFFFF" d="M289.9,133.9c0,0.7-1,0.8-0.6,1.4
			C289.5,135,290.4,133.9,289.9,133.9z"/>
		<path id="XMLID_140_" fill-rule="evenodd" clip-rule="evenodd" fill="#FFFFFF" d="M281.3,148.1
			C280.5,148.7,281.3,150.2,281.3,148.1L281.3,148.1z"/>
		<path id="XMLID_139_" fill-rule="evenodd" clip-rule="evenodd" fill="#FFFFFF" d="M290.4,132c-0.3,0-0.8,0.6-1.2,1.2
			c-0.3,0.6-0.5,1.3-0.2,1.3c0-0.2,0.2-0.7,0.5-1.2C289.8,132.8,290.2,132.3,290.4,132z"/>
		<path id="XMLID_138_" fill-rule="evenodd" clip-rule="evenodd" fill="#FFFFFF" d="M281.9,137.4c-0.6-0.3-0.6,0.4-0.9,0.6
			c0.3,0.1,0.2,0.4,0.5,0.5c0.2-0.3-0.1-0.4,0-0.7C281.9,137.9,282,137.7,281.9,137.4z"/>
		<path id="XMLID_137_" fill-rule="evenodd" clip-rule="evenodd" fill="#FFFFFF" d="M316.3,39.2C315.7,39.9,316.6,39.8,316.3,39.2
			L316.3,39.2z"/>
		<path id="XMLID_136_" fill-rule="evenodd" clip-rule="evenodd" fill="#FFFFFF" d="M336.2,85.4c0.3-0.5,0.1,0.1,0.6,0
			c-0.2-0.1-0.1-0.6-0.4-0.5c0,0.2-0.2,0.3-0.4,0.3C336,85.3,335.9,85.6,336.2,85.4z"/>
		<path id="XMLID_135_" fill-rule="evenodd" clip-rule="evenodd" fill="#FFFFFF" d="M318.6,25.9c0-0.2,0-0.2-0.2-0.3
			C317.9,25.9,318,26.3,318.6,25.9z"/>
		<path id="XMLID_134_" fill-rule="evenodd" clip-rule="evenodd" fill="#FFFFFF" d="M317.3,28c0.1-0.3,0.1-0.5,0.2-0.7
			C317.2,27.5,317.1,28,317.3,28z"/>
		<path id="XMLID_133_" fill-rule="evenodd" clip-rule="evenodd" fill="#FFFFFF" d="M334.9,83.8c0.2,0.3,0.2,0.9,0.8,0.8
			C335.5,84.2,335.6,83.8,334.9,83.8z"/>
		<path id="XMLID_132_" fill-rule="evenodd" clip-rule="evenodd" fill="#FFFFFF" d="M336,85.1c-0.1-0.2,0.2-0.7-0.5-0.3
			c-0.1,0.3,0.5-0.2,0.4,0.1C335.7,85,335.8,85.1,336,85.1z"/>
		<path id="XMLID_131_" fill-rule="evenodd" clip-rule="evenodd" fill="#FFFFFF" d="M341.3,92c0.2-0.1,0.2,0.5,0.7,0.5
			C341.7,92.3,341.7,91.6,341.3,92z"/>
		<path id="XMLID_130_" fill-rule="evenodd" clip-rule="evenodd" fill="#FFFFFF" d="M450.2,117.9c-0.5,0.3,0.1,1.4,0.4,0.6
			C450,118.6,450.7,117.8,450.2,117.9z"/>
		<path id="XMLID_129_" fill-rule="evenodd" clip-rule="evenodd" fill="#FFFFFF" d="M490.3,90.2c0,0.2-0.4,0.5-0.1,0.8
			c0.3-0.4,0.5-0.4,0.8-0.6C490.8,90.4,490.6,89.9,490.3,90.2z"/>
		<path id="XMLID_128_" fill-rule="evenodd" clip-rule="evenodd" fill="#FFFFFF" d="M468.2,84.4c0.3,0.4,1.3,0.2,0.6,0.6
			c0.3,0.4,0.6-0.7,0.9-0.1c-0.1,0.2-0.2,0.1-0.3,0.2c0.1,0.5,0.8-0.5,0.5-0.6C469.3,84.5,468.8,84.3,468.2,84.4z"/>
		<path id="XMLID_127_" fill-rule="evenodd" clip-rule="evenodd" fill="#FFFFFF" d="M498.6,96.1c-0.3,0.3-0.7,0.4-1,0.4
			c0.7,0,1.4,0.3,1.9,0.2C499.4,96.3,498.9,96.6,498.6,96.1z"/>
		<path id="XMLID_126_" fill-rule="evenodd" clip-rule="evenodd" fill="#FFFFFF" d="M490.8,91.4c0.2-0.3,0.4,0,0.7-0.5
			c-0.2-0.1-0.2-0.2-0.2-0.4C490.9,90.7,490.7,91.2,490.8,91.4z"/>
		<path id="XMLID_125_" fill-rule="evenodd" clip-rule="evenodd" fill="#FFFFFF" d="M493.2,93.9c-0.3,0.1-0.9,1-0.5,1.2
			C492.8,94.7,493.7,94.1,493.2,93.9z"/>
		<path id="XMLID_124_" fill-rule="evenodd" clip-rule="evenodd" fill="#FFFFFF" d="M498,96c0-0.3-0.6-0.6-1-0.2
			C497.3,96,497.7,96.1,498,96z"/>
		<path id="XMLID_123_" fill-rule="evenodd" clip-rule="evenodd" fill="#FFFFFF" d="M477.5,86.8c0.2-0.3,0.5-0.3,0.8-0.4
			c-0.4-0.1-0.3-0.4-0.3-0.7c-0.5,0.4-0.7,0.3-1.3,0c-0.4,1.1,0.8,0.6,1,0.9C477.5,86.6,477.4,86.7,477.5,86.8z"/>
		<path id="XMLID_122_" fill-rule="evenodd" clip-rule="evenodd" fill="#FFFFFF" d="M483,88.1c-0.2-0.2-0.4,0-0.5-0.2
			c-0.4,0.4,0.1,0.4,0.2,0.6L483,88.1z"/>
		<path id="XMLID_121_" fill-rule="evenodd" clip-rule="evenodd" fill="#FFFFFF" d="M484.7,89.5c0.5-1.1-1-0.4-1.2-1.3
			c-0.2,0.3-0.4,0-0.6,0.5c0.4,0.1,0.5,0.1,0.4,0.5C483.8,88.7,484.6,89.3,484.7,89.5z"/>
		<path id="XMLID_120_" fill-rule="evenodd" clip-rule="evenodd" fill="#FFFFFF" d="M477.9,87.1c-0.2,0.2-0.4,0.1-0.5,0.3
			c0.5-0.1,0.5,0.8,1,0.2C478,87.6,477.9,87.6,477.9,87.1z"/>
		<path id="XMLID_119_" fill-rule="evenodd" clip-rule="evenodd" fill="#FFFFFF" d="M481.6,88.7c0.5-0.5,0.6,0.3,0.8,0.5
			c0.2-0.3,0.4-0.2,0.5-0.3C482.3,88.9,481.8,87.7,481.6,88.7z"/>
		<path id="XMLID_118_" fill-rule="evenodd" clip-rule="evenodd" fill="#FFFFFF" d="M485.7,89.8l-0.2,0.3c0-0.4-0.9-0.5-0.9,0.1
			c0.4-0.3,0.7,0.3,1.1,0.1C485.6,90.1,485.8,89.9,485.7,89.8z"/>
		<path id="XMLID_117_" fill-rule="evenodd" clip-rule="evenodd" fill="#FFFFFF" d="M482,87.9c0-0.6-0.6,0.1-1,0.2
			c0.1-0.1,0.1-0.2,0-0.2c-0.2,0.3-0.1,0.4,0.1,0.5C481.4,87.7,481.7,88.3,482,87.9z"/>
		<path id="XMLID_116_" fill-rule="evenodd" clip-rule="evenodd" fill="#FFFFFF" d="M479.1,86.3c-0.2,0.1-0.9,0.4-0.7,0.9
			c0.6-0.4,0.9,0.1,1.6-0.2C479.7,86.5,479.1,86.7,479.1,86.3z"/>
		<path id="XMLID_115_" fill-rule="evenodd" clip-rule="evenodd" fill="#FFFFFF" d="M481.5,87.6c0.1-0.4-1.2-0.2-1.1,0.2
			C480.8,87.6,481.2,88,481.5,87.6z"/>
		<path id="XMLID_114_" fill-rule="evenodd" clip-rule="evenodd" fill="#FFFFFF" d="M554.2,125.7
			C552.9,124.3,552.8,125.2,554.2,125.7L554.2,125.7z"/>
		<path id="XMLID_113_" fill-rule="evenodd" clip-rule="evenodd" fill="#FFFFFF" d="M516.5,95.3c0.4-0.2,1.9,1.5,1.6,0.8
			C517.6,95.9,517.1,94.7,516.5,95.3z"/>
		<path id="XMLID_112_" fill-rule="evenodd" clip-rule="evenodd" fill="#FFFFFF" d="M522.6,97.8c0.6-0.3,1.1,1.1,1.6,0.8
			C524.1,98.4,522.7,97.1,522.6,97.8z"/>
		<path id="XMLID_111_" fill-rule="evenodd" clip-rule="evenodd" fill="#FFFFFF" d="M505.4,100.7c0.6,0,1.1,0.9,1.6,0.5
			C506.3,101,506.3,100.1,505.4,100.7z"/>
		<path id="XMLID_110_" fill-rule="evenodd" clip-rule="evenodd" fill="#FFFFFF" d="M557.6,128.8
			C556.4,127.4,556.1,128.2,557.6,128.8L557.6,128.8z"/>
		<path id="XMLID_109_" fill-rule="evenodd" clip-rule="evenodd" fill="#FFFFFF" d="M526.2,100.1c1.3,0.6,2,2.1,3.6,2.1
			C528.5,101.8,527.1,99.9,526.2,100.1z"/>
		<path id="XMLID_108_" fill-rule="evenodd" clip-rule="evenodd" fill="#FFFFFF" d="M547.8,115.7c-0.7-0.6-1.6-1.3-2-1.2
			c0.7,0.6,2,1.6,2.9,2.1C549.6,117.2,548.4,116.2,547.8,115.7z"/>
		<path id="XMLID_107_" fill-rule="evenodd" clip-rule="evenodd" fill="#FFFFFF" d="M488.5,89.1c-1.2,1.2,1.2,0.5,0.9,1.3
			c0.1-0.2,0.3-0.3,0.4-0.4C489.9,89.3,488.3,90.2,488.5,89.1z"/>
		<path id="XMLID_106_" fill-rule="evenodd" clip-rule="evenodd" fill="#FFFFFF" d="M525.1,98.8c-0.6,1,1.8,1.2,0,0.2
			C525.1,98.9,525.2,98.8,525.1,98.8z"/>
		<path id="XMLID_105_" fill-rule="evenodd" clip-rule="evenodd" fill="#FFFFFF" d="M559.2,135.7c-1.5-1.2-3.5-3.5-4.7-4
			C556.6,133.3,557.8,135.4,559.2,135.7z"/>
		<path id="XMLID_104_" fill-rule="evenodd" clip-rule="evenodd" fill="#FFFFFF" d="M507.8,99.6l0.7,0.5c0.2-0.3,0.4-0.5,0.6-0.5
			C508.3,99.7,508.4,98.9,507.8,99.6z"/>
		<path id="XMLID_103_" fill-rule="evenodd" clip-rule="evenodd" fill="#FFFFFF" d="M535,105.9C533.7,104.7,533.6,105.6,535,105.9
			L535,105.9z"/>
		<path id="XMLID_102_" fill-rule="evenodd" clip-rule="evenodd" fill="#FFFFFF" d="M533,104.7c-0.6-0.6-2-1.5-2.9-2.3
			C530.2,103.6,532.2,104.2,533,104.7z"/>
		<path id="XMLID_88_" fill-rule="evenodd" clip-rule="evenodd" fill="#FFFFFF" d="M567.1,141.6c1.7,1.4,2.6,2.2,4.1,3.7
			c-0.6-1.7-3.2-3.2-3.8-4.4c0.3,0.1,0.6,0.4,1.3,0.4c-2.9-3.8-6.6-7-10.2-10.1c-1.8-1.6-3.7-3.1-5.4-4.7c-1.8-1.5-3.6-3.1-5.2-4.8
			c-1.4-1.5-3.7-3.1-5.4-4.7c-1.8-1.7-4-3.2-6.2-4.8c-1.1-0.8-2.2-1.6-3.3-2.5c-1.1-0.8-2.1-1.7-3.1-2.7c1.3,0.9,2.6,1.8,4,2.8
			c1.3,1,2.6,2.1,3.9,3.1c2.6,2.1,5.3,4.3,8.2,6.5c1.4,1,2.6,2.6,4.7,3.6c0.5,0.2-0.3-0.6-0.7-0.8c-0.2-1.8-2.3-2.2-3.7-3.3
			c-0.5-0.4-0.8-1.2-1.3-1.6c-0.7-0.5-1.1-0.9-1.6-1.3c-2.9-2.3-5.7-4.5-8.4-6.5c-2.7-2-5.4-3.8-8-5.6c-2.6-1.8-5.2-3.6-7.8-5.4
			c-1.3-0.9-2.6-1.8-3.9-2.7c-1.3-0.9-2.7-1.8-4-2.7c-1.4-1-3.1-1.8-4.2-3.3c-0.2,0.2-0.4,0.5-0.6,0.3c-1.9-1.7-4.2-2.3-5.5-3.8
			c3.7,1.9,7,4,10.5,5.5c-2.4-1.4-4.9-3-7.6-4.6c-0.1-0.1,0.1-0.2,0.2-0.3c-3.6-1.1-6.3-3.4-8.9-5c4,1.4,7.9,4.3,12.2,6.2l0.4,0.3
			c0.1-0.2-0.2-0.3-0.3-0.5c-0.8-1-2.1-0.7-2.1-1.8c1.7,1.5,3.4,1.6,4.6,3.2c-0.6-0.2-0.6-0.7-1.1-0.3c2.1,1.3,4.4,2.8,6.7,4.3
			c2.2,1.4,4.3,2.8,6.5,3.8c-0.8-0.4-1.6-1.1-2-1.6c5.1,3,8.9,5.9,13.7,9.2c0.4,0.3,3,2,1,0.3c-4.4-3.8-10.3-7.2-14.9-10.3
			c-2.9-2-5.5-3.6-7.9-5c-2.4-1.4-4.5-2.7-6.7-3.9c-2.1-1.2-4.2-2.4-6.4-3.6c-2.2-1.2-4.6-2.4-7.2-3.8c-3.1-1.6-6.6-3.4-9.7-4.7
			c-2.5-1-5.1-1.9-7.7-2.6c4.1-0.5,8.6-1.3,12.5-1.9c2.4-0.3,4.7-0.7,6.8-1.1c5.2-1,10.2-2.2,15.2-3.5c5-1.4,10-2.9,14.9-5.2
			c2.5-1.2,5-2.5,7.5-4.7c1.2-1.1,2.5-2.5,3.4-4.6c0.4-1,0.8-2.2,0.8-3.5c0-0.6-0.1-1.2-0.1-1.8c-0.1-0.6-0.3-1.1-0.4-1.7l-0.3-0.7
			l-0.2-0.4l0-0.1l-0.2-0.4l0,0l0,0l-0.1-0.1l-0.5-0.8l-0.1-0.2l-0.2-0.3l-0.5-0.6l-0.5-0.6c-0.2-0.2-0.4-0.4-0.5-0.5
			c-1.2-1.1-2.5-2.1-3.9-2.8c-2.6-1.5-5.3-2.5-7.9-3.2c-4.9-1.4-10.1-1.4-15.2-1.8c-5.9-0.4-10.8-0.5-15.4-0.3
			c-4.6,0.2-8.9,0.7-13.4,2c-6.5,0.4-13.1,2.1-19.3,4.4c-6.3,2.3-12.1,5.1-17.5,7.6c-1.7,0.7-3.6,1.4-5.4,2.1
			c-1.8,0.8-3.4,1.8-4.5,3.3c7.4-3,15-5.5,22.6-7.4c4.9-1.2,9.9-1.9,14.9-2.5c-1.5,1.5-3.1,3.1-4.2,4.6c-1.8,2.3-3,5.5-4.4,8.3
			c-4.4,9.2-9.2,18.5-12.2,28.5c-0.6,1.9-0.7,3.9-1.3,5.7c-1.1,3.6-1.9,7-2.5,10.5c-0.6,3.1-0.9,6.3-1.3,9.5
			c-0.1,1.8-0.3,3.5-0.2,5.2c0.1,1.7,0.2,3.3,0.4,4.9c0.5-0.3-0.1-1.5,0.4-1.7c-0.2,4.1,0.3,8.1,0.7,11.7c0.1,1.4,0.2,2.8,0.3,4.1
			c0.1,1.3,0.2,2.6,0.7,3.8c0.3,0.7,1.1,1.1,1.6,1.9c0.7,1.1,0.9,2.3,1.2,3.5c0.3,1.2,0.7,2.4,1.3,3.2c0.4-0.3-0.5-1.2,0-1.5
			c0.8,1.4,1.4,3,2.2,4.2c0.6-0.4,0-1.3,0.7-1.7c0.2,0.2,0,0.8,0.4,0.6c-0.3-2.6-1.4-5.7-1.3-7.6c-0.4-1.3-1.4-3.9-1.2-6.2
			c0.7,1.9,1.1,3.7,1.4,5.3c0.1,0.8,0.3,1.6,0.5,2.4c0.2,0.7,0.5,1.4,0.9,2.1c-0.2-1.7-0.4-3.2-0.6-4.7c-0.2-1.4-0.4-2.8,0-4.3
			c0.1,1.5,0.5,3,0.8,4.5c0.1,0.8,0.3,1.5,0.4,2.2c0.2,0.7,0.3,1.4,0.4,2l0.5,1.8c-0.2-1.2-0.4-2.5-0.7-3.7
			c-0.2-1.3-0.4-2.5-0.7-3.8c-0.3-1.3-0.6-2.5-0.7-3.8c-0.2-1.2-0.4-2.4-0.5-3.6c0-0.1,0-0.2,0.2-0.2l0,0.1c0,0.1,0.2,0.1,0.2,0
			c-0.1-0.2-0.3-0.3-0.5-0.5c0.4-1.5,0.3-3.3,0.1-5.2c-0.1-1.9-0.3-3.8,0-5.4l1,0c0.2-0.7,0.6-2-0.2-1c-0.4-1.9,0.5-3,0.4-4.2
			c-0.1-0.1,0-0.2,0-0.3c0,0.1,0,0.2,0,0.3c0,0,0.1,0.1,0.1,0.1c0.1-1.2,0.2-2.4,0.2-3.8c0.1-1.3,0.3-2.7,0.4-4.1
			c0.5-4.2,2.4-8.1,3.5-11.9c0.1-0.5,0.2-1,0.4-1.5c0.2-0.5,0.3-1.1,0.5-1.6c0.3-1.1,0.6-2.3,1.1-3.2c0.3-0.9,0.6-1.8,1-2.7
			c1.7,0.2,3.3,0.5,5.2,0.4c-0.6-0.5-2,0.2-1.9-0.8c0.8,0.1,1.5,0.1,2.3,0.4l-0.5,0.8c0.6,0.1,1.9-0.2,1.9,0.8c0.9-1,1,0.4,1.7-0.2
			c0.2,0.1,0.1,0.4,0.1,0.5c1.4-1.6,2.5-0.2,3.7,0c-0.5,0.4-0.6,0.7-0.4,1.1c0.6-0.5,1.1-1.2,2.3-0.8c-0.3,0.2-0.6,0.8-0.2,0.5
			c0-0.1,0.9-0.1,1.3-0.3c0.8,0.2,1.5,1.3,2.5,0.3c-0.9-0.7-1.2-0.2-2.2-0.6c-0.3-0.5,0.4-0.7,0-1.2c-0.4,0.5-0.1,0.6-0.5,0.8
			c-1-0.5-1.5-0.4-1.5-1.4c0.4,0.1,0.4-0.2,0.6-0.2c-0.2,0.5,0.3,0.8,0.5,1.2c0.8-0.9,1.4-0.9,1.6,0c0.6-0.9,1.8,0,2-0.3
			c-0.1,0.2-0.3,0-0.4,0.2c0.5,0.9,1.3,1,2.4,1c0.5-0.7-0.7-0.2-0.3-0.9c2.6-0.3,3.9,0.7,5.5,1.7c-0.6,0.3-1.2-0.5-1.5,0.1
			c0.7,0.5,1.5,0,2.2-0.1c-0.1,0.4,0.8,0.1,0.1,0.5c2,0.2,2.9,1,5.4,1.9c0.1,0.5-0.6,0.5-0.3,0.9c0.1-0.2,0.3-0.3,0.4-0.2
			c0.5,0.1-0.3-0.3,0.2-0.5c2.6,1.6,7.5,3.2,10.4,6.1c1,0.1,2.1,0.2,2.5,1.1c-0.2,0.7-1-0.6-0.9,0.3c0.3-0.3,0.6,0.3,0.9,0.4
			c0.4-0.3,0.3-0.9,0.6-0.8c1.3,0.5,2.9,1.6,3.6,2.4c-0.1-0.1-0.3-0.1-0.4,0.1c2.6,0.2,4.7,1.9,6.6,3.5c1.5,0.5,2.5,1.2,3.1,2.2
			c2.5,1.2,5.4,3.1,8.4,5.2c3.1,2.1,6.3,4.4,9.4,6.8c-0.2,0.2-0.4,0.2-0.1,0.4c0.8-0.2,0.9,0.8,1.1,0.2c1.4,1.7,3.7,1.8,4.4,4.1
			c0.3-0.6,0.6,0.2,0.9,0c4.1,3.2,8.4,6.7,11.5,8.8c-0.3-0.2-0.5-0.4-0.3-0.7c0.2,0.3,0.5-0.7,0.7-0.4c0,0.5,0.4,0.8-0.4,1.5
			l2.1,1.9c0.2,0,0.4-0.5,0.8-0.3c4.2,3.8,7.4,6.8,12.6,11.1C567.5,142,566.9,141.9,567.1,141.6z M518,94c1.2,1.1-1.1-0.6-1.7-0.9
			C517,92.9,517.8,93.8,518,94z M513.9,91.5c-1-0.2-3.1-1.1-3.3-2.2C511.7,90.3,512.8,90.5,513.9,91.5z M441.4,114.7
			c-0.4-0.5,0-1.5-0.1-2.2C441.7,113,441.3,114,441.4,114.7z M459.6,80.8c-0.2,0.2-0.1,0.4,0,0.5c-0.2,0.2-0.3,0-0.2-0.1
			c-0.2,0-0.4,0.2-0.6,0.5c0-0.3-0.1-0.5-0.3-0.5c0.1-0.2,0.1-0.3,0.2-0.5C459,80.6,459.3,80.5,459.6,80.8z M489.7,37.8
			c5.3-0.1,10.6,0.1,15.8,0.9c2.5,0.4,5.1,0.9,7.5,1.5c2.5,0.6,4.9,1.3,7,2.3c0.5,0.2,1,0.5,1.6,0.7c0.5,0.3,0.9,0.5,1.4,0.8
			c0.4,0.3,0.8,0.6,1.1,0.8c0.1,0.1,0.3,0.3,0.5,0.4c0.1,0.1,0.1,0.1,0.1,0.1c0,0,0,0,0,0c0,0,0,0,0.1,0c0.1,0.1,0.2,0.3,0.3,0.4
			l0.1,0.2c0.1-0.2,0.2-0.3,0.2-0.3c0.1,0.1,0.3,0.1,0.5,0.2c0.2,0,0.2,0.1,0.3,0.1l0.1,0c0,0,0,0,0,0c0,0,0,0,0,0
			c-0.2,0-0.2,0-0.7,0.1c-0.1,0-0.2,0-0.2,0.1c0,0,0,0,0,0c0,0.1,0.1,0.2,0.2,0.4l0,0l0-0.1l-0.1-0.2l-0.2-0.3c0,0,0,0-0.1,0.1
			c-0.4,0.6-1.6,1.5-3,2.2c-1.4,0.8-3.1,1.6-5,2.3c-3.7,1.4-7.8,2.6-12.1,3.7c-8.5,2.1-17.3,3.7-24.7,5.1c-4.5,0.8-9.1,1.4-13,2.2
			c1.4-2.3,2.9-4.5,4.1-6.8c1.4-2.8,3.5-5.2,5.4-7.9c1.9-2.6,3.6-5.3,4.7-8.7C484.3,38,487,37.9,489.7,37.8z M458,82.4
			c0-0.1,0.1-0.2,0.1-0.3c0.7,0.1,1.5,0.1,2,0c-0.1,0.6,0.7,0.1,0.7,0.7C459.8,82.6,458.9,82.5,458,82.4z M463.5,82.9
			c0.4-0.5,0.9,0.3,1.3,0.2C464.4,83.6,463.6,83.3,463.5,82.9z M463.9,82.3c-0.4-0.7-0.6-0.3-1.1-0.3c-0.1-0.1,0.1-0.4,0-0.5
			c-0.5,0.5-0.5-0.6-1.1,0.4c-0.3-0.5-0.2-0.5-0.9-0.6c1-1.5,2.5,1,3.9-0.1c-0.4,0.4,0,0.5-0.2,0.8c0.4,0.2,0.8-0.2,1.2-0.1
			c-0.1,0.1-0.1,0.2,0,0.2l-0.2,0.3C464.8,82.6,464.6,81.6,463.9,82.3z M465.3,83.4c0.6-0.4,1.2,0.1,1.9,0.1
			C467,84.2,465.8,83.6,465.3,83.4z M470.8,83.9c-0.5-0.6-1.3-0.2-1.9-1c0.6,0.8-0.7,0.2-0.8-0.1c0.3,0,0.6-0.5,0.7,0
			c0-0.5,0.7-0.9,1.3-1.2c-0.4,0.1-0.4,0.6-0.6,0.9c0.4,0,0.7,0.3,1.1-0.2l0.6,0.4C470.9,83.1,471.1,83.4,470.8,83.9z M498.9,85
			l0.8,0.6c0.3,0,0.6,0.2,1.2,0.6C500.4,86.6,498.9,85.3,498.9,85z M553.1,130.3c-0.5-0.5-0.4-0.4-0.7-0.9
			C552.6,129.2,553.6,129.9,553.1,130.3z"/>
		<path id="XMLID_87_" fill-rule="evenodd" clip-rule="evenodd" fill="#FFFFFF" d="M525.4,46.1L525.4,46.1L525.4,46.1L525.4,46.1
			C525.4,46.1,525.4,46.1,525.4,46.1C525.4,46.2,525.4,46.2,525.4,46.1C525.2,45.9,525.4,46.2,525.4,46.1z"/>
		<path id="XMLID_86_" fill-rule="evenodd" clip-rule="evenodd" fill="#FFFFFF" d="M350.5,111.7c-0.6,0.2-0.6,1.7,0.1,0.9
			C350.1,112.6,351,111.8,350.5,111.7z"/>
		<path id="XMLID_85_" fill-rule="evenodd" clip-rule="evenodd" fill="#FFFFFF" d="M411,37.2c0.4,0.1,0.4,0.3,0.7,0.4
			c-0.1-0.2,0.2-0.1,0.4-0.1c-0.6-0.3-0.5-0.4-0.6-0.6c-1-0.3-0.1,0.3-0.3,0.4C411.2,37.3,411,37.2,411,37.2z"/>
		<path id="XMLID_84_" fill-rule="evenodd" clip-rule="evenodd" fill="#FFFFFF" d="M411.2,40.2c0.4,0.2,0,0.3,0.4,0.5
			c0-0.1,0.3,0.1,0.4,0.1l-0.3-0.2C412,40.7,411.6,40.3,411.2,40.2z"/>
		<path id="XMLID_83_" fill-rule="evenodd" clip-rule="evenodd" fill="#FFFFFF" d="M411.6,38.7c-0.3-0.1-0.4-0.1-0.4,0
			c0.7,0.2,0.4,0.3,0.8,0.5c0.5,0.1-0.4-0.3-0.6-0.5C411.5,38.8,411.6,38.8,411.6,38.7z"/>
		<path id="XMLID_82_" fill-rule="evenodd" clip-rule="evenodd" fill="#FFFFFF" d="M411.5,39.5c-0.2-0.3,0.6-0.4-0.4-0.6
			c0.6,0.3,0,0.3-0.1,0.3C411.4,39.3,411.3,39.4,411.5,39.5z"/>
		<path id="XMLID_81_" fill-rule="evenodd" clip-rule="evenodd" fill="#FFFFFF" d="M411.5,46.1c0.2,0.1,0.2-0.2-0.1-0.5
			C411.3,45.7,411.3,45.9,411.5,46.1z"/>
		<path id="XMLID_80_" fill-rule="evenodd" clip-rule="evenodd" fill="#FFFFFF" d="M411.7,50.9l-0.2,0.3c0.3,0.2,0.5,0.4,0.6,0.5
			C411.8,51.2,412.4,51.4,411.7,50.9z"/>
		<path id="XMLID_79_" fill-rule="evenodd" clip-rule="evenodd" fill="#FFFFFF" d="M412.8,42.5c0.2,0.1,0.4,0.2,0.5,0.3
			c0.7,0.2-0.7-0.8,0.3-0.5C412.1,41.4,413.6,42.8,412.8,42.5z"/>
		<path id="XMLID_78_" fill-rule="evenodd" clip-rule="evenodd" fill="#FFFFFF" d="M412.3,39.9c-0.3-0.1-0.2-0.2-0.7-0.4
			c0.1,0.2,0.2,0.2-0.3,0.1c0.6,0.3,0.5,0.6,0.3,0.7C412.9,40.8,411.7,39.9,412.3,39.9z"/>
		<path id="XMLID_77_" fill-rule="evenodd" clip-rule="evenodd" fill="#FFFFFF" d="M417.1,58.6c0-0.3,0.9-0.3,0.3-0.9
			C417.6,58.1,416.6,58.6,417.1,58.6z"/>
		<path id="XMLID_76_" fill-rule="evenodd" clip-rule="evenodd" fill="#FFFFFF" d="M413.4,43.1c-0.1,0-0.6-0.3-0.7-0.2
			c0.4,0.2,0.5,0.3,0.8,0.5C413.4,43.3,413.8,43.3,413.4,43.1z"/>
		<path id="XMLID_75_" fill-rule="evenodd" clip-rule="evenodd" fill="#FFFFFF" d="M411.6,46.4c-0.4-0.3-0.5-0.5-0.7-0.7
			c0.3,0.4,0.2,0.7,0.5,1C411.8,46.8,411.3,46.4,411.6,46.4z"/>
		<path id="XMLID_74_" fill-rule="evenodd" clip-rule="evenodd" fill="#FFFFFF" d="M413.2,43.5c0-0.1,0.1-0.1,0.2,0
			c-0.2-0.2-0.7-0.4-0.9-0.4C412.9,43.3,412.7,43.3,413.2,43.5z"/>
		<path id="XMLID_73_" fill-rule="evenodd" clip-rule="evenodd" fill="#FFFFFF" d="M412,38.4c0.2-0.1-0.2-0.4,0.1-0.4
			c-0.2-0.1-0.7-0.5-1-0.4C411.6,37.9,411.3,38,412,38.4z"/>
		<path id="XMLID_72_" fill-rule="evenodd" clip-rule="evenodd" fill="#FFFFFF" d="M409.1,33.9c-0.2-0.1-0.2-0.1-0.3-0.1
			c-0.3,0,0.7,0.3,0.7,0.3c-0.1-0.2-0.2-0.4-0.6-0.7c-0.2,0.1,0.4,0.5-0.2,0.2C408.4,33.7,409.5,33.9,409.1,33.9z"/>
		<path id="XMLID_71_" fill-rule="evenodd" clip-rule="evenodd" fill="#FFFFFF" d="M395.3,67.8c-1,0.6-2.2,0.1-2.5,1
			C393.5,68.4,394.9,68.4,395.3,67.8z"/>
		<path id="XMLID_70_" fill-rule="evenodd" clip-rule="evenodd" fill="#FFFFFF" d="M396.5,72C397.4,71.9,397,71.2,396.5,72L396.5,72
			z"/>
		<path id="XMLID_69_" fill-rule="evenodd" clip-rule="evenodd" fill="#FFFFFF" d="M405.1,72.1c0.4-0.2,0.9-0.5,0.9-0.9
			c-0.5,0.2-1.1,0.7-1.5,1.1C404.1,72.7,404.8,72.3,405.1,72.1z"/>
		<path id="XMLID_68_" fill-rule="evenodd" clip-rule="evenodd" fill="#FFFFFF" d="M410.3,50c-0.1-0.4,0.6-0.2-0.1-0.8
			C410.3,49.5,409.8,49.5,410.3,50z"/>
		<path id="XMLID_67_" fill-rule="evenodd" clip-rule="evenodd" fill="#FFFFFF" d="M411.5,43.9c-0.2-0.2-1.1-0.7-1.2-0.5
			C410.6,43.6,411.5,44.2,411.5,43.9z"/>
		<path id="XMLID_66_" fill-rule="evenodd" clip-rule="evenodd" fill="#FFFFFF" d="M411.7,39.4l0.5,0.2c0.1-0.1-0.2-0.2-0.1-0.2
			C411.6,39.2,411.8,39.4,411.7,39.4z"/>
		<path id="XMLID_65_" fill-rule="evenodd" clip-rule="evenodd" fill="#FFFFFF" d="M411.5,38.5c0.3,0.2,0,0.3,0.6,0.5
			C412.5,39.1,411.8,38.5,411.5,38.5z"/>
		<path id="XMLID_64_" fill-rule="evenodd" clip-rule="evenodd" fill="#FFFFFF" d="M410.7,37.5c-0.1-0.2-0.2-0.2,0.3-0.1
			c-0.2-0.1-0.3-0.2-0.5-0.3C410.7,37.4,410,37.3,410.7,37.5z"/>
		<path id="XMLID_45_" fill-rule="evenodd" clip-rule="evenodd" fill="#FFFFFF" d="M442.3,78.6l0-1.2c0-0.5-0.1-0.9-0.1-1.4
			c0-0.2-0.1-0.5-0.1-0.7l-0.1-0.4l-0.3-1.1c-0.8-2.6-2.1-5.4-4.2-7.6c-2.1-2.3-4.7-3.8-7.3-4.7c-2.6-0.9-5.2-1.1-7.5-1.1
			c-1.5,0-2.8,0.1-4.2,0.3c0.1-0.1,0.2-0.3,0.3-0.4c2-3,3-5.4,3.8-7.6c0.8-2.3,1.3-4.5,1.7-7.2c0.3-1.6,0.4-3.4,0.1-5.1
			c-0.4-2.7-1.5-5.4-2.8-7.7c-0.9-1.5-2.4-3-4.7-4.1c-0.1,0-0.2,0-0.3,0c0.5-0.4,0.7-0.8,1.3-1.2c-0.9-0.3-1.5-0.6-1.9-0.9
			c-0.5-0.3-0.9-0.7-1.4-1c1.3-0.2,0.3-1-0.4-1.4c0.2-0.2,0.9,0.1,1-0.2c-1.4-0.7-1.8-1.6-3.3-2c0.4-0.1,1,0,1.2-0.2
			c-2.8,0.1-4.8-1.2-7.6-1.6c-1.2-0.2-2.3,0-3.3,0.2c-1,0.2-1.8,0.5-2.6,0.7c-3.5,1-7.3,2.7-10,4.5c-0.4,0.3-0.9,0.6-1.3,1l-0.3,0.3
			l0,0l0,0l0,0l-0.3,0.2l-0.1,0.1l-0.1,0.1l-0.5,0.5c-0.6,0.6-1.2,1.3-1.8,2l-0.9,1l-1,1.2c-0.7,0.8-1.3,1.6-2,2.4
			c-1.1,1.3-2,2.5-3,3.8c-1,1.3-2,2.5-2.9,3.8c-0.9,1.3-1.9,2.5-2.8,3.8c-0.9,1.3-1.8,2.6-2.7,3.9l-1.4,2l-1.3,2
			c-0.9,1.3-1.7,2.7-2.6,4c-0.8,1.4-1.6,2.8-2.4,4.1c-0.8,1.4-1.6,2.7-2.3,4.2c-1.1,2.2-1.9,4.4-3.1,6.6c-1.1,2.1-2.1,4-3.2,6
			c-1,2-1.9,4-2.8,6c-0.4,0.9-0.9,1.8-1.2,2.7l-1.1,2.7c-0.8,1.8-1.5,3.6-2.3,5.5c-0.8,2.1-1.6,4.1-2.2,6.1c-0.3,1-0.7,1.9-0.9,2.9
			c0,0.1-0.1,0.3-0.1,0.4c-2.6-0.4-5.1-0.9-7.5-1.7c-1.7-0.6-3.3-1.6-5-2.5c-1.6-0.9-3.2-1.7-5.1-1.9c3,2.6,6.4,4.7,10,6.3
			c2.3,1.1,4.7,1.9,7.2,2.7c-0.6,1.6-1.1,3.2-1.6,4.8c-0.7,2.3-1.3,4.7-1.9,6.9c-0.5,1.7-1.2,3.3-1.7,4.9c-0.5,1.6-0.9,3.1-1.1,4.7
			c-0.1,0.9,0.4,1.8,0.5,2.9c0,0.8-0.1,1.5-0.2,2.3c-0.1,0.8-0.3,1.6-0.4,2.3c-0.3,1.5-0.6,3-0.5,4.4c0.5-0.2,0.2-1.5,0.7-1.7
			c0,2-0.3,4.1-0.2,6c0.8-0.1,0.6-1.5,1.5-1.6c0.1,0.3-0.4,0.9,0,0.9c1-3.2,1.7-7.3,2.6-9.4c0.3-1.7,0.8-5.2,1.9-7.9
			c-0.2,2.6-0.8,4.9-1.4,7c-0.6,2.1-1,4.1-0.9,5.9c0.8-2.1,1.1-4,1.7-5.8c0.6-1.8,1.1-3.5,2.1-5.1c-0.6,1.8-1.1,3.8-1.6,5.8
			c-0.4,2-0.8,3.9-1.3,5.5l-0.5,2.4c0.5-1.5,0.9-3.1,1.3-4.7c0.4-1.6,0.7-3.3,1.2-4.9c0.4-1.6,0.8-3.2,1.2-4.8
			c0.4-1.6,0.7-3.1,1.2-4.6c0-0.1,0.1-0.2,0.2-0.1l0,0.2c0,0.1,0.1,0.2,0.2,0.1c0-0.3-0.1-0.5-0.2-0.8c1.1-1.7,1.8-4,2.5-6.3
			c0.7-2.4,1.5-4.8,2.5-6.7l0.9,0.3c0.1-0.1,0.1-0.2,0.2-0.3c5.7,1.3,11.5,2.3,17.6,2.5c10.7,0.2,21.4-1.3,32.2-3.8
			c5.3-1.2,10.6-2.9,15.9-5.1c5.2-2.2,10.4-4.9,15.3-8.7c1.6-1.2,3.2-2.7,4.8-4.6c1.6-1.8,3.1-4.1,4-7
			C441.9,81.8,442.2,80.2,442.3,78.6z M417.2,60.9c0.2-0.3,0.5-0.6,0.8-0.7c-0.1,0.2-0.2,0.4-0.3,0.6
			C417.5,60.8,417.4,60.9,417.2,60.9z M418.7,59.1c-0.6,0.5,0.3-0.6,0.3-1C419.4,58.7,418.8,59,418.7,59.1z M419.8,57
			c0-0.6,0.1-1.8,1-1.7C420.3,55.8,420.4,56.5,419.8,57z M420.9,48.7l-0.2,0.4c0.1,0.2,0,0.4-0.1,0.6
			C420,49.4,420.6,48.7,420.9,48.7z M417.9,54.8c0.4-0.7,0.7-1.5,1.6-1.9c-0.2-0.2-0.6-0.3-0.4-0.4c0.8-0.9,0.6-2.1,1.4-2.7
			c-0.3,2-1.2,3.5-1.5,5.5c0.5-1.3,1.1-2.5,1.7-3.9c0.1,0,0.2,0.1,0.3,0.2c-0.2-2,0.7-3.3,1.2-4.6c0.1,2.2-0.9,4.1-1.3,6.5l-0.1,0.2
			c0.2,0.1,0.2,0,0.3-0.1c0.6-0.4,0-1.2,0.8-1c-0.7,0.8-0.3,1.9-1.3,2.4c0-0.4,0.4-0.3,0-0.6c-0.9,2.1-2.7,4.2-3.5,6.6
			c-1.4,0.2-2.8,0.5-4.2,0.8C414.8,59.5,416.4,57.3,417.9,54.8z M411.7,34.5l-0.1,0.2c-0.4-0.1-0.6,0-1.1-0.2c0.3-0.2-0.4-0.5,0-0.7
			c-0.5,0.2-0.5-0.3-0.3-0.3c0.1,0.1,0.7,0.3,0.3,0.3c0.4,0,1,0.3,1.6,0.6c-0.3-0.2-0.7-0.2-1.1-0.3
			C411.2,34.2,411.1,34.3,411.7,34.5z M409.9,32.6c-0.2,0-0.2,0-0.2,0l-0.4-0.1c-0.5-0.3,0.3-0.4-0.6-0.6c0.4-0.1,0-0.2-0.3-0.4
			c0.1,0,0.4,0.1,0.4,0c-0.6-0.2,0-0.2-0.5-0.3c0.1,0,0.3-0.1,0.4-0.1c0.5,0.3,0,0.7,1.2,1.2c-0.5-0.2-0.4,0-0.8-0.1
			C409.2,32.2,409.7,32.4,409.9,32.6z M407.5,31.4c0.1,0,0.1,0.1,0.2,0.1c0,0,0-0.1,0-0.1c0.1,0,0.2-0.1,0.3-0.1
			c0.1,0.1,0.3,0.3,0.3,0.4l-0.9-0.2C407.3,31.4,407.4,31.4,407.5,31.4z M408,31.7c0.6,0.2,0.2,0.3,0.5,0.5
			C407.8,32,407.7,31.7,408,31.7z M409.2,33c-0.7-0.1-0.7-0.5-0.8-0.7C409,32.6,408.9,32.8,409.2,33z M344.3,102.3
			c0.2,0.6-0.5,1.6-0.7,2.4c0,0-0.1,0-0.1,0C343.5,104,344.2,103.1,344.3,102.3z M431.6,78.4c0,0.1,0,0.3,0,0.4
			c0,0.2-0.1,0.3-0.1,0.5c-0.2,0.6-0.4,1.3-0.8,2c-0.8,1.4-2.1,2.8-3.5,4.1c-1.5,1.3-3.2,2.6-5,3.7c-3.7,2.3-7.8,4.3-12.1,6
			c-4,1.6-8,3.8-12.4,5.1c-5.1,1.4-9.6,2.1-13.7,2.7c-4.2,0.6-8,1.2-12.3,2.1c-6-0.2-12.2,0.2-18.4,0.2c0,0,0,0,0,0
			c0.3-0.5,0.6-1,0.7-1.6c0-0.1,0.1-0.3,0.1-0.4c0,0.2-0.1,0.3-0.1,0.4c0,0,0,0.1,0.1,0.1c0.6-1.5,1.2-3.1,1.8-4.7
			c0.7-1.6,1.3-3.3,2-5.1c1-2.6,2.5-5,3.9-7.4c1.4-2.4,2.9-4.6,4.1-7c1.1-2.3,2.7-5.2,4.2-7.7c0.9-1.5,1.8-3,2.7-4.5
			c0.4-0.8,0.9-1.5,1.3-2.3c0.5-0.7,1-1.5,1.4-2.2c3.1-5,7.2-10.4,10.3-14.8c0.7-0.9,1.4-1.9,2.2-2.8c0.8-0.8,1.6-1.6,2.3-2.5
			c0.4-0.4,0.8-0.8,1.2-1.2c0.5-0.4,0.9-0.8,1.3-1.2c0.4-0.4,0.9-0.8,1.3-1.2l0.6-0.6l0.3-0.3l0,0l0,0l0,0c-0.2,0.2-0.1,0-0.1,0.1
			l0,0l0,0l0.1-0.1l0.1-0.1c2.4-2.5,5.7-4.3,9.2-5.6c0.9-0.4,1.9-0.7,2.8-1c0.2,0.2,1,0.7,0.2,0.7c1.3,0.4,0.1,0.4,1,0.7
			c0,0.1-0.3,0-0.4,0c2,0.6,1.3,1,1.7,1.5c-0.5-0.2-0.9-0.3-1.1-0.3c0.7,0.3,1.5,0.5,1.7,1c-0.3-0.2-0.9-0.3-0.6-0.1
			c0,0,0.5,0.4,0.8,0.6c0.1,0.3-0.4,0.6,0.8,1.1c0.2-0.3-0.4-0.5-0.5-0.9c0.3-0.1,0.8,0.2,1,0.1c-0.6-0.2-0.6-0.1-0.9-0.3
			c-0.1-0.4-0.3-0.6,0.6-0.5c0.1,0.2,0.4,0.2,0.5,0.3c-0.5-0.1-0.6,0.1-0.8,0.1c1.1,0.4,1.3,0.7,0.8,0.7c1,0.3,0.8,0.8,1.1,0.9
			c-0.2-0.1-0.1-0.1-0.3-0.2c-0.5,0.2-0.3,0.5,0.2,1c0.8,0.3-0.1-0.3,0.6-0.1c1.4,1.3,1.1,1.8,0.9,2.5c-0.5-0.3-0.1-0.5-0.7-0.8
			c-0.1,0.3,0.6,0.7,1,1.1c-0.4-0.1,0.2,0.4-0.4,0c0.7,1,0.4,1.4,0.5,2.5c-0.4,0-0.7-0.4-0.9-0.3c0.2,0.1,0.4,0.2,0.3,0.3
			c0.1,0.2,0.1-0.1,0.5,0.2c-0.3,1.1,0.2,3.6-1.3,4.6c0.3,0.6,0.5,1.2-0.1,1.2c-0.7-0.3,0.1-0.5-0.5-0.6c0.3,0.3-0.1,0.3,0,0.4
			c0.3,0.3,0.8,0.4,0.8,0.5c0,0.6-0.4,1.3-0.8,1.5c0-0.1,0-0.1-0.2-0.3c0.6,1.5-0.3,2.3-0.9,3c0,0.8-0.3,1.2-0.9,1.3
			c-0.7,2.4-3.2,5-5.9,7.1c-0.1-0.2-0.1-0.4-0.3-0.3c0.2,0.7-0.5,0.3,0,0.7c-1,0.1-1,1.8-2.4,1.1c0.4,0.6-0.1,0.3,0,0.6
			c-1,0.6-2,1.2-2.9,1.7c-0.5,0.3-0.9,0.5-1.4,0.8c-0.1,0.1-0.3,0.2-0.4,0.2c-0.3,0.1-0.6,0.3-0.9,0.4c0,0,0,0,0-0.1l-1.2,0.4
			c0,0,0,0.1,0,0.2c-0.8,0.4-1.5,0.7-2.1,1.1c-0.2,0.1-0.3,0.2-0.5,0.3c-1.3,0.4-2.7,0.7-4.4,1.2c0.1,0.1,0.3-0.3,0.4,0.1
			c-0.9,0.2-1.4,0.4-2.3,0.4c0.8,0.8,2-0.1,2.6,0.3c-0.1,0.2-0.3,0.1-0.4,0.7c1.1,0.3,2.2,0.2,3.3,0.1c0.3,0,0.5-0.1,0.8-0.2
			c0.3,0,0.7,0,1,0c1.8-0.1,4.1-0.5,6.6-1.1c4.6-1.1,10.5-2.4,15.2-2.4c2.1,0,4,0.2,5.7,0.4c2.1,0.3,3.9,0.8,5.4,1.6
			c1.5,0.8,2.5,1.7,3.3,2.9c0.4,0.6,0.7,1.3,1,2l0.2,0.6l0.1,0.3l0.1,0.1l0,0.1l0,0l0-0.2l0,0c0,0.1-0.1-0.3,0.1,0.3l0,0l0,0
			l0.1,0.7l0,0.2c0,0,0,0,0,0.1c0,0,0,0.1,0,0.1c0,0,0,0.1,0,0.1c0,0.1,0,0.1,0,0.2C431.6,78.1,431.7,78.2,431.6,78.4z"/>
	</g>
</g>
</svg>
