<?xml version="1.0" encoding="utf-8"?>
<!-- Generator: Adobe Illustrator 19.2.1, SVG Export Plug-In . SVG Version: 6.00 Build 0)  -->
<svg version="1.1" id="Layer_1" xmlns="http://www.w3.org/2000/svg" xmlns:xlink="http://www.w3.org/1999/xlink" x="0px" y="0px"
	 viewBox="0 0 1068.5 1115.1" enable-background="new 0 0 1068.5 1115.1" xml:space="preserve">
<g>
	<path fill="#FFFFFF" d="M208.1,799.3h652.2L534.2,240.2L208.1,799.3z M718.9,651.5v-55.1l7.9,13.6v55.6L718.9,651.5z M717.4,649
		l-7.5-13.4v-54.5l7.5,12.9V649z M708.1,632.3l-7.1-12.6v-53.9l7.1,12.1V632.3z M698.7,615.6l-6.6-11.8v-53.3l6.6,11.4V615.6z
		 M689.4,598.9l-6.2-11.1v-52.6l6.2,10.7V598.9z M680,582.2l-5.8-10.3v-52l5.8,9.9V582.2z M670.7,565.5l-5.4-9.5v-51.4l5.4,9.2
		V565.5z M661.3,548.9l-4.9-8.8v-50.8l4.9,8.4V548.9z M651.9,532.2l-4.5-8V474l4.5,7.7V532.2z M642.6,515.5l-4.1-7.3v-49.6l4.1,7
		V515.5z M633.2,498.8l-3.6-6.5v-49l3.6,6.2V498.8z M623.9,482.1l-3.2-5.7V428l3.2,5.5V482.1z M614.5,465.5l-2.8-5v-47.8l2.8,4.8
		V465.5z M605.2,448.8l-2.4-4.2v-47.2l2.4,4V448.8z M595.8,432.1l-1.9-3.4v-46.5l1.9,3.3V432.1z M586.4,415.4l-1.5-2.7v-45.9
		l1.5,2.6V415.4z M577.1,398.7l-1.1-1.9v-45.3l1.1,1.8V398.7z M567.7,382l-0.6-1.1v-44.7l0.6,1.1V382z M558.4,365.4l-0.2-0.4v-44.1
		l0.2,0.4V365.4z M342.8,663.7v-55.6l7.9-13.6v55L342.8,663.7z M352.1,592.1l7.5-12.9v54.4l-7.5,13.4V592.1z M361.5,576.1l7.1-12.1
		v53.8l-7.1,12.6V576.1z M370.8,560l6.6-11.4v53.2l-6.6,11.8V560z M380.2,544l6.2-10.7v52.6l-6.2,11.1V544z M389.5,528l5.8-9.9v52
		l-5.8,10.3V528z M398.9,511.9l5.4-9.2v51.4l-5.4,9.5V511.9z M408.3,495.9l4.9-8.4v50.7l-4.9,8.8V495.9z M417.6,479.8l4.5-7.7v50.1
		l-4.5,8V479.8z M427,463.8l4.1-7v49.5l-4.1,7.3V463.8z M436.3,447.7l3.6-6.2v48.9l-3.6,6.5V447.7z M445.7,431.7l3.2-5.5v48.3
		l-3.2,5.7V431.7z M455,415.7l2.8-4.8v47.7l-2.8,5V415.7z M464.4,399.6l2.4-4v47.1l-2.4,4.2V399.6z M473.8,383.6l1.9-3.3v46.5
		l-1.9,3.4V383.6z M483.1,367.5l1.5-2.6v45.9l-1.5,2.7V367.5z M492.5,351.5l1.1-1.8v45.2l-1.1,1.9V351.5z M501.8,335.4l0.6-1.1V379
		l-0.6,1.1V335.4z M511.2,319.4l0.2-0.4v44l-0.2,0.4V319.4z M242.9,779.3l98.8-169.4v55.6l-63.8,113.8H242.9z M300.9,779.3
		l233.4-416.1l233.4,416.1H300.9z M790.5,779.3l-62.8-111.9v-55.7l97.7,167.6H790.5z"/>
	<path fill="#FFFFFF" d="M1062.1,914.3L955.3,729.2l5.9,0.6c0.3,0,0.6,0,0.8,0c4.2,0,7.8-3.2,8.2-7.5c0.5-4.6-2.9-8.6-7.4-9.1
		l-17.8-1.8l-34.5-59.7l13.8-3l38.4-3.8c4.6-0.4,7.9-4.5,7.4-9.1c-0.4-4.5-4.5-7.9-9.1-7.4l-38.4,3.8l-23.7-0.5l-9.5-16.4l21.1-4.2
		c3.7-0.7,6.2-4.4,5.4-8.1c-0.7-3.7-4.4-6.2-8.1-5.4l-25.7,5.1l-7.9-13.6l36.6-15.9l36.9-11.2c4.4-1.3,6.8-6,5.5-10.3
		c-1.3-4.4-5.9-6.9-10.3-5.5l-36.9,11.2l-45.6,8l-6.5-11.3l36.1-14.9c3.5-1.5,5.2-5.5,3.7-9c-1.5-3.5-5.5-5.2-9-3.7l-37.8,15.6
		l-6.3-10.9l42.3-29.3l34-18.2c4-2.2,5.6-7.2,3.4-11.2c-2.2-4-7.2-5.6-11.2-3.4l-34,18.2l-48.9,19l-5.9-10.2l35.5-23.7
		c3.2-2.1,4-6.4,1.9-9.5c-2.1-3.2-6.4-4-9.5-1.9l-34.8,23.2l-6.4-11.1l34.6-35.8l29.9-24.5c3.5-2.9,4.1-8.1,1.2-11.7
		s-8.1-4.1-11.7-1.2l-29.9,24.5l-38,24.6l-7.3-12.6l23.2-23.2c2.7-2.7,2.7-7,0-9.7c-2.7-2.7-7-2.7-9.7,0l-20.6,20.6l-8.4-14.6
		l18-27.9l24.5-29.9c2.9-3.5,2.4-8.8-1.2-11.7c-3.5-2.9-8.8-2.4-11.7,1.2L776,371.3l-17.6,16.9l-9.9-17.1l4.1-6.1
		c2.1-3.2,1.3-7.4-1.9-9.6c-3.2-2.1-7.4-1.3-9.6,1.9l-0.3,0.5l-13.2-22.8l16.6-31c2.2-4,0.6-9-3.4-11.2c-4-2.2-9.1-0.6-11.2,3.4
		l-11.7,22L560.2,45l-26-45l-26,45L350.8,317.8l-11.7-21.8c-2.2-4-7.2-5.6-11.2-3.4c-4,2.2-5.6,7.2-3.4,11.2l16.5,30.9l-13,22.6
		l-0.2-0.2c-2.1-3.2-6.4-4-9.5-1.9c-3.2,2.1-4,6.4-1.9,9.5l3.9,5.9l-10.1,17.6l-17.5-16.9l-24.5-29.9c-2.9-3.5-8.1-4.1-11.7-1.2
		c-3.5,2.9-4.1,8.1-1.2,11.7l24.5,29.9l18,27.7l-8.6,14.9l-20.6-20.6c-2.7-2.7-7-2.7-9.7,0c-2.7,2.7-2.7,7,0,9.7l23.2,23.2L275,449
		l-38-24.5L207.1,400c-3.5-2.9-8.8-2.4-11.7,1.2c-2.9,3.5-2.4,8.8,1.2,11.7l29.9,24.5l34.5,36l-6.2,10.7l-34.7-23.2
		c-3.2-2.1-7.4-1.3-9.6,1.9c-2.1,3.2-1.3,7.4,1.9,9.6l35.5,23.7l-6.1,10.6l-48.7-19.2l-34-18.2c-4-2.2-9.1-0.6-11.2,3.4
		c-2.2,4-0.6,9,3.4,11.2l34,18.2l42.1,29.6l-5.9,10.3l-37.8-15.7c-3.5-1.5-7.5,0.2-9,3.7c-1.5,3.5,0.2,7.5,3.7,9l36.1,15l-6.8,11.8
		l-45.4-8.3l-36.9-11.2c-4.4-1.3-9,1.1-10.3,5.5c-1.3,4.4,1.1,9,5.5,10.3l36.9,11.2l36.6,16.1l-7.6,13.2l-25.9-5.2
		c-3.7-0.7-7.4,1.7-8.1,5.4c-0.7,3.7,1.7,7.4,5.4,8.1l21.3,4.3l-9.7,16.7l-23.8,0.4l-38.4-3.8c-4.6-0.5-8.6,2.9-9.1,7.4
		c-0.5,4.6,2.9,8.6,7.4,9.1l38.4,3.8l13.9,3l-34.5,59.7l-17.9,1.8c-4.6,0.4-7.9,4.5-7.4,9.1c0.4,4.3,4,7.5,8.2,7.5
		c0.3,0,0.5,0,0.8,0l6.1-0.6L6.4,914.3l-6.4,11l3.5,12.2l33.4,117.1l6.2,21.8h22.6h339l-3.5,11.5c-1.3,4.4,1.1,9,5.5,10.3
		c0.8,0.2,1.6,0.4,2.4,0.4c3.5,0,6.8-2.3,7.9-5.9l5-16.3h64.3l-2.9,29.6c-0.5,4.6,2.9,8.6,7.4,9.1c0.3,0,0.6,0,0.8,0
		c4.2,0,7.8-3.2,8.2-7.5l3.1-31.2h62.1l3.1,31.3c0.4,4.3,4,7.5,8.2,7.5c0.3,0,0.5,0,0.8,0c4.6-0.4,7.9-4.5,7.4-9.1l-2.9-29.6h64.3
		l5,16.4c1.1,3.6,4.4,5.9,7.9,5.9c0.8,0,1.6-0.1,2.4-0.4c4.4-1.3,6.8-6,5.5-10.3l-3.5-11.6h339.3h22.6l6.2-21.8l33.4-117.1l3.5-12.2
		L1062.1,914.3z M987.6,1026.4H729h-19h-24.8h-14.9h-18.9h-24.3h-16.8h-14h-14.4h-26.6h-14.1h-13.8h-14.4h-26.3h-14.9h-14h-16.4H417
		h-19.5h-14.9h-24.3h-19.1H80.8l-22-77.1h134.9h23.7h39.5h16.8h23.4h34.5h13.6h17.3h48.2h23.3h33.2h26h27.8h26.3h27h26h33H657h48.3
		h17.4h14.3H771h23.8h16.8h39.1h23.9h135.1L987.6,1026.4z M852.4,929.3h-27.5h-30.6h-19.5H758h-30h-16.2h-23.7h-36.9h-22.8H441.2
		h-24.8h-36.8H356h-17.4H310h-16.2h-19.5h-31.1h-27.4H43.8l70.8-125.5l4-7.1l39.9-70.7l12.8-22.6l9.8-17.4l7.8-13.8l7-12.5
		l16.1-28.6l4.6-8.2l7.8-13.8l10.3-18.3l2.5-4.3l9.6-17l9.1-16l20.2-35.7l9.1-16.2l21.6-38.2l8.1-14.4l5-8.9l15.5-27.4l5.9-10.5
		l7.6-13.4l8-14.2l14-24.7l11.4-20.2l6-10.7l18.2-32.3l11.3-19.9L534.2,60h0l0,0l116.7,206.8l11.2,19.9l18.2,32.2l6.3,11.1
		l11.1,19.6l13.9,24.7l8.3,14.7l7.6,13.4l5.6,10l14.8,26.3l5.7,10.1l8.1,14.4l10.2,18l1.9,3.4l9.7,17.3l9.1,16.2l20.2,35.8l9,16
		l9.8,17.4l2.3,4.1l10.2,18.1l7.8,13.8l5,8.9l15.7,27.8l6.8,12.1l7.8,13.8l10,17.8l12.7,22.4l40.1,71l3.7,6.5l70.9,125.6H852.4z"/>
</g>
</svg>
